M48
; DRILL file {KiCad (6.0.6-0)} date Friday, August 05, 2022 at 11:52:23 AM
; FORMAT={-:-/ absolute / metric / decimal}
; #@! TF.CreationDate,2022-08-05T11:52:23-07:00
; #@! TF.GenerationSoftware,Kicad,Pcbnew,(6.0.6-0)
; #@! TF.FileFunction,Plated,1,4,PTH
FMAT,2
METRIC
; #@! TA.AperFunction,Plated,PTH,ViaDrill
T1C0.200
; #@! TA.AperFunction,Plated,PTH,ViaDrill
T2C0.381
; #@! TA.AperFunction,Plated,PTH,ComponentDrill
T3C0.600
; #@! TA.AperFunction,Plated,PTH,ComponentDrill
T4C0.650
; #@! TA.AperFunction,Plated,PTH,ComponentDrill
T5C0.762
; #@! TA.AperFunction,Plated,PTH,ComponentDrill
T6C0.800
; #@! TA.AperFunction,Plated,PTH,ComponentDrill
T7C0.900
; #@! TA.AperFunction,Plated,PTH,ComponentDrill
T8C1.000
; #@! TA.AperFunction,Plated,PTH,ComponentDrill
T9C1.100
; #@! TA.AperFunction,Plated,PTH,ComponentDrill
T10C1.300
; #@! TA.AperFunction,Plated,PTH,ComponentDrill
T11C2.000
; #@! TA.AperFunction,Plated,PTH,ComponentDrill
T12C2.200
%
G90
G05
T1
X90.043Y-46.228
X90.043Y-52.705
X91.059Y-53.721
X91.186Y-51.181
X91.186Y-51.943
X91.186Y-52.705
X92.075Y-56.642
X92.837Y-48.895
X93.091Y-50.8
X93.091Y-54.737
X93.345Y-48.387
X93.736Y-43.805
X93.853Y-50.8
X93.853Y-53.975
X93.853Y-56.388
X93.884Y-61.445
X93.884Y-62.269
X94.234Y-47.625
X94.584Y-61.445
X94.615Y-46.101
X94.615Y-53.213
X94.615Y-54.102
X94.615Y-56.388
X94.742Y-52.451
X95.006Y-42.428
X95.006Y-44.948
X95.377Y-54.102
X95.504Y-51.562
X95.504Y-53.213
X95.504Y-55.626
X96.266Y-50.038
X96.266Y-53.975
X96.266Y-55.626
X96.266Y-56.388
X96.393Y-49.022
X97.028Y-53.213
X97.034Y-56.381
X97.155Y-49.022
X97.536Y-57.404
X97.546Y-41.031
X97.79Y-51.689
X97.79Y-52.451
X97.917Y-49.022
X98.298Y-57.404
X98.298Y-58.039
X98.552Y-48.514
X98.679Y-52.451
X98.816Y-39.614
X98.816Y-45.71
X99.441Y-52.451
X99.441Y-57.277
X100.33Y-57.277
X100.457Y-50.038
X100.457Y-52.832
X100.457Y-53.721
X101.219Y-53.721
X101.727Y-51.562
X101.727Y-55.245
X102.362Y-52.07
X102.362Y-56.007
X102.997Y-56.642
X103.378Y-59.436
X103.378Y-61.214
X103.632Y-57.15
X104.267Y-57.658
X104.902Y-58.166
X105.537Y-58.674
T2
X26.035Y-29.591
X26.035Y-30.48
X26.316Y-28.392
X30.089Y-29.601
X30.861Y-32.512
X30.861Y-33.401
X30.861Y-34.29
X30.861Y-35.179
X31.141Y-28.392
X31.877Y-31.75
X33.655Y-37.719
X33.655Y-38.481
X33.655Y-39.243
X34.671Y-37.719
X34.671Y-38.481
X34.671Y-39.243
X35.052Y-36.83
X35.179Y-31.623
X35.179Y-32.385
X35.687Y-30.988
X36.449Y-30.988
X37.719Y-32.131
X37.719Y-34.925
X38.1Y-31.369
X38.1Y-35.687
X38.481Y-32.131
X38.481Y-34.925
X38.862Y-31.369
X38.862Y-35.687
X39.243Y-32.131
X39.243Y-34.925
X39.624Y-31.369
X39.624Y-35.687
X40.005Y-32.131
X40.005Y-34.925
X40.767Y-33.02
X40.767Y-34.036
X53.468Y-50.671
X53.975Y-48.895
X54.102Y-58.42
X54.102Y-59.436
X54.102Y-60.452
X55.245Y-49.911
X55.499Y-38.608
X65.659Y-56.515
X66.802Y-76.962
X66.929Y-60.452
X67.183Y-51.816
X67.183Y-52.705
X67.31Y-50.165
X68.961Y-60.452
X69.088Y-73.914
X69.85Y-74.549
X70.358Y-52.324
X70.358Y-53.086
X70.358Y-57.277
X70.739Y-50.419
X70.739Y-51.562
X71.12Y-57.277
X73.025Y-50.419
X73.025Y-51.562
X73.406Y-53.721
X73.406Y-59.563
X76.073Y-53.721
X76.073Y-59.563
X76.454Y-51.054
X76.454Y-51.943
X76.454Y-52.832
X78.486Y-38.735
X79.502Y-45.593
X79.502Y-48.895
X83.947Y-56.388
X85.09Y-58.928
X87.63Y-58.928
X87.63Y-59.944
X87.884Y-52.832
X87.884Y-53.594
X87.884Y-54.356
X88.9Y-63.881
X89.027Y-57.15
X90.043Y-57.15
X90.17Y-54.864
X90.551Y-45.72
X90.551Y-59.182
X91.694Y-63.754
X96.139Y-58.42
X97.028Y-45.593
X97.028Y-46.609
X97.155Y-61.341
X98.171Y-44.577
X98.552Y-61.468
X100.076Y-47.498
X100.584Y-61.468
X100.711Y-44.831
X100.711Y-45.593
X100.965Y-58.547
X101.981Y-36.195
X102.362Y-44.958
X104.775Y-50.419
X106.426Y-35.433
X107.188Y-36.068
X109.093Y-51.435
X109.093Y-56.769
X110.109Y-52.197
X110.109Y-56.769
X111.633Y-52.197
X111.633Y-54.483
X111.633Y-56.769
X113.157Y-52.197
X113.157Y-53.721
X113.157Y-56.769
X114.681Y-52.832
X114.681Y-56.769
X116.205Y-55.245
X116.205Y-56.769
X120.65Y-36.576
X121.539Y-39.37
X125.73Y-47.117
X125.73Y-48.006
X136.398Y-51.816
X140.97Y-52.451
X148.59Y-56.896
X149.86Y-56.896
X151.13Y-56.896
T4
X93.736Y-36.205
X93.736Y-37.475
X95.006Y-36.205
X95.006Y-37.475
X96.276Y-36.205
X96.276Y-37.475
X97.546Y-36.205
X97.546Y-37.475
X98.816Y-36.205
X98.816Y-37.475
T5
X118.11Y-26.289
X118.11Y-28.829
X120.65Y-26.289
X120.65Y-28.829
X123.19Y-26.289
X123.19Y-28.829
X125.73Y-26.289
X125.73Y-28.829
T6
X47.615Y-40.396
X47.615Y-48.016
X50.155Y-40.396
X50.155Y-48.016
X52.695Y-40.396
X52.695Y-48.016
X55.235Y-40.396
X55.235Y-48.016
X136.393Y-36.723
X136.393Y-46.883
X138.933Y-36.723
X138.933Y-46.883
T7
X37.919Y-75.946
X40.459Y-75.946
X56.787Y-75.946
X59.327Y-75.946
X75.656Y-75.946
X78.196Y-75.946
X94.524Y-75.946
X97.064Y-75.946
X113.393Y-75.946
X115.933Y-75.946
X132.261Y-75.946
X134.801Y-75.946
X139.446Y-32.766
X141.986Y-32.766
T8
X37.505Y-49.007
X37.505Y-63.507
X40.005Y-63.507
X42.505Y-49.007
X42.505Y-63.507
X61.235Y-48.387
X61.235Y-50.927
X61.235Y-53.467
X61.235Y-56.007
X61.235Y-58.547
X61.235Y-61.087
X61.235Y-63.627
X63.775Y-48.387
X63.775Y-50.927
X63.775Y-53.467
X63.775Y-56.007
X63.775Y-58.547
X63.775Y-61.087
X63.775Y-63.627
X66.735Y-36.195
X74.235Y-36.195
X141.538Y-36.957
X141.735Y-48.507
X141.735Y-63.507
X147.315Y-43.439
X147.315Y-45.979
X147.315Y-48.519
X147.315Y-51.059
X147.315Y-53.599
X149.038Y-36.957
X149.855Y-43.439
X149.855Y-45.979
X149.855Y-48.519
X149.855Y-51.059
X149.855Y-53.599
T9
X23.15Y-72.696
X23.15Y-79.196
X27.65Y-72.696
X27.65Y-79.196
X53.376Y-56.186
X53.376Y-62.686
X57.876Y-56.186
X57.876Y-62.686
T10
X49.777Y-32.559
X52.277Y-35.059
X54.777Y-22.559
X57.277Y-32.559
X59.777Y-22.559
X62.277Y-35.059
X64.777Y-32.559
X76.193Y-32.559
X78.693Y-35.059
X81.193Y-22.559
X83.693Y-32.559
X86.193Y-22.559
X88.693Y-35.059
X91.193Y-32.559
T11
X136.906Y-27.686
X147.066Y-27.686
T12
X34.405Y-56.007
X45.605Y-56.007
T3
G00X24.409Y-23.077
M15
G01X24.409Y-22.277
M16
G05
G00X24.409Y-27.407
M15
G01X24.409Y-26.307
M16
G05
G00X33.048Y-23.077
M15
G01X33.048Y-22.277
M16
G05
G00X33.048Y-27.407
M15
G01X33.048Y-26.307
M16
G05
G00X101.048Y-27.095
M15
G01X101.048Y-27.695
M16
G05
G00X103.048Y-30.195
M15
G01X103.048Y-30.795
M16
G05
G00X104.948Y-22.395
M15
G01X104.348Y-22.395
M16
G05
G00X106.248Y-30.195
M15
G01X106.248Y-30.795
M16
G05
G00X107.748Y-28.195
M15
G01X107.748Y-28.795
M16
G05
G00X109.148Y-30.195
M15
G01X109.148Y-30.795
M16
G05
T0
M30
