%TF.GenerationSoftware,KiCad,Pcbnew,(6.0.10-0)*%
%TF.CreationDate,2022-12-22T01:29:59-08:00*%
%TF.ProjectId,Tesla Coil MIDI Synth,5465736c-6120-4436-9f69-6c204d494449,1*%
%TF.SameCoordinates,Original*%
%TF.FileFunction,Legend,Top*%
%TF.FilePolarity,Positive*%
%FSLAX46Y46*%
G04 Gerber Fmt 4.6, Leading zero omitted, Abs format (unit mm)*
G04 Created by KiCad (PCBNEW (6.0.10-0)) date 2022-12-22 01:29:59*
%MOMM*%
%LPD*%
G01*
G04 APERTURE LIST*
%ADD10C,0.150000*%
%ADD11C,0.300000*%
%ADD12C,0.254000*%
%ADD13C,0.120000*%
G04 APERTURE END LIST*
D10*
X98806000Y-67183000D02*
X95631000Y-67183000D01*
X95631000Y-67183000D02*
X95631000Y-65024000D01*
X85344000Y-60960000D02*
X88392000Y-60960000D01*
X95631000Y-65024000D02*
X98806000Y-65024000D01*
X88392000Y-60960000D02*
X89535000Y-60504000D01*
X95631000Y-65024000D02*
X95631000Y-59944000D01*
X85344000Y-65405000D02*
X85344000Y-60960000D01*
X95631000Y-59944000D02*
X95250000Y-59563000D01*
X98806000Y-65024000D02*
X98806000Y-67183000D01*
X88392000Y-60960000D02*
X88392000Y-65405000D01*
X88392000Y-65405000D02*
X85344000Y-65405000D01*
X52657952Y-27011380D02*
X52657952Y-27725666D01*
X52610333Y-27868523D01*
X52515095Y-27963761D01*
X52372238Y-28011380D01*
X52277000Y-28011380D01*
X53610333Y-28011380D02*
X53134142Y-28011380D01*
X53134142Y-27011380D01*
X54515095Y-27916142D02*
X54467476Y-27963761D01*
X54324619Y-28011380D01*
X54229380Y-28011380D01*
X54086523Y-27963761D01*
X53991285Y-27868523D01*
X53943666Y-27773285D01*
X53896047Y-27582809D01*
X53896047Y-27439952D01*
X53943666Y-27249476D01*
X53991285Y-27154238D01*
X54086523Y-27059000D01*
X54229380Y-27011380D01*
X54324619Y-27011380D01*
X54467476Y-27059000D01*
X54515095Y-27106619D01*
X55229380Y-27011380D02*
X55229380Y-27725666D01*
X55181761Y-27868523D01*
X55086523Y-27963761D01*
X54943666Y-28011380D01*
X54848428Y-28011380D01*
X56181761Y-28011380D02*
X55705571Y-28011380D01*
X55705571Y-27011380D01*
X57086523Y-27916142D02*
X57038904Y-27963761D01*
X56896047Y-28011380D01*
X56800809Y-28011380D01*
X56657952Y-27963761D01*
X56562714Y-27868523D01*
X56515095Y-27773285D01*
X56467476Y-27582809D01*
X56467476Y-27439952D01*
X56515095Y-27249476D01*
X56562714Y-27154238D01*
X56657952Y-27059000D01*
X56800809Y-27011380D01*
X56896047Y-27011380D01*
X57038904Y-27059000D01*
X57086523Y-27106619D01*
X57800809Y-27011380D02*
X57800809Y-27725666D01*
X57753190Y-27868523D01*
X57657952Y-27963761D01*
X57515095Y-28011380D01*
X57419857Y-28011380D01*
X58753190Y-28011380D02*
X58277000Y-28011380D01*
X58277000Y-27011380D01*
X59657952Y-27916142D02*
X59610333Y-27963761D01*
X59467476Y-28011380D01*
X59372238Y-28011380D01*
X59229380Y-27963761D01*
X59134142Y-27868523D01*
X59086523Y-27773285D01*
X59038904Y-27582809D01*
X59038904Y-27439952D01*
X59086523Y-27249476D01*
X59134142Y-27154238D01*
X59229380Y-27059000D01*
X59372238Y-27011380D01*
X59467476Y-27011380D01*
X59610333Y-27059000D01*
X59657952Y-27106619D01*
X60372238Y-27011380D02*
X60372238Y-27725666D01*
X60324619Y-27868523D01*
X60229380Y-27963761D01*
X60086523Y-28011380D01*
X59991285Y-28011380D01*
X61324619Y-28011380D02*
X60848428Y-28011380D01*
X60848428Y-27011380D01*
X62229380Y-27916142D02*
X62181761Y-27963761D01*
X62038904Y-28011380D01*
X61943666Y-28011380D01*
X61800809Y-27963761D01*
X61705571Y-27868523D01*
X61657952Y-27773285D01*
X61610333Y-27582809D01*
X61610333Y-27439952D01*
X61657952Y-27249476D01*
X61705571Y-27154238D01*
X61800809Y-27059000D01*
X61943666Y-27011380D01*
X62038904Y-27011380D01*
X62181761Y-27059000D01*
X62229380Y-27106619D01*
D11*
X45041428Y-20618142D02*
X46541428Y-20618142D01*
X45470000Y-21118142D01*
X46541428Y-21618142D01*
X45041428Y-21618142D01*
X45041428Y-22332428D02*
X46541428Y-22332428D01*
X45041428Y-23046714D02*
X46541428Y-23046714D01*
X46541428Y-23403857D01*
X46470000Y-23618142D01*
X46327142Y-23761000D01*
X46184285Y-23832428D01*
X45898571Y-23903857D01*
X45684285Y-23903857D01*
X45398571Y-23832428D01*
X45255714Y-23761000D01*
X45112857Y-23618142D01*
X45041428Y-23403857D01*
X45041428Y-23046714D01*
X45041428Y-24546714D02*
X46541428Y-24546714D01*
X45041428Y-26403857D02*
X46541428Y-26403857D01*
X46041428Y-27118142D02*
X45041428Y-27118142D01*
X45898571Y-27118142D02*
X45970000Y-27189571D01*
X46041428Y-27332428D01*
X46041428Y-27546714D01*
X45970000Y-27689571D01*
X45827142Y-27761000D01*
X45041428Y-27761000D01*
X63937000Y-79529714D02*
X63865571Y-79601142D01*
X63651285Y-79672571D01*
X63508428Y-79672571D01*
X63294142Y-79601142D01*
X63151285Y-79458285D01*
X63079857Y-79315428D01*
X63008428Y-79029714D01*
X63008428Y-78815428D01*
X63079857Y-78529714D01*
X63151285Y-78386857D01*
X63294142Y-78244000D01*
X63508428Y-78172571D01*
X63651285Y-78172571D01*
X63865571Y-78244000D01*
X63937000Y-78315428D01*
X64794142Y-79672571D02*
X64651285Y-79601142D01*
X64579857Y-79529714D01*
X64508428Y-79386857D01*
X64508428Y-78958285D01*
X64579857Y-78815428D01*
X64651285Y-78744000D01*
X64794142Y-78672571D01*
X65008428Y-78672571D01*
X65151285Y-78744000D01*
X65222714Y-78815428D01*
X65294142Y-78958285D01*
X65294142Y-79386857D01*
X65222714Y-79529714D01*
X65151285Y-79601142D01*
X65008428Y-79672571D01*
X64794142Y-79672571D01*
X65937000Y-78672571D02*
X65937000Y-79672571D01*
X65937000Y-78815428D02*
X66008428Y-78744000D01*
X66151285Y-78672571D01*
X66365571Y-78672571D01*
X66508428Y-78744000D01*
X66579857Y-78886857D01*
X66579857Y-79672571D01*
X67079857Y-78672571D02*
X67651285Y-78672571D01*
X67294142Y-78172571D02*
X67294142Y-79458285D01*
X67365571Y-79601142D01*
X67508428Y-79672571D01*
X67651285Y-79672571D01*
X68151285Y-79672571D02*
X68151285Y-78672571D01*
X68151285Y-78958285D02*
X68222714Y-78815428D01*
X68294142Y-78744000D01*
X68437000Y-78672571D01*
X68579857Y-78672571D01*
X69722714Y-79672571D02*
X69722714Y-78886857D01*
X69651285Y-78744000D01*
X69508428Y-78672571D01*
X69222714Y-78672571D01*
X69079857Y-78744000D01*
X69722714Y-79601142D02*
X69579857Y-79672571D01*
X69222714Y-79672571D01*
X69079857Y-79601142D01*
X69008428Y-79458285D01*
X69008428Y-79315428D01*
X69079857Y-79172571D01*
X69222714Y-79101142D01*
X69579857Y-79101142D01*
X69722714Y-79029714D01*
X70365571Y-79601142D02*
X70508428Y-79672571D01*
X70794142Y-79672571D01*
X70937000Y-79601142D01*
X71008428Y-79458285D01*
X71008428Y-79386857D01*
X70937000Y-79244000D01*
X70794142Y-79172571D01*
X70579857Y-79172571D01*
X70437000Y-79101142D01*
X70365571Y-78958285D01*
X70365571Y-78886857D01*
X70437000Y-78744000D01*
X70579857Y-78672571D01*
X70794142Y-78672571D01*
X70937000Y-78744000D01*
X71437000Y-78672571D02*
X72008428Y-78672571D01*
X71651285Y-78172571D02*
X71651285Y-79458285D01*
X71722714Y-79601142D01*
X71865571Y-79672571D01*
X72008428Y-79672571D01*
X147427142Y-58337142D02*
X147427142Y-58837142D01*
X146641428Y-59051428D02*
X146641428Y-58337142D01*
X148141428Y-58337142D01*
X148141428Y-59051428D01*
X146641428Y-59551428D02*
X147641428Y-60337142D01*
X147641428Y-59551428D02*
X146641428Y-60337142D01*
X147641428Y-60908571D02*
X146141428Y-60908571D01*
X147570000Y-60908571D02*
X147641428Y-61051428D01*
X147641428Y-61337142D01*
X147570000Y-61480000D01*
X147498571Y-61551428D01*
X147355714Y-61622857D01*
X146927142Y-61622857D01*
X146784285Y-61551428D01*
X146712857Y-61480000D01*
X146641428Y-61337142D01*
X146641428Y-61051428D01*
X146712857Y-60908571D01*
X146641428Y-62908571D02*
X147427142Y-62908571D01*
X147570000Y-62837142D01*
X147641428Y-62694285D01*
X147641428Y-62408571D01*
X147570000Y-62265714D01*
X146712857Y-62908571D02*
X146641428Y-62765714D01*
X146641428Y-62408571D01*
X146712857Y-62265714D01*
X146855714Y-62194285D01*
X146998571Y-62194285D01*
X147141428Y-62265714D01*
X147212857Y-62408571D01*
X147212857Y-62765714D01*
X147284285Y-62908571D01*
X147641428Y-63622857D02*
X146641428Y-63622857D01*
X147498571Y-63622857D02*
X147570000Y-63694285D01*
X147641428Y-63837142D01*
X147641428Y-64051428D01*
X147570000Y-64194285D01*
X147427142Y-64265714D01*
X146641428Y-64265714D01*
X146712857Y-64908571D02*
X146641428Y-65051428D01*
X146641428Y-65337142D01*
X146712857Y-65480000D01*
X146855714Y-65551428D01*
X146927142Y-65551428D01*
X147070000Y-65480000D01*
X147141428Y-65337142D01*
X147141428Y-65122857D01*
X147212857Y-64980000D01*
X147355714Y-64908571D01*
X147427142Y-64908571D01*
X147570000Y-64980000D01*
X147641428Y-65122857D01*
X147641428Y-65337142D01*
X147570000Y-65480000D01*
X146641428Y-66194285D02*
X147641428Y-66194285D01*
X148141428Y-66194285D02*
X148070000Y-66122857D01*
X147998571Y-66194285D01*
X148070000Y-66265714D01*
X148141428Y-66194285D01*
X147998571Y-66194285D01*
X146641428Y-67122857D02*
X146712857Y-66980000D01*
X146784285Y-66908571D01*
X146927142Y-66837142D01*
X147355714Y-66837142D01*
X147498571Y-66908571D01*
X147570000Y-66980000D01*
X147641428Y-67122857D01*
X147641428Y-67337142D01*
X147570000Y-67480000D01*
X147498571Y-67551428D01*
X147355714Y-67622857D01*
X146927142Y-67622857D01*
X146784285Y-67551428D01*
X146712857Y-67480000D01*
X146641428Y-67337142D01*
X146641428Y-67122857D01*
X147641428Y-68265714D02*
X146641428Y-68265714D01*
X147498571Y-68265714D02*
X147570000Y-68337142D01*
X147641428Y-68480000D01*
X147641428Y-68694285D01*
X147570000Y-68837142D01*
X147427142Y-68908571D01*
X146641428Y-68908571D01*
X71457428Y-20618142D02*
X72957428Y-20618142D01*
X71886000Y-21118142D01*
X72957428Y-21618142D01*
X71457428Y-21618142D01*
X71457428Y-22332428D02*
X72957428Y-22332428D01*
X71457428Y-23046714D02*
X72957428Y-23046714D01*
X72957428Y-23403857D01*
X72886000Y-23618142D01*
X72743142Y-23761000D01*
X72600285Y-23832428D01*
X72314571Y-23903857D01*
X72100285Y-23903857D01*
X71814571Y-23832428D01*
X71671714Y-23761000D01*
X71528857Y-23618142D01*
X71457428Y-23403857D01*
X71457428Y-23046714D01*
X71457428Y-24546714D02*
X72957428Y-24546714D01*
X72957428Y-26689571D02*
X72957428Y-26975285D01*
X72886000Y-27118142D01*
X72743142Y-27261000D01*
X72457428Y-27332428D01*
X71957428Y-27332428D01*
X71671714Y-27261000D01*
X71528857Y-27118142D01*
X71457428Y-26975285D01*
X71457428Y-26689571D01*
X71528857Y-26546714D01*
X71671714Y-26403857D01*
X71957428Y-26332428D01*
X72457428Y-26332428D01*
X72743142Y-26403857D01*
X72886000Y-26546714D01*
X72957428Y-26689571D01*
X72457428Y-28618142D02*
X71457428Y-28618142D01*
X72457428Y-27975285D02*
X71671714Y-27975285D01*
X71528857Y-28046714D01*
X71457428Y-28189571D01*
X71457428Y-28403857D01*
X71528857Y-28546714D01*
X71600285Y-28618142D01*
X72457428Y-29118142D02*
X72457428Y-29689571D01*
X72957428Y-29332428D02*
X71671714Y-29332428D01*
X71528857Y-29403857D01*
X71457428Y-29546714D01*
X71457428Y-29689571D01*
X97873428Y-20618142D02*
X99373428Y-20618142D01*
X98659142Y-20618142D02*
X98659142Y-21475285D01*
X97873428Y-21475285D02*
X99373428Y-21475285D01*
X97944857Y-22761000D02*
X97873428Y-22618142D01*
X97873428Y-22332428D01*
X97944857Y-22189571D01*
X98087714Y-22118142D01*
X98659142Y-22118142D01*
X98802000Y-22189571D01*
X98873428Y-22332428D01*
X98873428Y-22618142D01*
X98802000Y-22761000D01*
X98659142Y-22832428D01*
X98516285Y-22832428D01*
X98373428Y-22118142D01*
X97873428Y-24118142D02*
X98659142Y-24118142D01*
X98802000Y-24046714D01*
X98873428Y-23903857D01*
X98873428Y-23618142D01*
X98802000Y-23475285D01*
X97944857Y-24118142D02*
X97873428Y-23975285D01*
X97873428Y-23618142D01*
X97944857Y-23475285D01*
X98087714Y-23403857D01*
X98230571Y-23403857D01*
X98373428Y-23475285D01*
X98444857Y-23618142D01*
X98444857Y-23975285D01*
X98516285Y-24118142D01*
X97873428Y-25475285D02*
X99373428Y-25475285D01*
X97944857Y-25475285D02*
X97873428Y-25332428D01*
X97873428Y-25046714D01*
X97944857Y-24903857D01*
X98016285Y-24832428D01*
X98159142Y-24761000D01*
X98587714Y-24761000D01*
X98730571Y-24832428D01*
X98802000Y-24903857D01*
X98873428Y-25046714D01*
X98873428Y-25332428D01*
X98802000Y-25475285D01*
X98873428Y-26189571D02*
X97373428Y-26189571D01*
X98802000Y-26189571D02*
X98873428Y-26332428D01*
X98873428Y-26618142D01*
X98802000Y-26761000D01*
X98730571Y-26832428D01*
X98587714Y-26903857D01*
X98159142Y-26903857D01*
X98016285Y-26832428D01*
X97944857Y-26761000D01*
X97873428Y-26618142D01*
X97873428Y-26332428D01*
X97944857Y-26189571D01*
X97873428Y-27546714D02*
X99373428Y-27546714D01*
X97873428Y-28189571D02*
X98659142Y-28189571D01*
X98802000Y-28118142D01*
X98873428Y-27975285D01*
X98873428Y-27761000D01*
X98802000Y-27618142D01*
X98730571Y-27546714D01*
X97873428Y-29118142D02*
X97944857Y-28975285D01*
X98016285Y-28903857D01*
X98159142Y-28832428D01*
X98587714Y-28832428D01*
X98730571Y-28903857D01*
X98802000Y-28975285D01*
X98873428Y-29118142D01*
X98873428Y-29332428D01*
X98802000Y-29475285D01*
X98730571Y-29546714D01*
X98587714Y-29618142D01*
X98159142Y-29618142D01*
X98016285Y-29546714D01*
X97944857Y-29475285D01*
X97873428Y-29332428D01*
X97873428Y-29118142D01*
X98873428Y-30261000D02*
X97873428Y-30261000D01*
X98730571Y-30261000D02*
X98802000Y-30332428D01*
X98873428Y-30475285D01*
X98873428Y-30689571D01*
X98802000Y-30832428D01*
X98659142Y-30903857D01*
X97873428Y-30903857D01*
X97944857Y-32189571D02*
X97873428Y-32046714D01*
X97873428Y-31761000D01*
X97944857Y-31618142D01*
X98087714Y-31546714D01*
X98659142Y-31546714D01*
X98802000Y-31618142D01*
X98873428Y-31761000D01*
X98873428Y-32046714D01*
X98802000Y-32189571D01*
X98659142Y-32261000D01*
X98516285Y-32261000D01*
X98373428Y-31546714D01*
X97944857Y-32832428D02*
X97873428Y-32975285D01*
X97873428Y-33261000D01*
X97944857Y-33403857D01*
X98087714Y-33475285D01*
X98159142Y-33475285D01*
X98302000Y-33403857D01*
X98373428Y-33261000D01*
X98373428Y-33046714D01*
X98444857Y-32903857D01*
X98587714Y-32832428D01*
X98659142Y-32832428D01*
X98802000Y-32903857D01*
X98873428Y-33046714D01*
X98873428Y-33261000D01*
X98802000Y-33403857D01*
D12*
X31327876Y-50324052D02*
X31327876Y-51049766D01*
X30057876Y-50686909D02*
X31327876Y-50686909D01*
X30118352Y-51956909D02*
X30057876Y-51835957D01*
X30057876Y-51594052D01*
X30118352Y-51473100D01*
X30239304Y-51412623D01*
X30723114Y-51412623D01*
X30844066Y-51473100D01*
X30904542Y-51594052D01*
X30904542Y-51835957D01*
X30844066Y-51956909D01*
X30723114Y-52017385D01*
X30602161Y-52017385D01*
X30481209Y-51412623D01*
X30118352Y-52501195D02*
X30057876Y-52622147D01*
X30057876Y-52864052D01*
X30118352Y-52985004D01*
X30239304Y-53045480D01*
X30299780Y-53045480D01*
X30420733Y-52985004D01*
X30481209Y-52864052D01*
X30481209Y-52682623D01*
X30541685Y-52561671D01*
X30662638Y-52501195D01*
X30723114Y-52501195D01*
X30844066Y-52561671D01*
X30904542Y-52682623D01*
X30904542Y-52864052D01*
X30844066Y-52985004D01*
X30057876Y-53771195D02*
X30118352Y-53650242D01*
X30239304Y-53589766D01*
X31327876Y-53589766D01*
X30057876Y-54799290D02*
X30723114Y-54799290D01*
X30844066Y-54738814D01*
X30904542Y-54617861D01*
X30904542Y-54375957D01*
X30844066Y-54255004D01*
X30118352Y-54799290D02*
X30057876Y-54678338D01*
X30057876Y-54375957D01*
X30118352Y-54255004D01*
X30239304Y-54194528D01*
X30360257Y-54194528D01*
X30481209Y-54255004D01*
X30541685Y-54375957D01*
X30541685Y-54678338D01*
X30602161Y-54799290D01*
X30178828Y-57097385D02*
X30118352Y-57036909D01*
X30057876Y-56855480D01*
X30057876Y-56734528D01*
X30118352Y-56553100D01*
X30239304Y-56432147D01*
X30360257Y-56371671D01*
X30602161Y-56311195D01*
X30783590Y-56311195D01*
X31025495Y-56371671D01*
X31146447Y-56432147D01*
X31267400Y-56553100D01*
X31327876Y-56734528D01*
X31327876Y-56855480D01*
X31267400Y-57036909D01*
X31206923Y-57097385D01*
X30057876Y-57823100D02*
X30118352Y-57702147D01*
X30178828Y-57641671D01*
X30299780Y-57581195D01*
X30662638Y-57581195D01*
X30783590Y-57641671D01*
X30844066Y-57702147D01*
X30904542Y-57823100D01*
X30904542Y-58004528D01*
X30844066Y-58125480D01*
X30783590Y-58185957D01*
X30662638Y-58246433D01*
X30299780Y-58246433D01*
X30178828Y-58185957D01*
X30118352Y-58125480D01*
X30057876Y-58004528D01*
X30057876Y-57823100D01*
X30057876Y-58790719D02*
X30904542Y-58790719D01*
X31327876Y-58790719D02*
X31267400Y-58730242D01*
X31206923Y-58790719D01*
X31267400Y-58851195D01*
X31327876Y-58790719D01*
X31206923Y-58790719D01*
X30057876Y-59576909D02*
X30118352Y-59455957D01*
X30239304Y-59395480D01*
X31327876Y-59395480D01*
X28013176Y-50505480D02*
X29283176Y-50505480D01*
X28376033Y-50928814D01*
X29283176Y-51352147D01*
X28013176Y-51352147D01*
X28013176Y-51956909D02*
X29283176Y-51956909D01*
X28013176Y-52561671D02*
X29283176Y-52561671D01*
X29283176Y-52864052D01*
X29222700Y-53045480D01*
X29101747Y-53166433D01*
X28980795Y-53226909D01*
X28738890Y-53287385D01*
X28557461Y-53287385D01*
X28315557Y-53226909D01*
X28194604Y-53166433D01*
X28073652Y-53045480D01*
X28013176Y-52864052D01*
X28013176Y-52561671D01*
X28013176Y-53831671D02*
X29283176Y-53831671D01*
X28013176Y-55404052D02*
X29283176Y-55404052D01*
X28859842Y-56008814D02*
X28013176Y-56008814D01*
X28738890Y-56008814D02*
X28799366Y-56069290D01*
X28859842Y-56190242D01*
X28859842Y-56371671D01*
X28799366Y-56492623D01*
X28678414Y-56553100D01*
X28013176Y-56553100D01*
X28859842Y-56976433D02*
X28859842Y-57460242D01*
X29283176Y-57157861D02*
X28194604Y-57157861D01*
X28073652Y-57218338D01*
X28013176Y-57339290D01*
X28013176Y-57460242D01*
X28073652Y-58367385D02*
X28013176Y-58246433D01*
X28013176Y-58004528D01*
X28073652Y-57883576D01*
X28194604Y-57823100D01*
X28678414Y-57823100D01*
X28799366Y-57883576D01*
X28859842Y-58004528D01*
X28859842Y-58246433D01*
X28799366Y-58367385D01*
X28678414Y-58427861D01*
X28557461Y-58427861D01*
X28436509Y-57823100D01*
X28013176Y-58972147D02*
X28859842Y-58972147D01*
X28617938Y-58972147D02*
X28738890Y-59032623D01*
X28799366Y-59093100D01*
X28859842Y-59214052D01*
X28859842Y-59335004D01*
X28013176Y-59758338D02*
X28859842Y-59758338D01*
X28617938Y-59758338D02*
X28738890Y-59818814D01*
X28799366Y-59879290D01*
X28859842Y-60000242D01*
X28859842Y-60121195D01*
X28859842Y-61088814D02*
X28013176Y-61088814D01*
X28859842Y-60544528D02*
X28194604Y-60544528D01*
X28073652Y-60605004D01*
X28013176Y-60725957D01*
X28013176Y-60907385D01*
X28073652Y-61028338D01*
X28134128Y-61088814D01*
X28859842Y-61693576D02*
X27589842Y-61693576D01*
X28799366Y-61693576D02*
X28859842Y-61814528D01*
X28859842Y-62056433D01*
X28799366Y-62177385D01*
X28738890Y-62237861D01*
X28617938Y-62298338D01*
X28255080Y-62298338D01*
X28134128Y-62237861D01*
X28073652Y-62177385D01*
X28013176Y-62056433D01*
X28013176Y-61814528D01*
X28073652Y-61693576D01*
X28859842Y-62661195D02*
X28859842Y-63145004D01*
X29283176Y-62842623D02*
X28194604Y-62842623D01*
X28073652Y-62903100D01*
X28013176Y-63024052D01*
X28013176Y-63145004D01*
X28073652Y-64052147D02*
X28013176Y-63931195D01*
X28013176Y-63689290D01*
X28073652Y-63568338D01*
X28194604Y-63507861D01*
X28678414Y-63507861D01*
X28799366Y-63568338D01*
X28859842Y-63689290D01*
X28859842Y-63931195D01*
X28799366Y-64052147D01*
X28678414Y-64112623D01*
X28557461Y-64112623D01*
X28436509Y-63507861D01*
X28013176Y-64656909D02*
X28859842Y-64656909D01*
X28617938Y-64656909D02*
X28738890Y-64717385D01*
X28799366Y-64777861D01*
X28859842Y-64898814D01*
X28859842Y-65019766D01*
X27238476Y-50505480D02*
X26210380Y-50505480D01*
X26089428Y-50565957D01*
X26028952Y-50626433D01*
X25968476Y-50747385D01*
X25968476Y-50989290D01*
X26028952Y-51110242D01*
X26089428Y-51170719D01*
X26210380Y-51231195D01*
X27238476Y-51231195D01*
X26089428Y-52561671D02*
X26028952Y-52501195D01*
X25968476Y-52319766D01*
X25968476Y-52198814D01*
X26028952Y-52017385D01*
X26149904Y-51896433D01*
X26270857Y-51835957D01*
X26512761Y-51775480D01*
X26694190Y-51775480D01*
X26936095Y-51835957D01*
X27057047Y-51896433D01*
X27178000Y-52017385D01*
X27238476Y-52198814D01*
X27238476Y-52319766D01*
X27178000Y-52501195D01*
X27117523Y-52561671D01*
X26028952Y-53045480D02*
X25968476Y-53226909D01*
X25968476Y-53529290D01*
X26028952Y-53650242D01*
X26089428Y-53710719D01*
X26210380Y-53771195D01*
X26331333Y-53771195D01*
X26452285Y-53710719D01*
X26512761Y-53650242D01*
X26573238Y-53529290D01*
X26633714Y-53287385D01*
X26694190Y-53166433D01*
X26754666Y-53105957D01*
X26875619Y-53045480D01*
X26996571Y-53045480D01*
X27117523Y-53105957D01*
X27178000Y-53166433D01*
X27238476Y-53287385D01*
X27238476Y-53589766D01*
X27178000Y-53771195D01*
X26633714Y-54738814D02*
X26573238Y-54920242D01*
X26512761Y-54980719D01*
X26391809Y-55041195D01*
X26210380Y-55041195D01*
X26089428Y-54980719D01*
X26028952Y-54920242D01*
X25968476Y-54799290D01*
X25968476Y-54315480D01*
X27238476Y-54315480D01*
X27238476Y-54738814D01*
X27178000Y-54859766D01*
X27117523Y-54920242D01*
X26996571Y-54980719D01*
X26875619Y-54980719D01*
X26754666Y-54920242D01*
X26694190Y-54859766D01*
X26633714Y-54738814D01*
X26633714Y-54315480D01*
X25968476Y-56553100D02*
X27238476Y-56553100D01*
X26633714Y-57157861D02*
X26633714Y-57581195D01*
X25968476Y-57762623D02*
X25968476Y-57157861D01*
X27238476Y-57157861D01*
X27238476Y-57762623D01*
X26633714Y-58306909D02*
X26633714Y-58730242D01*
X25968476Y-58911671D02*
X25968476Y-58306909D01*
X27238476Y-58306909D01*
X27238476Y-58911671D01*
X26633714Y-59455957D02*
X26633714Y-59879290D01*
X25968476Y-60060719D02*
X25968476Y-59455957D01*
X27238476Y-59455957D01*
X27238476Y-60060719D01*
X23923776Y-50505480D02*
X25193776Y-50505480D01*
X25193776Y-50807861D01*
X25133300Y-50989290D01*
X25012347Y-51110242D01*
X24891395Y-51170719D01*
X24649490Y-51231195D01*
X24468061Y-51231195D01*
X24226157Y-51170719D01*
X24105204Y-51110242D01*
X23984252Y-50989290D01*
X23923776Y-50807861D01*
X23923776Y-50505480D01*
X23923776Y-52319766D02*
X24589014Y-52319766D01*
X24709966Y-52259290D01*
X24770442Y-52138338D01*
X24770442Y-51896433D01*
X24709966Y-51775480D01*
X23984252Y-52319766D02*
X23923776Y-52198814D01*
X23923776Y-51896433D01*
X23984252Y-51775480D01*
X24105204Y-51715004D01*
X24226157Y-51715004D01*
X24347109Y-51775480D01*
X24407585Y-51896433D01*
X24407585Y-52198814D01*
X24468061Y-52319766D01*
X24770442Y-52924528D02*
X23923776Y-52924528D01*
X24649490Y-52924528D02*
X24709966Y-52985004D01*
X24770442Y-53105957D01*
X24770442Y-53287385D01*
X24709966Y-53408338D01*
X24589014Y-53468814D01*
X23923776Y-53468814D01*
X23923776Y-54073576D02*
X24770442Y-54073576D01*
X25193776Y-54073576D02*
X25133300Y-54013100D01*
X25072823Y-54073576D01*
X25133300Y-54134052D01*
X25193776Y-54073576D01*
X25072823Y-54073576D01*
X23984252Y-55162147D02*
X23923776Y-55041195D01*
X23923776Y-54799290D01*
X23984252Y-54678338D01*
X24105204Y-54617861D01*
X24589014Y-54617861D01*
X24709966Y-54678338D01*
X24770442Y-54799290D01*
X24770442Y-55041195D01*
X24709966Y-55162147D01*
X24589014Y-55222623D01*
X24468061Y-55222623D01*
X24347109Y-54617861D01*
X23923776Y-55948338D02*
X23984252Y-55827385D01*
X24105204Y-55766909D01*
X25193776Y-55766909D01*
X25193776Y-57218338D02*
X23923776Y-57641671D01*
X25193776Y-58065004D01*
X23149076Y-50868338D02*
X22241933Y-50868338D01*
X22060504Y-50807861D01*
X21939552Y-50686909D01*
X21879076Y-50505480D01*
X21879076Y-50384528D01*
X22725742Y-52017385D02*
X21879076Y-52017385D01*
X22725742Y-51473100D02*
X22060504Y-51473100D01*
X21939552Y-51533576D01*
X21879076Y-51654528D01*
X21879076Y-51835957D01*
X21939552Y-51956909D01*
X22000028Y-52017385D01*
X21879076Y-52803576D02*
X21939552Y-52682623D01*
X22060504Y-52622147D01*
X23149076Y-52622147D01*
X22725742Y-53166433D02*
X21879076Y-53468814D01*
X22725742Y-53771195D02*
X21879076Y-53468814D01*
X21576695Y-53347861D01*
X21516219Y-53287385D01*
X21455742Y-53166433D01*
X23028123Y-55162147D02*
X23088600Y-55222623D01*
X23149076Y-55343576D01*
X23149076Y-55645957D01*
X23088600Y-55766909D01*
X23028123Y-55827385D01*
X22907171Y-55887861D01*
X22786219Y-55887861D01*
X22604790Y-55827385D01*
X21879076Y-55101671D01*
X21879076Y-55887861D01*
X23149076Y-56674052D02*
X23149076Y-56795004D01*
X23088600Y-56915957D01*
X23028123Y-56976433D01*
X22907171Y-57036909D01*
X22665266Y-57097385D01*
X22362885Y-57097385D01*
X22120980Y-57036909D01*
X22000028Y-56976433D01*
X21939552Y-56915957D01*
X21879076Y-56795004D01*
X21879076Y-56674052D01*
X21939552Y-56553100D01*
X22000028Y-56492623D01*
X22120980Y-56432147D01*
X22362885Y-56371671D01*
X22665266Y-56371671D01*
X22907171Y-56432147D01*
X23028123Y-56492623D01*
X23088600Y-56553100D01*
X23149076Y-56674052D01*
X23028123Y-57581195D02*
X23088600Y-57641671D01*
X23149076Y-57762623D01*
X23149076Y-58065004D01*
X23088600Y-58185957D01*
X23028123Y-58246433D01*
X22907171Y-58306909D01*
X22786219Y-58306909D01*
X22604790Y-58246433D01*
X21879076Y-57520719D01*
X21879076Y-58306909D01*
X23028123Y-58790719D02*
X23088600Y-58851195D01*
X23149076Y-58972147D01*
X23149076Y-59274528D01*
X23088600Y-59395480D01*
X23028123Y-59455957D01*
X22907171Y-59516433D01*
X22786219Y-59516433D01*
X22604790Y-59455957D01*
X21879076Y-58730242D01*
X21879076Y-59516433D01*
D11*
X52911714Y-53613857D02*
X53411714Y-53613857D01*
X53626000Y-54399571D02*
X52911714Y-54399571D01*
X52911714Y-52899571D01*
X53626000Y-52899571D01*
X54268857Y-54399571D02*
X54268857Y-53399571D01*
X54268857Y-53685285D02*
X54340285Y-53542428D01*
X54411714Y-53471000D01*
X54554571Y-53399571D01*
X54697428Y-53399571D01*
X55840285Y-54399571D02*
X55840285Y-53613857D01*
X55768857Y-53471000D01*
X55626000Y-53399571D01*
X55340285Y-53399571D01*
X55197428Y-53471000D01*
X55840285Y-54328142D02*
X55697428Y-54399571D01*
X55340285Y-54399571D01*
X55197428Y-54328142D01*
X55126000Y-54185285D01*
X55126000Y-54042428D01*
X55197428Y-53899571D01*
X55340285Y-53828142D01*
X55697428Y-53828142D01*
X55840285Y-53756714D01*
X56483142Y-54328142D02*
X56626000Y-54399571D01*
X56911714Y-54399571D01*
X57054571Y-54328142D01*
X57126000Y-54185285D01*
X57126000Y-54113857D01*
X57054571Y-53971000D01*
X56911714Y-53899571D01*
X56697428Y-53899571D01*
X56554571Y-53828142D01*
X56483142Y-53685285D01*
X56483142Y-53613857D01*
X56554571Y-53471000D01*
X56697428Y-53399571D01*
X56911714Y-53399571D01*
X57054571Y-53471000D01*
X58340285Y-54328142D02*
X58197428Y-54399571D01*
X57911714Y-54399571D01*
X57768857Y-54328142D01*
X57697428Y-54185285D01*
X57697428Y-53613857D01*
X57768857Y-53471000D01*
X57911714Y-53399571D01*
X58197428Y-53399571D01*
X58340285Y-53471000D01*
X58411714Y-53613857D01*
X58411714Y-53756714D01*
X57697428Y-53899571D01*
X23542857Y-71036571D02*
X23042857Y-70322285D01*
X22685714Y-71036571D02*
X22685714Y-69536571D01*
X23257142Y-69536571D01*
X23400000Y-69608000D01*
X23471428Y-69679428D01*
X23542857Y-69822285D01*
X23542857Y-70036571D01*
X23471428Y-70179428D01*
X23400000Y-70250857D01*
X23257142Y-70322285D01*
X22685714Y-70322285D01*
X24757142Y-70965142D02*
X24614285Y-71036571D01*
X24328571Y-71036571D01*
X24185714Y-70965142D01*
X24114285Y-70822285D01*
X24114285Y-70250857D01*
X24185714Y-70108000D01*
X24328571Y-70036571D01*
X24614285Y-70036571D01*
X24757142Y-70108000D01*
X24828571Y-70250857D01*
X24828571Y-70393714D01*
X24114285Y-70536571D01*
X25400000Y-70965142D02*
X25542857Y-71036571D01*
X25828571Y-71036571D01*
X25971428Y-70965142D01*
X26042857Y-70822285D01*
X26042857Y-70750857D01*
X25971428Y-70608000D01*
X25828571Y-70536571D01*
X25614285Y-70536571D01*
X25471428Y-70465142D01*
X25400000Y-70322285D01*
X25400000Y-70250857D01*
X25471428Y-70108000D01*
X25614285Y-70036571D01*
X25828571Y-70036571D01*
X25971428Y-70108000D01*
X27257142Y-70965142D02*
X27114285Y-71036571D01*
X26828571Y-71036571D01*
X26685714Y-70965142D01*
X26614285Y-70822285D01*
X26614285Y-70250857D01*
X26685714Y-70108000D01*
X26828571Y-70036571D01*
X27114285Y-70036571D01*
X27257142Y-70108000D01*
X27328571Y-70250857D01*
X27328571Y-70393714D01*
X26614285Y-70536571D01*
X27757142Y-70036571D02*
X28328571Y-70036571D01*
X27971428Y-69536571D02*
X27971428Y-70822285D01*
X28042857Y-70965142D01*
X28185714Y-71036571D01*
X28328571Y-71036571D01*
X132822142Y-20991142D02*
X132750714Y-21205428D01*
X132679285Y-21276857D01*
X132536428Y-21348285D01*
X132322142Y-21348285D01*
X132179285Y-21276857D01*
X132107857Y-21205428D01*
X132036428Y-21062571D01*
X132036428Y-20491142D01*
X133536428Y-20491142D01*
X133536428Y-20991142D01*
X133465000Y-21134000D01*
X133393571Y-21205428D01*
X133250714Y-21276857D01*
X133107857Y-21276857D01*
X132965000Y-21205428D01*
X132893571Y-21134000D01*
X132822142Y-20991142D01*
X132822142Y-20491142D01*
X132036428Y-21991142D02*
X133536428Y-21991142D01*
X132036428Y-22848285D01*
X133536428Y-22848285D01*
X132179285Y-24419714D02*
X132107857Y-24348285D01*
X132036428Y-24134000D01*
X132036428Y-23991142D01*
X132107857Y-23776857D01*
X132250714Y-23634000D01*
X132393571Y-23562571D01*
X132679285Y-23491142D01*
X132893571Y-23491142D01*
X133179285Y-23562571D01*
X133322142Y-23634000D01*
X133465000Y-23776857D01*
X133536428Y-23991142D01*
X133536428Y-24134000D01*
X133465000Y-24348285D01*
X133393571Y-24419714D01*
X94516000Y-39056571D02*
X94516000Y-40128000D01*
X94444571Y-40342285D01*
X94301714Y-40485142D01*
X94087428Y-40556571D01*
X93944571Y-40556571D01*
X95016000Y-39056571D02*
X95873142Y-39056571D01*
X95444571Y-40556571D02*
X95444571Y-39056571D01*
X96301714Y-40128000D02*
X97016000Y-40128000D01*
X96158857Y-40556571D02*
X96658857Y-39056571D01*
X97158857Y-40556571D01*
X98444571Y-39128000D02*
X98301714Y-39056571D01*
X98087428Y-39056571D01*
X97873142Y-39128000D01*
X97730285Y-39270857D01*
X97658857Y-39413714D01*
X97587428Y-39699428D01*
X97587428Y-39913714D01*
X97658857Y-40199428D01*
X97730285Y-40342285D01*
X97873142Y-40485142D01*
X98087428Y-40556571D01*
X98230285Y-40556571D01*
X98444571Y-40485142D01*
X98516000Y-40413714D01*
X98516000Y-39913714D01*
X98230285Y-39913714D01*
X113899142Y-20991142D02*
X113899142Y-20491142D01*
X113113428Y-20491142D02*
X114613428Y-20491142D01*
X114613428Y-21205428D01*
X113113428Y-21776857D02*
X114113428Y-21776857D01*
X114613428Y-21776857D02*
X114542000Y-21705428D01*
X114470571Y-21776857D01*
X114542000Y-21848285D01*
X114613428Y-21776857D01*
X114470571Y-21776857D01*
X113113428Y-22491142D02*
X114613428Y-22491142D01*
X114042000Y-22491142D02*
X114113428Y-22634000D01*
X114113428Y-22919714D01*
X114042000Y-23062571D01*
X113970571Y-23134000D01*
X113827714Y-23205428D01*
X113399142Y-23205428D01*
X113256285Y-23134000D01*
X113184857Y-23062571D01*
X113113428Y-22919714D01*
X113113428Y-22634000D01*
X113184857Y-22491142D01*
X113184857Y-24419714D02*
X113113428Y-24276857D01*
X113113428Y-23991142D01*
X113184857Y-23848285D01*
X113327714Y-23776857D01*
X113899142Y-23776857D01*
X114042000Y-23848285D01*
X114113428Y-23991142D01*
X114113428Y-24276857D01*
X114042000Y-24419714D01*
X113899142Y-24491142D01*
X113756285Y-24491142D01*
X113613428Y-23776857D01*
X113113428Y-25134000D02*
X114113428Y-25134000D01*
X113827714Y-25134000D02*
X113970571Y-25205428D01*
X114042000Y-25276857D01*
X114113428Y-25419714D01*
X114113428Y-25562571D01*
D10*
%TO.C,U9*%
X127000095Y-51776380D02*
X127000095Y-52585904D01*
X127047714Y-52681142D01*
X127095333Y-52728761D01*
X127190571Y-52776380D01*
X127381047Y-52776380D01*
X127476285Y-52728761D01*
X127523904Y-52681142D01*
X127571523Y-52585904D01*
X127571523Y-51776380D01*
X128095333Y-52776380D02*
X128285809Y-52776380D01*
X128381047Y-52728761D01*
X128428666Y-52681142D01*
X128523904Y-52538285D01*
X128571523Y-52347809D01*
X128571523Y-51966857D01*
X128523904Y-51871619D01*
X128476285Y-51824000D01*
X128381047Y-51776380D01*
X128190571Y-51776380D01*
X128095333Y-51824000D01*
X128047714Y-51871619D01*
X128000095Y-51966857D01*
X128000095Y-52204952D01*
X128047714Y-52300190D01*
X128095333Y-52347809D01*
X128190571Y-52395428D01*
X128381047Y-52395428D01*
X128476285Y-52347809D01*
X128523904Y-52300190D01*
X128571523Y-52204952D01*
%TO.C,C2*%
X32726333Y-38330142D02*
X32678714Y-38377761D01*
X32535857Y-38425380D01*
X32440619Y-38425380D01*
X32297761Y-38377761D01*
X32202523Y-38282523D01*
X32154904Y-38187285D01*
X32107285Y-37996809D01*
X32107285Y-37853952D01*
X32154904Y-37663476D01*
X32202523Y-37568238D01*
X32297761Y-37473000D01*
X32440619Y-37425380D01*
X32535857Y-37425380D01*
X32678714Y-37473000D01*
X32726333Y-37520619D01*
X33107285Y-37520619D02*
X33154904Y-37473000D01*
X33250142Y-37425380D01*
X33488238Y-37425380D01*
X33583476Y-37473000D01*
X33631095Y-37520619D01*
X33678714Y-37615857D01*
X33678714Y-37711095D01*
X33631095Y-37853952D01*
X33059666Y-38425380D01*
X33678714Y-38425380D01*
%TO.C,C25*%
X100734857Y-45331142D02*
X100687238Y-45283523D01*
X100639619Y-45140666D01*
X100639619Y-45045428D01*
X100687238Y-44902571D01*
X100782476Y-44807333D01*
X100877714Y-44759714D01*
X101068190Y-44712095D01*
X101211047Y-44712095D01*
X101401523Y-44759714D01*
X101496761Y-44807333D01*
X101592000Y-44902571D01*
X101639619Y-45045428D01*
X101639619Y-45140666D01*
X101592000Y-45283523D01*
X101544380Y-45331142D01*
X101544380Y-45712095D02*
X101592000Y-45759714D01*
X101639619Y-45854952D01*
X101639619Y-46093047D01*
X101592000Y-46188285D01*
X101544380Y-46235904D01*
X101449142Y-46283523D01*
X101353904Y-46283523D01*
X101211047Y-46235904D01*
X100639619Y-45664476D01*
X100639619Y-46283523D01*
X101639619Y-47188285D02*
X101639619Y-46712095D01*
X101163428Y-46664476D01*
X101211047Y-46712095D01*
X101258666Y-46807333D01*
X101258666Y-47045428D01*
X101211047Y-47140666D01*
X101163428Y-47188285D01*
X101068190Y-47235904D01*
X100830095Y-47235904D01*
X100734857Y-47188285D01*
X100687238Y-47140666D01*
X100639619Y-47045428D01*
X100639619Y-46807333D01*
X100687238Y-46712095D01*
X100734857Y-46664476D01*
%TO.C,FB3*%
X84653428Y-35361666D02*
X84653428Y-35028333D01*
X84129619Y-35028333D02*
X85129619Y-35028333D01*
X85129619Y-35504523D01*
X84653428Y-36218809D02*
X84605809Y-36361666D01*
X84558190Y-36409285D01*
X84462952Y-36456904D01*
X84320095Y-36456904D01*
X84224857Y-36409285D01*
X84177238Y-36361666D01*
X84129619Y-36266428D01*
X84129619Y-35885476D01*
X85129619Y-35885476D01*
X85129619Y-36218809D01*
X85082000Y-36314047D01*
X85034380Y-36361666D01*
X84939142Y-36409285D01*
X84843904Y-36409285D01*
X84748666Y-36361666D01*
X84701047Y-36314047D01*
X84653428Y-36218809D01*
X84653428Y-35885476D01*
X85129619Y-36790238D02*
X85129619Y-37409285D01*
X84748666Y-37075952D01*
X84748666Y-37218809D01*
X84701047Y-37314047D01*
X84653428Y-37361666D01*
X84558190Y-37409285D01*
X84320095Y-37409285D01*
X84224857Y-37361666D01*
X84177238Y-37314047D01*
X84129619Y-37218809D01*
X84129619Y-36933095D01*
X84177238Y-36837857D01*
X84224857Y-36790238D01*
%TO.C,R21*%
X49649142Y-51887380D02*
X49315809Y-51411190D01*
X49077714Y-51887380D02*
X49077714Y-50887380D01*
X49458666Y-50887380D01*
X49553904Y-50935000D01*
X49601523Y-50982619D01*
X49649142Y-51077857D01*
X49649142Y-51220714D01*
X49601523Y-51315952D01*
X49553904Y-51363571D01*
X49458666Y-51411190D01*
X49077714Y-51411190D01*
X50030095Y-50982619D02*
X50077714Y-50935000D01*
X50172952Y-50887380D01*
X50411047Y-50887380D01*
X50506285Y-50935000D01*
X50553904Y-50982619D01*
X50601523Y-51077857D01*
X50601523Y-51173095D01*
X50553904Y-51315952D01*
X49982476Y-51887380D01*
X50601523Y-51887380D01*
X51553904Y-51887380D02*
X50982476Y-51887380D01*
X51268190Y-51887380D02*
X51268190Y-50887380D01*
X51172952Y-51030238D01*
X51077714Y-51125476D01*
X50982476Y-51173095D01*
%TO.C,C5*%
X39584333Y-38711142D02*
X39536714Y-38758761D01*
X39393857Y-38806380D01*
X39298619Y-38806380D01*
X39155761Y-38758761D01*
X39060523Y-38663523D01*
X39012904Y-38568285D01*
X38965285Y-38377809D01*
X38965285Y-38234952D01*
X39012904Y-38044476D01*
X39060523Y-37949238D01*
X39155761Y-37854000D01*
X39298619Y-37806380D01*
X39393857Y-37806380D01*
X39536714Y-37854000D01*
X39584333Y-37901619D01*
X40489095Y-37806380D02*
X40012904Y-37806380D01*
X39965285Y-38282571D01*
X40012904Y-38234952D01*
X40108142Y-38187333D01*
X40346238Y-38187333D01*
X40441476Y-38234952D01*
X40489095Y-38282571D01*
X40536714Y-38377809D01*
X40536714Y-38615904D01*
X40489095Y-38711142D01*
X40441476Y-38758761D01*
X40346238Y-38806380D01*
X40108142Y-38806380D01*
X40012904Y-38758761D01*
X39965285Y-38711142D01*
%TO.C,C6*%
X83018333Y-60301142D02*
X82970714Y-60348761D01*
X82827857Y-60396380D01*
X82732619Y-60396380D01*
X82589761Y-60348761D01*
X82494523Y-60253523D01*
X82446904Y-60158285D01*
X82399285Y-59967809D01*
X82399285Y-59824952D01*
X82446904Y-59634476D01*
X82494523Y-59539238D01*
X82589761Y-59444000D01*
X82732619Y-59396380D01*
X82827857Y-59396380D01*
X82970714Y-59444000D01*
X83018333Y-59491619D01*
X83875476Y-59396380D02*
X83685000Y-59396380D01*
X83589761Y-59444000D01*
X83542142Y-59491619D01*
X83446904Y-59634476D01*
X83399285Y-59824952D01*
X83399285Y-60205904D01*
X83446904Y-60301142D01*
X83494523Y-60348761D01*
X83589761Y-60396380D01*
X83780238Y-60396380D01*
X83875476Y-60348761D01*
X83923095Y-60301142D01*
X83970714Y-60205904D01*
X83970714Y-59967809D01*
X83923095Y-59872571D01*
X83875476Y-59824952D01*
X83780238Y-59777333D01*
X83589761Y-59777333D01*
X83494523Y-59824952D01*
X83446904Y-59872571D01*
X83399285Y-59967809D01*
%TO.C,FB5*%
X58221666Y-38536571D02*
X57888333Y-38536571D01*
X57888333Y-39060380D02*
X57888333Y-38060380D01*
X58364523Y-38060380D01*
X59078809Y-38536571D02*
X59221666Y-38584190D01*
X59269285Y-38631809D01*
X59316904Y-38727047D01*
X59316904Y-38869904D01*
X59269285Y-38965142D01*
X59221666Y-39012761D01*
X59126428Y-39060380D01*
X58745476Y-39060380D01*
X58745476Y-38060380D01*
X59078809Y-38060380D01*
X59174047Y-38108000D01*
X59221666Y-38155619D01*
X59269285Y-38250857D01*
X59269285Y-38346095D01*
X59221666Y-38441333D01*
X59174047Y-38488952D01*
X59078809Y-38536571D01*
X58745476Y-38536571D01*
X60221666Y-38060380D02*
X59745476Y-38060380D01*
X59697857Y-38536571D01*
X59745476Y-38488952D01*
X59840714Y-38441333D01*
X60078809Y-38441333D01*
X60174047Y-38488952D01*
X60221666Y-38536571D01*
X60269285Y-38631809D01*
X60269285Y-38869904D01*
X60221666Y-38965142D01*
X60174047Y-39012761D01*
X60078809Y-39060380D01*
X59840714Y-39060380D01*
X59745476Y-39012761D01*
X59697857Y-38965142D01*
%TO.C,D1*%
X26598619Y-32408904D02*
X27598619Y-32408904D01*
X27598619Y-32647000D01*
X27551000Y-32789857D01*
X27455761Y-32885095D01*
X27360523Y-32932714D01*
X27170047Y-32980333D01*
X27027190Y-32980333D01*
X26836714Y-32932714D01*
X26741476Y-32885095D01*
X26646238Y-32789857D01*
X26598619Y-32647000D01*
X26598619Y-32408904D01*
X26598619Y-33932714D02*
X26598619Y-33361285D01*
X26598619Y-33647000D02*
X27598619Y-33647000D01*
X27455761Y-33551761D01*
X27360523Y-33456523D01*
X27312904Y-33361285D01*
%TO.C,J7*%
X48942666Y-34758380D02*
X48942666Y-35472666D01*
X48895047Y-35615523D01*
X48799809Y-35710761D01*
X48656952Y-35758380D01*
X48561714Y-35758380D01*
X49323619Y-34758380D02*
X49990285Y-34758380D01*
X49561714Y-35758380D01*
%TO.C,R16*%
X23677619Y-32885142D02*
X24153809Y-32551809D01*
X23677619Y-32313714D02*
X24677619Y-32313714D01*
X24677619Y-32694666D01*
X24630000Y-32789904D01*
X24582380Y-32837523D01*
X24487142Y-32885142D01*
X24344285Y-32885142D01*
X24249047Y-32837523D01*
X24201428Y-32789904D01*
X24153809Y-32694666D01*
X24153809Y-32313714D01*
X23677619Y-33837523D02*
X23677619Y-33266095D01*
X23677619Y-33551809D02*
X24677619Y-33551809D01*
X24534761Y-33456571D01*
X24439523Y-33361333D01*
X24391904Y-33266095D01*
X24677619Y-34694666D02*
X24677619Y-34504190D01*
X24630000Y-34408952D01*
X24582380Y-34361333D01*
X24439523Y-34266095D01*
X24249047Y-34218476D01*
X23868095Y-34218476D01*
X23772857Y-34266095D01*
X23725238Y-34313714D01*
X23677619Y-34408952D01*
X23677619Y-34599428D01*
X23725238Y-34694666D01*
X23772857Y-34742285D01*
X23868095Y-34789904D01*
X24106190Y-34789904D01*
X24201428Y-34742285D01*
X24249047Y-34694666D01*
X24296666Y-34599428D01*
X24296666Y-34408952D01*
X24249047Y-34313714D01*
X24201428Y-34266095D01*
X24106190Y-34218476D01*
%TO.C,R15*%
X117276619Y-63365142D02*
X117752809Y-63031809D01*
X117276619Y-62793714D02*
X118276619Y-62793714D01*
X118276619Y-63174666D01*
X118229000Y-63269904D01*
X118181380Y-63317523D01*
X118086142Y-63365142D01*
X117943285Y-63365142D01*
X117848047Y-63317523D01*
X117800428Y-63269904D01*
X117752809Y-63174666D01*
X117752809Y-62793714D01*
X117276619Y-64317523D02*
X117276619Y-63746095D01*
X117276619Y-64031809D02*
X118276619Y-64031809D01*
X118133761Y-63936571D01*
X118038523Y-63841333D01*
X117990904Y-63746095D01*
X118276619Y-65222285D02*
X118276619Y-64746095D01*
X117800428Y-64698476D01*
X117848047Y-64746095D01*
X117895666Y-64841333D01*
X117895666Y-65079428D01*
X117848047Y-65174666D01*
X117800428Y-65222285D01*
X117705190Y-65269904D01*
X117467095Y-65269904D01*
X117371857Y-65222285D01*
X117324238Y-65174666D01*
X117276619Y-65079428D01*
X117276619Y-64841333D01*
X117324238Y-64746095D01*
X117371857Y-64698476D01*
%TO.C,D2*%
X38450475Y-72438380D02*
X38450475Y-71438380D01*
X38688571Y-71438380D01*
X38831428Y-71486000D01*
X38926666Y-71581238D01*
X38974285Y-71676476D01*
X39021904Y-71866952D01*
X39021904Y-72009809D01*
X38974285Y-72200285D01*
X38926666Y-72295523D01*
X38831428Y-72390761D01*
X38688571Y-72438380D01*
X38450475Y-72438380D01*
X39402856Y-71533619D02*
X39450475Y-71486000D01*
X39545713Y-71438380D01*
X39783809Y-71438380D01*
X39879047Y-71486000D01*
X39926666Y-71533619D01*
X39974285Y-71628857D01*
X39974285Y-71724095D01*
X39926666Y-71866952D01*
X39355237Y-72438380D01*
X39974285Y-72438380D01*
%TO.C,U5*%
X71120095Y-50609380D02*
X71120095Y-51418904D01*
X71167714Y-51514142D01*
X71215333Y-51561761D01*
X71310571Y-51609380D01*
X71501047Y-51609380D01*
X71596285Y-51561761D01*
X71643904Y-51514142D01*
X71691523Y-51418904D01*
X71691523Y-50609380D01*
X72643904Y-50609380D02*
X72167714Y-50609380D01*
X72120095Y-51085571D01*
X72167714Y-51037952D01*
X72262952Y-50990333D01*
X72501047Y-50990333D01*
X72596285Y-51037952D01*
X72643904Y-51085571D01*
X72691523Y-51180809D01*
X72691523Y-51418904D01*
X72643904Y-51514142D01*
X72596285Y-51561761D01*
X72501047Y-51609380D01*
X72262952Y-51609380D01*
X72167714Y-51561761D01*
X72120095Y-51514142D01*
%TO.C,R9*%
X103973333Y-42870380D02*
X103640000Y-42394190D01*
X103401904Y-42870380D02*
X103401904Y-41870380D01*
X103782857Y-41870380D01*
X103878095Y-41918000D01*
X103925714Y-41965619D01*
X103973333Y-42060857D01*
X103973333Y-42203714D01*
X103925714Y-42298952D01*
X103878095Y-42346571D01*
X103782857Y-42394190D01*
X103401904Y-42394190D01*
X104449523Y-42870380D02*
X104640000Y-42870380D01*
X104735238Y-42822761D01*
X104782857Y-42775142D01*
X104878095Y-42632285D01*
X104925714Y-42441809D01*
X104925714Y-42060857D01*
X104878095Y-41965619D01*
X104830476Y-41918000D01*
X104735238Y-41870380D01*
X104544761Y-41870380D01*
X104449523Y-41918000D01*
X104401904Y-41965619D01*
X104354285Y-42060857D01*
X104354285Y-42298952D01*
X104401904Y-42394190D01*
X104449523Y-42441809D01*
X104544761Y-42489428D01*
X104735238Y-42489428D01*
X104830476Y-42441809D01*
X104878095Y-42394190D01*
X104925714Y-42298952D01*
%TO.C,FB1*%
X86034666Y-64571571D02*
X85701333Y-64571571D01*
X85701333Y-65095380D02*
X85701333Y-64095380D01*
X86177523Y-64095380D01*
X86891809Y-64571571D02*
X87034666Y-64619190D01*
X87082285Y-64666809D01*
X87129904Y-64762047D01*
X87129904Y-64904904D01*
X87082285Y-65000142D01*
X87034666Y-65047761D01*
X86939428Y-65095380D01*
X86558476Y-65095380D01*
X86558476Y-64095380D01*
X86891809Y-64095380D01*
X86987047Y-64143000D01*
X87034666Y-64190619D01*
X87082285Y-64285857D01*
X87082285Y-64381095D01*
X87034666Y-64476333D01*
X86987047Y-64523952D01*
X86891809Y-64571571D01*
X86558476Y-64571571D01*
X88082285Y-65095380D02*
X87510857Y-65095380D01*
X87796571Y-65095380D02*
X87796571Y-64095380D01*
X87701333Y-64238238D01*
X87606095Y-64333476D01*
X87510857Y-64381095D01*
%TO.C,SW3*%
X38671666Y-65936761D02*
X38814523Y-65984380D01*
X39052619Y-65984380D01*
X39147857Y-65936761D01*
X39195476Y-65889142D01*
X39243095Y-65793904D01*
X39243095Y-65698666D01*
X39195476Y-65603428D01*
X39147857Y-65555809D01*
X39052619Y-65508190D01*
X38862142Y-65460571D01*
X38766904Y-65412952D01*
X38719285Y-65365333D01*
X38671666Y-65270095D01*
X38671666Y-65174857D01*
X38719285Y-65079619D01*
X38766904Y-65032000D01*
X38862142Y-64984380D01*
X39100238Y-64984380D01*
X39243095Y-65032000D01*
X39576428Y-64984380D02*
X39814523Y-65984380D01*
X40005000Y-65270095D01*
X40195476Y-65984380D01*
X40433571Y-64984380D01*
X40719285Y-64984380D02*
X41338333Y-64984380D01*
X41005000Y-65365333D01*
X41147857Y-65365333D01*
X41243095Y-65412952D01*
X41290714Y-65460571D01*
X41338333Y-65555809D01*
X41338333Y-65793904D01*
X41290714Y-65889142D01*
X41243095Y-65936761D01*
X41147857Y-65984380D01*
X40862142Y-65984380D01*
X40766904Y-65936761D01*
X40719285Y-65889142D01*
%TO.C,C20*%
X68572142Y-49981142D02*
X68524523Y-50028761D01*
X68381666Y-50076380D01*
X68286428Y-50076380D01*
X68143571Y-50028761D01*
X68048333Y-49933523D01*
X68000714Y-49838285D01*
X67953095Y-49647809D01*
X67953095Y-49504952D01*
X68000714Y-49314476D01*
X68048333Y-49219238D01*
X68143571Y-49124000D01*
X68286428Y-49076380D01*
X68381666Y-49076380D01*
X68524523Y-49124000D01*
X68572142Y-49171619D01*
X68953095Y-49171619D02*
X69000714Y-49124000D01*
X69095952Y-49076380D01*
X69334047Y-49076380D01*
X69429285Y-49124000D01*
X69476904Y-49171619D01*
X69524523Y-49266857D01*
X69524523Y-49362095D01*
X69476904Y-49504952D01*
X68905476Y-50076380D01*
X69524523Y-50076380D01*
X70143571Y-49076380D02*
X70238809Y-49076380D01*
X70334047Y-49124000D01*
X70381666Y-49171619D01*
X70429285Y-49266857D01*
X70476904Y-49457333D01*
X70476904Y-49695428D01*
X70429285Y-49885904D01*
X70381666Y-49981142D01*
X70334047Y-50028761D01*
X70238809Y-50076380D01*
X70143571Y-50076380D01*
X70048333Y-50028761D01*
X70000714Y-49981142D01*
X69953095Y-49885904D01*
X69905476Y-49695428D01*
X69905476Y-49457333D01*
X69953095Y-49266857D01*
X70000714Y-49171619D01*
X70048333Y-49124000D01*
X70143571Y-49076380D01*
%TO.C,D8*%
X46886904Y-38679380D02*
X46886904Y-37679380D01*
X47125000Y-37679380D01*
X47267857Y-37727000D01*
X47363095Y-37822238D01*
X47410714Y-37917476D01*
X47458333Y-38107952D01*
X47458333Y-38250809D01*
X47410714Y-38441285D01*
X47363095Y-38536523D01*
X47267857Y-38631761D01*
X47125000Y-38679380D01*
X46886904Y-38679380D01*
X48029761Y-38107952D02*
X47934523Y-38060333D01*
X47886904Y-38012714D01*
X47839285Y-37917476D01*
X47839285Y-37869857D01*
X47886904Y-37774619D01*
X47934523Y-37727000D01*
X48029761Y-37679380D01*
X48220238Y-37679380D01*
X48315476Y-37727000D01*
X48363095Y-37774619D01*
X48410714Y-37869857D01*
X48410714Y-37917476D01*
X48363095Y-38012714D01*
X48315476Y-38060333D01*
X48220238Y-38107952D01*
X48029761Y-38107952D01*
X47934523Y-38155571D01*
X47886904Y-38203190D01*
X47839285Y-38298428D01*
X47839285Y-38488904D01*
X47886904Y-38584142D01*
X47934523Y-38631761D01*
X48029761Y-38679380D01*
X48220238Y-38679380D01*
X48315476Y-38631761D01*
X48363095Y-38584142D01*
X48410714Y-38488904D01*
X48410714Y-38298428D01*
X48363095Y-38203190D01*
X48315476Y-38155571D01*
X48220238Y-38107952D01*
%TO.C,C21*%
X68095857Y-62095142D02*
X68048238Y-62047523D01*
X68000619Y-61904666D01*
X68000619Y-61809428D01*
X68048238Y-61666571D01*
X68143476Y-61571333D01*
X68238714Y-61523714D01*
X68429190Y-61476095D01*
X68572047Y-61476095D01*
X68762523Y-61523714D01*
X68857761Y-61571333D01*
X68953000Y-61666571D01*
X69000619Y-61809428D01*
X69000619Y-61904666D01*
X68953000Y-62047523D01*
X68905380Y-62095142D01*
X68905380Y-62476095D02*
X68953000Y-62523714D01*
X69000619Y-62618952D01*
X69000619Y-62857047D01*
X68953000Y-62952285D01*
X68905380Y-62999904D01*
X68810142Y-63047523D01*
X68714904Y-63047523D01*
X68572047Y-62999904D01*
X68000619Y-62428476D01*
X68000619Y-63047523D01*
X68000619Y-63999904D02*
X68000619Y-63428476D01*
X68000619Y-63714190D02*
X69000619Y-63714190D01*
X68857761Y-63618952D01*
X68762523Y-63523714D01*
X68714904Y-63428476D01*
%TO.C,D6*%
X113924761Y-72438380D02*
X113924761Y-71438380D01*
X114162857Y-71438380D01*
X114305714Y-71486000D01*
X114400952Y-71581238D01*
X114448571Y-71676476D01*
X114496190Y-71866952D01*
X114496190Y-72009809D01*
X114448571Y-72200285D01*
X114400952Y-72295523D01*
X114305714Y-72390761D01*
X114162857Y-72438380D01*
X113924761Y-72438380D01*
X115353333Y-71438380D02*
X115162857Y-71438380D01*
X115067618Y-71486000D01*
X115019999Y-71533619D01*
X114924761Y-71676476D01*
X114877142Y-71866952D01*
X114877142Y-72247904D01*
X114924761Y-72343142D01*
X114972380Y-72390761D01*
X115067618Y-72438380D01*
X115258095Y-72438380D01*
X115353333Y-72390761D01*
X115400952Y-72343142D01*
X115448571Y-72247904D01*
X115448571Y-72009809D01*
X115400952Y-71914571D01*
X115353333Y-71866952D01*
X115258095Y-71819333D01*
X115067618Y-71819333D01*
X114972380Y-71866952D01*
X114924761Y-71914571D01*
X114877142Y-72009809D01*
%TO.C,R28*%
X25074619Y-32885142D02*
X25550809Y-32551809D01*
X25074619Y-32313714D02*
X26074619Y-32313714D01*
X26074619Y-32694666D01*
X26027000Y-32789904D01*
X25979380Y-32837523D01*
X25884142Y-32885142D01*
X25741285Y-32885142D01*
X25646047Y-32837523D01*
X25598428Y-32789904D01*
X25550809Y-32694666D01*
X25550809Y-32313714D01*
X25979380Y-33266095D02*
X26027000Y-33313714D01*
X26074619Y-33408952D01*
X26074619Y-33647047D01*
X26027000Y-33742285D01*
X25979380Y-33789904D01*
X25884142Y-33837523D01*
X25788904Y-33837523D01*
X25646047Y-33789904D01*
X25074619Y-33218476D01*
X25074619Y-33837523D01*
X25646047Y-34408952D02*
X25693666Y-34313714D01*
X25741285Y-34266095D01*
X25836523Y-34218476D01*
X25884142Y-34218476D01*
X25979380Y-34266095D01*
X26027000Y-34313714D01*
X26074619Y-34408952D01*
X26074619Y-34599428D01*
X26027000Y-34694666D01*
X25979380Y-34742285D01*
X25884142Y-34789904D01*
X25836523Y-34789904D01*
X25741285Y-34742285D01*
X25693666Y-34694666D01*
X25646047Y-34599428D01*
X25646047Y-34408952D01*
X25598428Y-34313714D01*
X25550809Y-34266095D01*
X25455571Y-34218476D01*
X25265095Y-34218476D01*
X25169857Y-34266095D01*
X25122238Y-34313714D01*
X25074619Y-34408952D01*
X25074619Y-34599428D01*
X25122238Y-34694666D01*
X25169857Y-34742285D01*
X25265095Y-34789904D01*
X25455571Y-34789904D01*
X25550809Y-34742285D01*
X25598428Y-34694666D01*
X25646047Y-34599428D01*
%TO.C,R18*%
X128643142Y-45664380D02*
X128309809Y-45188190D01*
X128071714Y-45664380D02*
X128071714Y-44664380D01*
X128452666Y-44664380D01*
X128547904Y-44712000D01*
X128595523Y-44759619D01*
X128643142Y-44854857D01*
X128643142Y-44997714D01*
X128595523Y-45092952D01*
X128547904Y-45140571D01*
X128452666Y-45188190D01*
X128071714Y-45188190D01*
X129595523Y-45664380D02*
X129024095Y-45664380D01*
X129309809Y-45664380D02*
X129309809Y-44664380D01*
X129214571Y-44807238D01*
X129119333Y-44902476D01*
X129024095Y-44950095D01*
X130166952Y-45092952D02*
X130071714Y-45045333D01*
X130024095Y-44997714D01*
X129976476Y-44902476D01*
X129976476Y-44854857D01*
X130024095Y-44759619D01*
X130071714Y-44712000D01*
X130166952Y-44664380D01*
X130357428Y-44664380D01*
X130452666Y-44712000D01*
X130500285Y-44759619D01*
X130547904Y-44854857D01*
X130547904Y-44902476D01*
X130500285Y-44997714D01*
X130452666Y-45045333D01*
X130357428Y-45092952D01*
X130166952Y-45092952D01*
X130071714Y-45140571D01*
X130024095Y-45188190D01*
X129976476Y-45283428D01*
X129976476Y-45473904D01*
X130024095Y-45569142D01*
X130071714Y-45616761D01*
X130166952Y-45664380D01*
X130357428Y-45664380D01*
X130452666Y-45616761D01*
X130500285Y-45569142D01*
X130547904Y-45473904D01*
X130547904Y-45283428D01*
X130500285Y-45188190D01*
X130452666Y-45140571D01*
X130357428Y-45092952D01*
%TO.C,C11*%
X96162857Y-62349142D02*
X96115238Y-62301523D01*
X96067619Y-62158666D01*
X96067619Y-62063428D01*
X96115238Y-61920571D01*
X96210476Y-61825333D01*
X96305714Y-61777714D01*
X96496190Y-61730095D01*
X96639047Y-61730095D01*
X96829523Y-61777714D01*
X96924761Y-61825333D01*
X97020000Y-61920571D01*
X97067619Y-62063428D01*
X97067619Y-62158666D01*
X97020000Y-62301523D01*
X96972380Y-62349142D01*
X96067619Y-63301523D02*
X96067619Y-62730095D01*
X96067619Y-63015809D02*
X97067619Y-63015809D01*
X96924761Y-62920571D01*
X96829523Y-62825333D01*
X96781904Y-62730095D01*
X96067619Y-64253904D02*
X96067619Y-63682476D01*
X96067619Y-63968190D02*
X97067619Y-63968190D01*
X96924761Y-63872952D01*
X96829523Y-63777714D01*
X96781904Y-63682476D01*
%TO.C,SW1*%
X29313238Y-74612666D02*
X29265619Y-74755523D01*
X29265619Y-74993619D01*
X29313238Y-75088857D01*
X29360857Y-75136476D01*
X29456095Y-75184095D01*
X29551333Y-75184095D01*
X29646571Y-75136476D01*
X29694190Y-75088857D01*
X29741809Y-74993619D01*
X29789428Y-74803142D01*
X29837047Y-74707904D01*
X29884666Y-74660285D01*
X29979904Y-74612666D01*
X30075142Y-74612666D01*
X30170380Y-74660285D01*
X30218000Y-74707904D01*
X30265619Y-74803142D01*
X30265619Y-75041238D01*
X30218000Y-75184095D01*
X30265619Y-75517428D02*
X29265619Y-75755523D01*
X29979904Y-75946000D01*
X29265619Y-76136476D01*
X30265619Y-76374571D01*
X29265619Y-77279333D02*
X29265619Y-76707904D01*
X29265619Y-76993619D02*
X30265619Y-76993619D01*
X30122761Y-76898380D01*
X30027523Y-76803142D01*
X29979904Y-76707904D01*
%TO.C,C13*%
X82161142Y-58396142D02*
X82113523Y-58443761D01*
X81970666Y-58491380D01*
X81875428Y-58491380D01*
X81732571Y-58443761D01*
X81637333Y-58348523D01*
X81589714Y-58253285D01*
X81542095Y-58062809D01*
X81542095Y-57919952D01*
X81589714Y-57729476D01*
X81637333Y-57634238D01*
X81732571Y-57539000D01*
X81875428Y-57491380D01*
X81970666Y-57491380D01*
X82113523Y-57539000D01*
X82161142Y-57586619D01*
X83113523Y-58491380D02*
X82542095Y-58491380D01*
X82827809Y-58491380D02*
X82827809Y-57491380D01*
X82732571Y-57634238D01*
X82637333Y-57729476D01*
X82542095Y-57777095D01*
X83446857Y-57491380D02*
X84065904Y-57491380D01*
X83732571Y-57872333D01*
X83875428Y-57872333D01*
X83970666Y-57919952D01*
X84018285Y-57967571D01*
X84065904Y-58062809D01*
X84065904Y-58300904D01*
X84018285Y-58396142D01*
X83970666Y-58443761D01*
X83875428Y-58491380D01*
X83589714Y-58491380D01*
X83494476Y-58443761D01*
X83446857Y-58396142D01*
%TO.C,R2*%
X92289333Y-44775380D02*
X91956000Y-44299190D01*
X91717904Y-44775380D02*
X91717904Y-43775380D01*
X92098857Y-43775380D01*
X92194095Y-43823000D01*
X92241714Y-43870619D01*
X92289333Y-43965857D01*
X92289333Y-44108714D01*
X92241714Y-44203952D01*
X92194095Y-44251571D01*
X92098857Y-44299190D01*
X91717904Y-44299190D01*
X92670285Y-43870619D02*
X92717904Y-43823000D01*
X92813142Y-43775380D01*
X93051238Y-43775380D01*
X93146476Y-43823000D01*
X93194095Y-43870619D01*
X93241714Y-43965857D01*
X93241714Y-44061095D01*
X93194095Y-44203952D01*
X92622666Y-44775380D01*
X93241714Y-44775380D01*
%TO.C,C23*%
X144645142Y-33631142D02*
X144597523Y-33678761D01*
X144454666Y-33726380D01*
X144359428Y-33726380D01*
X144216571Y-33678761D01*
X144121333Y-33583523D01*
X144073714Y-33488285D01*
X144026095Y-33297809D01*
X144026095Y-33154952D01*
X144073714Y-32964476D01*
X144121333Y-32869238D01*
X144216571Y-32774000D01*
X144359428Y-32726380D01*
X144454666Y-32726380D01*
X144597523Y-32774000D01*
X144645142Y-32821619D01*
X145026095Y-32821619D02*
X145073714Y-32774000D01*
X145168952Y-32726380D01*
X145407047Y-32726380D01*
X145502285Y-32774000D01*
X145549904Y-32821619D01*
X145597523Y-32916857D01*
X145597523Y-33012095D01*
X145549904Y-33154952D01*
X144978476Y-33726380D01*
X145597523Y-33726380D01*
X145930857Y-32726380D02*
X146549904Y-32726380D01*
X146216571Y-33107333D01*
X146359428Y-33107333D01*
X146454666Y-33154952D01*
X146502285Y-33202571D01*
X146549904Y-33297809D01*
X146549904Y-33535904D01*
X146502285Y-33631142D01*
X146454666Y-33678761D01*
X146359428Y-33726380D01*
X146073714Y-33726380D01*
X145978476Y-33678761D01*
X145930857Y-33631142D01*
%TO.C,R17*%
X102417619Y-36441142D02*
X102893809Y-36107809D01*
X102417619Y-35869714D02*
X103417619Y-35869714D01*
X103417619Y-36250666D01*
X103370000Y-36345904D01*
X103322380Y-36393523D01*
X103227142Y-36441142D01*
X103084285Y-36441142D01*
X102989047Y-36393523D01*
X102941428Y-36345904D01*
X102893809Y-36250666D01*
X102893809Y-35869714D01*
X102417619Y-37393523D02*
X102417619Y-36822095D01*
X102417619Y-37107809D02*
X103417619Y-37107809D01*
X103274761Y-37012571D01*
X103179523Y-36917333D01*
X103131904Y-36822095D01*
X103417619Y-37726857D02*
X103417619Y-38393523D01*
X102417619Y-37964952D01*
%TO.C,C16*%
X102131857Y-45331142D02*
X102084238Y-45283523D01*
X102036619Y-45140666D01*
X102036619Y-45045428D01*
X102084238Y-44902571D01*
X102179476Y-44807333D01*
X102274714Y-44759714D01*
X102465190Y-44712095D01*
X102608047Y-44712095D01*
X102798523Y-44759714D01*
X102893761Y-44807333D01*
X102989000Y-44902571D01*
X103036619Y-45045428D01*
X103036619Y-45140666D01*
X102989000Y-45283523D01*
X102941380Y-45331142D01*
X102036619Y-46283523D02*
X102036619Y-45712095D01*
X102036619Y-45997809D02*
X103036619Y-45997809D01*
X102893761Y-45902571D01*
X102798523Y-45807333D01*
X102750904Y-45712095D01*
X103036619Y-47140666D02*
X103036619Y-46950190D01*
X102989000Y-46854952D01*
X102941380Y-46807333D01*
X102798523Y-46712095D01*
X102608047Y-46664476D01*
X102227095Y-46664476D01*
X102131857Y-46712095D01*
X102084238Y-46759714D01*
X102036619Y-46854952D01*
X102036619Y-47045428D01*
X102084238Y-47140666D01*
X102131857Y-47188285D01*
X102227095Y-47235904D01*
X102465190Y-47235904D01*
X102560428Y-47188285D01*
X102608047Y-47140666D01*
X102655666Y-47045428D01*
X102655666Y-46854952D01*
X102608047Y-46759714D01*
X102560428Y-46712095D01*
X102465190Y-46664476D01*
%TO.C,C7*%
X97559857Y-62444333D02*
X97512238Y-62396714D01*
X97464619Y-62253857D01*
X97464619Y-62158619D01*
X97512238Y-62015761D01*
X97607476Y-61920523D01*
X97702714Y-61872904D01*
X97893190Y-61825285D01*
X98036047Y-61825285D01*
X98226523Y-61872904D01*
X98321761Y-61920523D01*
X98417000Y-62015761D01*
X98464619Y-62158619D01*
X98464619Y-62253857D01*
X98417000Y-62396714D01*
X98369380Y-62444333D01*
X98464619Y-62777666D02*
X98464619Y-63444333D01*
X97464619Y-63015761D01*
%TO.C,C22*%
X73906142Y-50014142D02*
X73858523Y-50061761D01*
X73715666Y-50109380D01*
X73620428Y-50109380D01*
X73477571Y-50061761D01*
X73382333Y-49966523D01*
X73334714Y-49871285D01*
X73287095Y-49680809D01*
X73287095Y-49537952D01*
X73334714Y-49347476D01*
X73382333Y-49252238D01*
X73477571Y-49157000D01*
X73620428Y-49109380D01*
X73715666Y-49109380D01*
X73858523Y-49157000D01*
X73906142Y-49204619D01*
X74287095Y-49204619D02*
X74334714Y-49157000D01*
X74429952Y-49109380D01*
X74668047Y-49109380D01*
X74763285Y-49157000D01*
X74810904Y-49204619D01*
X74858523Y-49299857D01*
X74858523Y-49395095D01*
X74810904Y-49537952D01*
X74239476Y-50109380D01*
X74858523Y-50109380D01*
X75239476Y-49204619D02*
X75287095Y-49157000D01*
X75382333Y-49109380D01*
X75620428Y-49109380D01*
X75715666Y-49157000D01*
X75763285Y-49204619D01*
X75810904Y-49299857D01*
X75810904Y-49395095D01*
X75763285Y-49537952D01*
X75191857Y-50109380D01*
X75810904Y-50109380D01*
%TO.C,R14*%
X115752619Y-63365142D02*
X116228809Y-63031809D01*
X115752619Y-62793714D02*
X116752619Y-62793714D01*
X116752619Y-63174666D01*
X116705000Y-63269904D01*
X116657380Y-63317523D01*
X116562142Y-63365142D01*
X116419285Y-63365142D01*
X116324047Y-63317523D01*
X116276428Y-63269904D01*
X116228809Y-63174666D01*
X116228809Y-62793714D01*
X115752619Y-64317523D02*
X115752619Y-63746095D01*
X115752619Y-64031809D02*
X116752619Y-64031809D01*
X116609761Y-63936571D01*
X116514523Y-63841333D01*
X116466904Y-63746095D01*
X116419285Y-65174666D02*
X115752619Y-65174666D01*
X116800238Y-64936571D02*
X116085952Y-64698476D01*
X116085952Y-65317523D01*
%TO.C,U4*%
X115697095Y-33234380D02*
X115697095Y-34043904D01*
X115744714Y-34139142D01*
X115792333Y-34186761D01*
X115887571Y-34234380D01*
X116078047Y-34234380D01*
X116173285Y-34186761D01*
X116220904Y-34139142D01*
X116268523Y-34043904D01*
X116268523Y-33234380D01*
X117173285Y-33567714D02*
X117173285Y-34234380D01*
X116935190Y-33186761D02*
X116697095Y-33901047D01*
X117316142Y-33901047D01*
%TO.C,R6*%
X96067619Y-66000333D02*
X96543809Y-65667000D01*
X96067619Y-65428904D02*
X97067619Y-65428904D01*
X97067619Y-65809857D01*
X97020000Y-65905095D01*
X96972380Y-65952714D01*
X96877142Y-66000333D01*
X96734285Y-66000333D01*
X96639047Y-65952714D01*
X96591428Y-65905095D01*
X96543809Y-65809857D01*
X96543809Y-65428904D01*
X97067619Y-66857476D02*
X97067619Y-66667000D01*
X97020000Y-66571761D01*
X96972380Y-66524142D01*
X96829523Y-66428904D01*
X96639047Y-66381285D01*
X96258095Y-66381285D01*
X96162857Y-66428904D01*
X96115238Y-66476523D01*
X96067619Y-66571761D01*
X96067619Y-66762238D01*
X96115238Y-66857476D01*
X96162857Y-66905095D01*
X96258095Y-66952714D01*
X96496190Y-66952714D01*
X96591428Y-66905095D01*
X96639047Y-66857476D01*
X96686666Y-66762238D01*
X96686666Y-66571761D01*
X96639047Y-66476523D01*
X96591428Y-66428904D01*
X96496190Y-66381285D01*
%TO.C,D4*%
X76187618Y-72438380D02*
X76187618Y-71438380D01*
X76425714Y-71438380D01*
X76568571Y-71486000D01*
X76663809Y-71581238D01*
X76711428Y-71676476D01*
X76759047Y-71866952D01*
X76759047Y-72009809D01*
X76711428Y-72200285D01*
X76663809Y-72295523D01*
X76568571Y-72390761D01*
X76425714Y-72438380D01*
X76187618Y-72438380D01*
X77616190Y-71771714D02*
X77616190Y-72438380D01*
X77378094Y-71390761D02*
X77139999Y-72105047D01*
X77759047Y-72105047D01*
%TO.C,R7*%
X103973333Y-40076380D02*
X103640000Y-39600190D01*
X103401904Y-40076380D02*
X103401904Y-39076380D01*
X103782857Y-39076380D01*
X103878095Y-39124000D01*
X103925714Y-39171619D01*
X103973333Y-39266857D01*
X103973333Y-39409714D01*
X103925714Y-39504952D01*
X103878095Y-39552571D01*
X103782857Y-39600190D01*
X103401904Y-39600190D01*
X104306666Y-39076380D02*
X104973333Y-39076380D01*
X104544761Y-40076380D01*
%TO.C,U3*%
X134659619Y-43180095D02*
X133850095Y-43180095D01*
X133754857Y-43227714D01*
X133707238Y-43275333D01*
X133659619Y-43370571D01*
X133659619Y-43561047D01*
X133707238Y-43656285D01*
X133754857Y-43703904D01*
X133850095Y-43751523D01*
X134659619Y-43751523D01*
X134659619Y-44132476D02*
X134659619Y-44751523D01*
X134278666Y-44418190D01*
X134278666Y-44561047D01*
X134231047Y-44656285D01*
X134183428Y-44703904D01*
X134088190Y-44751523D01*
X133850095Y-44751523D01*
X133754857Y-44703904D01*
X133707238Y-44656285D01*
X133659619Y-44561047D01*
X133659619Y-44275333D01*
X133707238Y-44180095D01*
X133754857Y-44132476D01*
%TO.C,U7*%
X61743095Y-65409380D02*
X61743095Y-66218904D01*
X61790714Y-66314142D01*
X61838333Y-66361761D01*
X61933571Y-66409380D01*
X62124047Y-66409380D01*
X62219285Y-66361761D01*
X62266904Y-66314142D01*
X62314523Y-66218904D01*
X62314523Y-65409380D01*
X62695476Y-65409380D02*
X63362142Y-65409380D01*
X62933571Y-66409380D01*
%TO.C,R20*%
X107497619Y-33012142D02*
X107973809Y-32678809D01*
X107497619Y-32440714D02*
X108497619Y-32440714D01*
X108497619Y-32821666D01*
X108450000Y-32916904D01*
X108402380Y-32964523D01*
X108307142Y-33012142D01*
X108164285Y-33012142D01*
X108069047Y-32964523D01*
X108021428Y-32916904D01*
X107973809Y-32821666D01*
X107973809Y-32440714D01*
X108402380Y-33393095D02*
X108450000Y-33440714D01*
X108497619Y-33535952D01*
X108497619Y-33774047D01*
X108450000Y-33869285D01*
X108402380Y-33916904D01*
X108307142Y-33964523D01*
X108211904Y-33964523D01*
X108069047Y-33916904D01*
X107497619Y-33345476D01*
X107497619Y-33964523D01*
X108497619Y-34583571D02*
X108497619Y-34678809D01*
X108450000Y-34774047D01*
X108402380Y-34821666D01*
X108307142Y-34869285D01*
X108116666Y-34916904D01*
X107878571Y-34916904D01*
X107688095Y-34869285D01*
X107592857Y-34821666D01*
X107545238Y-34774047D01*
X107497619Y-34678809D01*
X107497619Y-34583571D01*
X107545238Y-34488333D01*
X107592857Y-34440714D01*
X107688095Y-34393095D01*
X107878571Y-34345476D01*
X108116666Y-34345476D01*
X108307142Y-34393095D01*
X108402380Y-34440714D01*
X108450000Y-34488333D01*
X108497619Y-34583571D01*
%TO.C,C24*%
X110863142Y-49506142D02*
X110815523Y-49553761D01*
X110672666Y-49601380D01*
X110577428Y-49601380D01*
X110434571Y-49553761D01*
X110339333Y-49458523D01*
X110291714Y-49363285D01*
X110244095Y-49172809D01*
X110244095Y-49029952D01*
X110291714Y-48839476D01*
X110339333Y-48744238D01*
X110434571Y-48649000D01*
X110577428Y-48601380D01*
X110672666Y-48601380D01*
X110815523Y-48649000D01*
X110863142Y-48696619D01*
X111244095Y-48696619D02*
X111291714Y-48649000D01*
X111386952Y-48601380D01*
X111625047Y-48601380D01*
X111720285Y-48649000D01*
X111767904Y-48696619D01*
X111815523Y-48791857D01*
X111815523Y-48887095D01*
X111767904Y-49029952D01*
X111196476Y-49601380D01*
X111815523Y-49601380D01*
X112672666Y-48934714D02*
X112672666Y-49601380D01*
X112434571Y-48553761D02*
X112196476Y-49268047D01*
X112815523Y-49268047D01*
%TO.C,FB2*%
X86034666Y-61777571D02*
X85701333Y-61777571D01*
X85701333Y-62301380D02*
X85701333Y-61301380D01*
X86177523Y-61301380D01*
X86891809Y-61777571D02*
X87034666Y-61825190D01*
X87082285Y-61872809D01*
X87129904Y-61968047D01*
X87129904Y-62110904D01*
X87082285Y-62206142D01*
X87034666Y-62253761D01*
X86939428Y-62301380D01*
X86558476Y-62301380D01*
X86558476Y-61301380D01*
X86891809Y-61301380D01*
X86987047Y-61349000D01*
X87034666Y-61396619D01*
X87082285Y-61491857D01*
X87082285Y-61587095D01*
X87034666Y-61682333D01*
X86987047Y-61729952D01*
X86891809Y-61777571D01*
X86558476Y-61777571D01*
X87510857Y-61396619D02*
X87558476Y-61349000D01*
X87653714Y-61301380D01*
X87891809Y-61301380D01*
X87987047Y-61349000D01*
X88034666Y-61396619D01*
X88082285Y-61491857D01*
X88082285Y-61587095D01*
X88034666Y-61729952D01*
X87463238Y-62301380D01*
X88082285Y-62301380D01*
%TO.C,C26*%
X123944142Y-45442142D02*
X123896523Y-45489761D01*
X123753666Y-45537380D01*
X123658428Y-45537380D01*
X123515571Y-45489761D01*
X123420333Y-45394523D01*
X123372714Y-45299285D01*
X123325095Y-45108809D01*
X123325095Y-44965952D01*
X123372714Y-44775476D01*
X123420333Y-44680238D01*
X123515571Y-44585000D01*
X123658428Y-44537380D01*
X123753666Y-44537380D01*
X123896523Y-44585000D01*
X123944142Y-44632619D01*
X124325095Y-44632619D02*
X124372714Y-44585000D01*
X124467952Y-44537380D01*
X124706047Y-44537380D01*
X124801285Y-44585000D01*
X124848904Y-44632619D01*
X124896523Y-44727857D01*
X124896523Y-44823095D01*
X124848904Y-44965952D01*
X124277476Y-45537380D01*
X124896523Y-45537380D01*
X125753666Y-44537380D02*
X125563190Y-44537380D01*
X125467952Y-44585000D01*
X125420333Y-44632619D01*
X125325095Y-44775476D01*
X125277476Y-44965952D01*
X125277476Y-45346904D01*
X125325095Y-45442142D01*
X125372714Y-45489761D01*
X125467952Y-45537380D01*
X125658428Y-45537380D01*
X125753666Y-45489761D01*
X125801285Y-45442142D01*
X125848904Y-45346904D01*
X125848904Y-45108809D01*
X125801285Y-45013571D01*
X125753666Y-44965952D01*
X125658428Y-44918333D01*
X125467952Y-44918333D01*
X125372714Y-44965952D01*
X125325095Y-45013571D01*
X125277476Y-45108809D01*
%TO.C,R13*%
X114228619Y-63365142D02*
X114704809Y-63031809D01*
X114228619Y-62793714D02*
X115228619Y-62793714D01*
X115228619Y-63174666D01*
X115181000Y-63269904D01*
X115133380Y-63317523D01*
X115038142Y-63365142D01*
X114895285Y-63365142D01*
X114800047Y-63317523D01*
X114752428Y-63269904D01*
X114704809Y-63174666D01*
X114704809Y-62793714D01*
X114228619Y-64317523D02*
X114228619Y-63746095D01*
X114228619Y-64031809D02*
X115228619Y-64031809D01*
X115085761Y-63936571D01*
X114990523Y-63841333D01*
X114942904Y-63746095D01*
X115228619Y-64650857D02*
X115228619Y-65269904D01*
X114847666Y-64936571D01*
X114847666Y-65079428D01*
X114800047Y-65174666D01*
X114752428Y-65222285D01*
X114657190Y-65269904D01*
X114419095Y-65269904D01*
X114323857Y-65222285D01*
X114276238Y-65174666D01*
X114228619Y-65079428D01*
X114228619Y-64793714D01*
X114276238Y-64698476D01*
X114323857Y-64650857D01*
%TO.C,J3*%
X148251666Y-40561380D02*
X148251666Y-41275666D01*
X148204047Y-41418523D01*
X148108809Y-41513761D01*
X147965952Y-41561380D01*
X147870714Y-41561380D01*
X148632619Y-40561380D02*
X149251666Y-40561380D01*
X148918333Y-40942333D01*
X149061190Y-40942333D01*
X149156428Y-40989952D01*
X149204047Y-41037571D01*
X149251666Y-41132809D01*
X149251666Y-41370904D01*
X149204047Y-41466142D01*
X149156428Y-41513761D01*
X149061190Y-41561380D01*
X148775476Y-41561380D01*
X148680238Y-41513761D01*
X148632619Y-41466142D01*
%TO.C,R4*%
X102163619Y-62698333D02*
X102639809Y-62365000D01*
X102163619Y-62126904D02*
X103163619Y-62126904D01*
X103163619Y-62507857D01*
X103116000Y-62603095D01*
X103068380Y-62650714D01*
X102973142Y-62698333D01*
X102830285Y-62698333D01*
X102735047Y-62650714D01*
X102687428Y-62603095D01*
X102639809Y-62507857D01*
X102639809Y-62126904D01*
X102830285Y-63555476D02*
X102163619Y-63555476D01*
X103211238Y-63317380D02*
X102496952Y-63079285D01*
X102496952Y-63698333D01*
%TO.C,R1*%
X103973333Y-44267380D02*
X103640000Y-43791190D01*
X103401904Y-44267380D02*
X103401904Y-43267380D01*
X103782857Y-43267380D01*
X103878095Y-43315000D01*
X103925714Y-43362619D01*
X103973333Y-43457857D01*
X103973333Y-43600714D01*
X103925714Y-43695952D01*
X103878095Y-43743571D01*
X103782857Y-43791190D01*
X103401904Y-43791190D01*
X104925714Y-44267380D02*
X104354285Y-44267380D01*
X104640000Y-44267380D02*
X104640000Y-43267380D01*
X104544761Y-43410238D01*
X104449523Y-43505476D01*
X104354285Y-43553095D01*
%TO.C,U2*%
X95504095Y-47077380D02*
X95504095Y-47886904D01*
X95551714Y-47982142D01*
X95599333Y-48029761D01*
X95694571Y-48077380D01*
X95885047Y-48077380D01*
X95980285Y-48029761D01*
X96027904Y-47982142D01*
X96075523Y-47886904D01*
X96075523Y-47077380D01*
X96504095Y-47172619D02*
X96551714Y-47125000D01*
X96646952Y-47077380D01*
X96885047Y-47077380D01*
X96980285Y-47125000D01*
X97027904Y-47172619D01*
X97075523Y-47267857D01*
X97075523Y-47363095D01*
X97027904Y-47505952D01*
X96456476Y-48077380D01*
X97075523Y-48077380D01*
%TO.C,U6*%
X45886619Y-45212095D02*
X45077095Y-45212095D01*
X44981857Y-45259714D01*
X44934238Y-45307333D01*
X44886619Y-45402571D01*
X44886619Y-45593047D01*
X44934238Y-45688285D01*
X44981857Y-45735904D01*
X45077095Y-45783523D01*
X45886619Y-45783523D01*
X45886619Y-46688285D02*
X45886619Y-46497809D01*
X45839000Y-46402571D01*
X45791380Y-46354952D01*
X45648523Y-46259714D01*
X45458047Y-46212095D01*
X45077095Y-46212095D01*
X44981857Y-46259714D01*
X44934238Y-46307333D01*
X44886619Y-46402571D01*
X44886619Y-46593047D01*
X44934238Y-46688285D01*
X44981857Y-46735904D01*
X45077095Y-46783523D01*
X45315190Y-46783523D01*
X45410428Y-46735904D01*
X45458047Y-46688285D01*
X45505666Y-46593047D01*
X45505666Y-46402571D01*
X45458047Y-46307333D01*
X45410428Y-46259714D01*
X45315190Y-46212095D01*
%TO.C,R23*%
X86352142Y-40617380D02*
X86018809Y-40141190D01*
X85780714Y-40617380D02*
X85780714Y-39617380D01*
X86161666Y-39617380D01*
X86256904Y-39665000D01*
X86304523Y-39712619D01*
X86352142Y-39807857D01*
X86352142Y-39950714D01*
X86304523Y-40045952D01*
X86256904Y-40093571D01*
X86161666Y-40141190D01*
X85780714Y-40141190D01*
X86733095Y-39712619D02*
X86780714Y-39665000D01*
X86875952Y-39617380D01*
X87114047Y-39617380D01*
X87209285Y-39665000D01*
X87256904Y-39712619D01*
X87304523Y-39807857D01*
X87304523Y-39903095D01*
X87256904Y-40045952D01*
X86685476Y-40617380D01*
X87304523Y-40617380D01*
X87637857Y-39617380D02*
X88256904Y-39617380D01*
X87923571Y-39998333D01*
X88066428Y-39998333D01*
X88161666Y-40045952D01*
X88209285Y-40093571D01*
X88256904Y-40188809D01*
X88256904Y-40426904D01*
X88209285Y-40522142D01*
X88161666Y-40569761D01*
X88066428Y-40617380D01*
X87780714Y-40617380D01*
X87685476Y-40569761D01*
X87637857Y-40522142D01*
%TO.C,J5*%
X136572666Y-34377380D02*
X136572666Y-35091666D01*
X136525047Y-35234523D01*
X136429809Y-35329761D01*
X136286952Y-35377380D01*
X136191714Y-35377380D01*
X137525047Y-34377380D02*
X137048857Y-34377380D01*
X137001238Y-34853571D01*
X137048857Y-34805952D01*
X137144095Y-34758333D01*
X137382190Y-34758333D01*
X137477428Y-34805952D01*
X137525047Y-34853571D01*
X137572666Y-34948809D01*
X137572666Y-35186904D01*
X137525047Y-35282142D01*
X137477428Y-35329761D01*
X137382190Y-35377380D01*
X137144095Y-35377380D01*
X137048857Y-35329761D01*
X137001238Y-35282142D01*
%TO.C,L1*%
X35006619Y-29170333D02*
X35006619Y-28694142D01*
X36006619Y-28694142D01*
X35006619Y-30027476D02*
X35006619Y-29456047D01*
X35006619Y-29741761D02*
X36006619Y-29741761D01*
X35863761Y-29646523D01*
X35768523Y-29551285D01*
X35720904Y-29456047D01*
%TO.C,U1*%
X37511095Y-29480380D02*
X37511095Y-30289904D01*
X37558714Y-30385142D01*
X37606333Y-30432761D01*
X37701571Y-30480380D01*
X37892047Y-30480380D01*
X37987285Y-30432761D01*
X38034904Y-30385142D01*
X38082523Y-30289904D01*
X38082523Y-29480380D01*
X39082523Y-30480380D02*
X38511095Y-30480380D01*
X38796809Y-30480380D02*
X38796809Y-29480380D01*
X38701571Y-29623238D01*
X38606333Y-29718476D01*
X38511095Y-29766095D01*
%TO.C,C8*%
X100861857Y-62317333D02*
X100814238Y-62269714D01*
X100766619Y-62126857D01*
X100766619Y-62031619D01*
X100814238Y-61888761D01*
X100909476Y-61793523D01*
X101004714Y-61745904D01*
X101195190Y-61698285D01*
X101338047Y-61698285D01*
X101528523Y-61745904D01*
X101623761Y-61793523D01*
X101719000Y-61888761D01*
X101766619Y-62031619D01*
X101766619Y-62126857D01*
X101719000Y-62269714D01*
X101671380Y-62317333D01*
X101338047Y-62888761D02*
X101385666Y-62793523D01*
X101433285Y-62745904D01*
X101528523Y-62698285D01*
X101576142Y-62698285D01*
X101671380Y-62745904D01*
X101719000Y-62793523D01*
X101766619Y-62888761D01*
X101766619Y-63079238D01*
X101719000Y-63174476D01*
X101671380Y-63222095D01*
X101576142Y-63269714D01*
X101528523Y-63269714D01*
X101433285Y-63222095D01*
X101385666Y-63174476D01*
X101338047Y-63079238D01*
X101338047Y-62888761D01*
X101290428Y-62793523D01*
X101242809Y-62745904D01*
X101147571Y-62698285D01*
X100957095Y-62698285D01*
X100861857Y-62745904D01*
X100814238Y-62793523D01*
X100766619Y-62888761D01*
X100766619Y-63079238D01*
X100814238Y-63174476D01*
X100861857Y-63222095D01*
X100957095Y-63269714D01*
X101147571Y-63269714D01*
X101242809Y-63222095D01*
X101290428Y-63174476D01*
X101338047Y-63079238D01*
%TO.C,C18*%
X52951142Y-51792142D02*
X52903523Y-51839761D01*
X52760666Y-51887380D01*
X52665428Y-51887380D01*
X52522571Y-51839761D01*
X52427333Y-51744523D01*
X52379714Y-51649285D01*
X52332095Y-51458809D01*
X52332095Y-51315952D01*
X52379714Y-51125476D01*
X52427333Y-51030238D01*
X52522571Y-50935000D01*
X52665428Y-50887380D01*
X52760666Y-50887380D01*
X52903523Y-50935000D01*
X52951142Y-50982619D01*
X53903523Y-51887380D02*
X53332095Y-51887380D01*
X53617809Y-51887380D02*
X53617809Y-50887380D01*
X53522571Y-51030238D01*
X53427333Y-51125476D01*
X53332095Y-51173095D01*
X54474952Y-51315952D02*
X54379714Y-51268333D01*
X54332095Y-51220714D01*
X54284476Y-51125476D01*
X54284476Y-51077857D01*
X54332095Y-50982619D01*
X54379714Y-50935000D01*
X54474952Y-50887380D01*
X54665428Y-50887380D01*
X54760666Y-50935000D01*
X54808285Y-50982619D01*
X54855904Y-51077857D01*
X54855904Y-51125476D01*
X54808285Y-51220714D01*
X54760666Y-51268333D01*
X54665428Y-51315952D01*
X54474952Y-51315952D01*
X54379714Y-51363571D01*
X54332095Y-51411190D01*
X54284476Y-51506428D01*
X54284476Y-51696904D01*
X54332095Y-51792142D01*
X54379714Y-51839761D01*
X54474952Y-51887380D01*
X54665428Y-51887380D01*
X54760666Y-51839761D01*
X54808285Y-51792142D01*
X54855904Y-51696904D01*
X54855904Y-51506428D01*
X54808285Y-51411190D01*
X54760666Y-51363571D01*
X54665428Y-51315952D01*
%TO.C,R27*%
X110863142Y-47950380D02*
X110529809Y-47474190D01*
X110291714Y-47950380D02*
X110291714Y-46950380D01*
X110672666Y-46950380D01*
X110767904Y-46998000D01*
X110815523Y-47045619D01*
X110863142Y-47140857D01*
X110863142Y-47283714D01*
X110815523Y-47378952D01*
X110767904Y-47426571D01*
X110672666Y-47474190D01*
X110291714Y-47474190D01*
X111244095Y-47045619D02*
X111291714Y-46998000D01*
X111386952Y-46950380D01*
X111625047Y-46950380D01*
X111720285Y-46998000D01*
X111767904Y-47045619D01*
X111815523Y-47140857D01*
X111815523Y-47236095D01*
X111767904Y-47378952D01*
X111196476Y-47950380D01*
X111815523Y-47950380D01*
X112148857Y-46950380D02*
X112815523Y-46950380D01*
X112386952Y-47950380D01*
%TO.C,Y1*%
X83337809Y-54768809D02*
X82861619Y-54768809D01*
X83861619Y-54435476D02*
X83337809Y-54768809D01*
X83861619Y-55102142D01*
X82861619Y-55959285D02*
X82861619Y-55387857D01*
X82861619Y-55673571D02*
X83861619Y-55673571D01*
X83718761Y-55578333D01*
X83623523Y-55483095D01*
X83575904Y-55387857D01*
%TO.C,R24*%
X58412142Y-37536380D02*
X58078809Y-37060190D01*
X57840714Y-37536380D02*
X57840714Y-36536380D01*
X58221666Y-36536380D01*
X58316904Y-36584000D01*
X58364523Y-36631619D01*
X58412142Y-36726857D01*
X58412142Y-36869714D01*
X58364523Y-36964952D01*
X58316904Y-37012571D01*
X58221666Y-37060190D01*
X57840714Y-37060190D01*
X58793095Y-36631619D02*
X58840714Y-36584000D01*
X58935952Y-36536380D01*
X59174047Y-36536380D01*
X59269285Y-36584000D01*
X59316904Y-36631619D01*
X59364523Y-36726857D01*
X59364523Y-36822095D01*
X59316904Y-36964952D01*
X58745476Y-37536380D01*
X59364523Y-37536380D01*
X60221666Y-36869714D02*
X60221666Y-37536380D01*
X59983571Y-36488761D02*
X59745476Y-37203047D01*
X60364523Y-37203047D01*
%TO.C,R12*%
X112704619Y-63365142D02*
X113180809Y-63031809D01*
X112704619Y-62793714D02*
X113704619Y-62793714D01*
X113704619Y-63174666D01*
X113657000Y-63269904D01*
X113609380Y-63317523D01*
X113514142Y-63365142D01*
X113371285Y-63365142D01*
X113276047Y-63317523D01*
X113228428Y-63269904D01*
X113180809Y-63174666D01*
X113180809Y-62793714D01*
X112704619Y-64317523D02*
X112704619Y-63746095D01*
X112704619Y-64031809D02*
X113704619Y-64031809D01*
X113561761Y-63936571D01*
X113466523Y-63841333D01*
X113418904Y-63746095D01*
X113609380Y-64698476D02*
X113657000Y-64746095D01*
X113704619Y-64841333D01*
X113704619Y-65079428D01*
X113657000Y-65174666D01*
X113609380Y-65222285D01*
X113514142Y-65269904D01*
X113418904Y-65269904D01*
X113276047Y-65222285D01*
X112704619Y-64650857D01*
X112704619Y-65269904D01*
%TO.C,C10*%
X99210857Y-62603142D02*
X99163238Y-62555523D01*
X99115619Y-62412666D01*
X99115619Y-62317428D01*
X99163238Y-62174571D01*
X99258476Y-62079333D01*
X99353714Y-62031714D01*
X99544190Y-61984095D01*
X99687047Y-61984095D01*
X99877523Y-62031714D01*
X99972761Y-62079333D01*
X100068000Y-62174571D01*
X100115619Y-62317428D01*
X100115619Y-62412666D01*
X100068000Y-62555523D01*
X100020380Y-62603142D01*
X99115619Y-63555523D02*
X99115619Y-62984095D01*
X99115619Y-63269809D02*
X100115619Y-63269809D01*
X99972761Y-63174571D01*
X99877523Y-63079333D01*
X99829904Y-62984095D01*
X100115619Y-64174571D02*
X100115619Y-64269809D01*
X100068000Y-64365047D01*
X100020380Y-64412666D01*
X99925142Y-64460285D01*
X99734666Y-64507904D01*
X99496571Y-64507904D01*
X99306095Y-64460285D01*
X99210857Y-64412666D01*
X99163238Y-64365047D01*
X99115619Y-64269809D01*
X99115619Y-64174571D01*
X99163238Y-64079333D01*
X99210857Y-64031714D01*
X99306095Y-63984095D01*
X99496571Y-63936476D01*
X99734666Y-63936476D01*
X99925142Y-63984095D01*
X100020380Y-64031714D01*
X100068000Y-64079333D01*
X100115619Y-64174571D01*
%TO.C,FB4*%
X58221666Y-35615571D02*
X57888333Y-35615571D01*
X57888333Y-36139380D02*
X57888333Y-35139380D01*
X58364523Y-35139380D01*
X59078809Y-35615571D02*
X59221666Y-35663190D01*
X59269285Y-35710809D01*
X59316904Y-35806047D01*
X59316904Y-35948904D01*
X59269285Y-36044142D01*
X59221666Y-36091761D01*
X59126428Y-36139380D01*
X58745476Y-36139380D01*
X58745476Y-35139380D01*
X59078809Y-35139380D01*
X59174047Y-35187000D01*
X59221666Y-35234619D01*
X59269285Y-35329857D01*
X59269285Y-35425095D01*
X59221666Y-35520333D01*
X59174047Y-35567952D01*
X59078809Y-35615571D01*
X58745476Y-35615571D01*
X60174047Y-35472714D02*
X60174047Y-36139380D01*
X59935952Y-35091761D02*
X59697857Y-35806047D01*
X60316904Y-35806047D01*
%TO.C,D3*%
X57319047Y-72438380D02*
X57319047Y-71438380D01*
X57557143Y-71438380D01*
X57700000Y-71486000D01*
X57795238Y-71581238D01*
X57842857Y-71676476D01*
X57890476Y-71866952D01*
X57890476Y-72009809D01*
X57842857Y-72200285D01*
X57795238Y-72295523D01*
X57700000Y-72390761D01*
X57557143Y-72438380D01*
X57319047Y-72438380D01*
X58223809Y-71438380D02*
X58842857Y-71438380D01*
X58509523Y-71819333D01*
X58652381Y-71819333D01*
X58747619Y-71866952D01*
X58795238Y-71914571D01*
X58842857Y-72009809D01*
X58842857Y-72247904D01*
X58795238Y-72343142D01*
X58747619Y-72390761D01*
X58652381Y-72438380D01*
X58366666Y-72438380D01*
X58271428Y-72390761D01*
X58223809Y-72343142D01*
%TO.C,J1*%
X23661619Y-24304666D02*
X22947333Y-24304666D01*
X22804476Y-24257047D01*
X22709238Y-24161809D01*
X22661619Y-24018952D01*
X22661619Y-23923714D01*
X22661619Y-25304666D02*
X22661619Y-24733238D01*
X22661619Y-25018952D02*
X23661619Y-25018952D01*
X23518761Y-24923714D01*
X23423523Y-24828476D01*
X23375904Y-24733238D01*
%TO.C,R22*%
X127246142Y-55062380D02*
X126912809Y-54586190D01*
X126674714Y-55062380D02*
X126674714Y-54062380D01*
X127055666Y-54062380D01*
X127150904Y-54110000D01*
X127198523Y-54157619D01*
X127246142Y-54252857D01*
X127246142Y-54395714D01*
X127198523Y-54490952D01*
X127150904Y-54538571D01*
X127055666Y-54586190D01*
X126674714Y-54586190D01*
X127627095Y-54157619D02*
X127674714Y-54110000D01*
X127769952Y-54062380D01*
X128008047Y-54062380D01*
X128103285Y-54110000D01*
X128150904Y-54157619D01*
X128198523Y-54252857D01*
X128198523Y-54348095D01*
X128150904Y-54490952D01*
X127579476Y-55062380D01*
X128198523Y-55062380D01*
X128579476Y-54157619D02*
X128627095Y-54110000D01*
X128722333Y-54062380D01*
X128960428Y-54062380D01*
X129055666Y-54110000D01*
X129103285Y-54157619D01*
X129150904Y-54252857D01*
X129150904Y-54348095D01*
X129103285Y-54490952D01*
X128531857Y-55062380D01*
X129150904Y-55062380D01*
%TO.C,R10*%
X109656619Y-63365142D02*
X110132809Y-63031809D01*
X109656619Y-62793714D02*
X110656619Y-62793714D01*
X110656619Y-63174666D01*
X110609000Y-63269904D01*
X110561380Y-63317523D01*
X110466142Y-63365142D01*
X110323285Y-63365142D01*
X110228047Y-63317523D01*
X110180428Y-63269904D01*
X110132809Y-63174666D01*
X110132809Y-62793714D01*
X109656619Y-64317523D02*
X109656619Y-63746095D01*
X109656619Y-64031809D02*
X110656619Y-64031809D01*
X110513761Y-63936571D01*
X110418523Y-63841333D01*
X110370904Y-63746095D01*
X110656619Y-64936571D02*
X110656619Y-65031809D01*
X110609000Y-65127047D01*
X110561380Y-65174666D01*
X110466142Y-65222285D01*
X110275666Y-65269904D01*
X110037571Y-65269904D01*
X109847095Y-65222285D01*
X109751857Y-65174666D01*
X109704238Y-65127047D01*
X109656619Y-65031809D01*
X109656619Y-64936571D01*
X109704238Y-64841333D01*
X109751857Y-64793714D01*
X109847095Y-64746095D01*
X110037571Y-64698476D01*
X110275666Y-64698476D01*
X110466142Y-64746095D01*
X110561380Y-64793714D01*
X110609000Y-64841333D01*
X110656619Y-64936571D01*
%TO.C,C9*%
X89177857Y-64730333D02*
X89130238Y-64682714D01*
X89082619Y-64539857D01*
X89082619Y-64444619D01*
X89130238Y-64301761D01*
X89225476Y-64206523D01*
X89320714Y-64158904D01*
X89511190Y-64111285D01*
X89654047Y-64111285D01*
X89844523Y-64158904D01*
X89939761Y-64206523D01*
X90035000Y-64301761D01*
X90082619Y-64444619D01*
X90082619Y-64539857D01*
X90035000Y-64682714D01*
X89987380Y-64730333D01*
X89082619Y-65206523D02*
X89082619Y-65397000D01*
X89130238Y-65492238D01*
X89177857Y-65539857D01*
X89320714Y-65635095D01*
X89511190Y-65682714D01*
X89892142Y-65682714D01*
X89987380Y-65635095D01*
X90035000Y-65587476D01*
X90082619Y-65492238D01*
X90082619Y-65301761D01*
X90035000Y-65206523D01*
X89987380Y-65158904D01*
X89892142Y-65111285D01*
X89654047Y-65111285D01*
X89558809Y-65158904D01*
X89511190Y-65206523D01*
X89463571Y-65301761D01*
X89463571Y-65492238D01*
X89511190Y-65587476D01*
X89558809Y-65635095D01*
X89654047Y-65682714D01*
%TO.C,C19*%
X69842142Y-40302142D02*
X69794523Y-40349761D01*
X69651666Y-40397380D01*
X69556428Y-40397380D01*
X69413571Y-40349761D01*
X69318333Y-40254523D01*
X69270714Y-40159285D01*
X69223095Y-39968809D01*
X69223095Y-39825952D01*
X69270714Y-39635476D01*
X69318333Y-39540238D01*
X69413571Y-39445000D01*
X69556428Y-39397380D01*
X69651666Y-39397380D01*
X69794523Y-39445000D01*
X69842142Y-39492619D01*
X70794523Y-40397380D02*
X70223095Y-40397380D01*
X70508809Y-40397380D02*
X70508809Y-39397380D01*
X70413571Y-39540238D01*
X70318333Y-39635476D01*
X70223095Y-39683095D01*
X71270714Y-40397380D02*
X71461190Y-40397380D01*
X71556428Y-40349761D01*
X71604047Y-40302142D01*
X71699285Y-40159285D01*
X71746904Y-39968809D01*
X71746904Y-39587857D01*
X71699285Y-39492619D01*
X71651666Y-39445000D01*
X71556428Y-39397380D01*
X71365952Y-39397380D01*
X71270714Y-39445000D01*
X71223095Y-39492619D01*
X71175476Y-39587857D01*
X71175476Y-39825952D01*
X71223095Y-39921190D01*
X71270714Y-39968809D01*
X71365952Y-40016428D01*
X71556428Y-40016428D01*
X71651666Y-39968809D01*
X71699285Y-39921190D01*
X71746904Y-39825952D01*
%TO.C,J2*%
X101058619Y-36506666D02*
X100344333Y-36506666D01*
X100201476Y-36459047D01*
X100106238Y-36363809D01*
X100058619Y-36220952D01*
X100058619Y-36125714D01*
X100963380Y-36935238D02*
X101011000Y-36982857D01*
X101058619Y-37078095D01*
X101058619Y-37316190D01*
X101011000Y-37411428D01*
X100963380Y-37459047D01*
X100868142Y-37506666D01*
X100772904Y-37506666D01*
X100630047Y-37459047D01*
X100058619Y-36887619D01*
X100058619Y-37506666D01*
%TO.C,J4*%
X100504666Y-31456380D02*
X100504666Y-32170666D01*
X100457047Y-32313523D01*
X100361809Y-32408761D01*
X100218952Y-32456380D01*
X100123714Y-32456380D01*
X101409428Y-31789714D02*
X101409428Y-32456380D01*
X101171333Y-31408761D02*
X100933238Y-32123047D01*
X101552285Y-32123047D01*
%TO.C,C3*%
X31960357Y-30384333D02*
X31912738Y-30336714D01*
X31865119Y-30193857D01*
X31865119Y-30098619D01*
X31912738Y-29955761D01*
X32007976Y-29860523D01*
X32103214Y-29812904D01*
X32293690Y-29765285D01*
X32436547Y-29765285D01*
X32627023Y-29812904D01*
X32722261Y-29860523D01*
X32817500Y-29955761D01*
X32865119Y-30098619D01*
X32865119Y-30193857D01*
X32817500Y-30336714D01*
X32769880Y-30384333D01*
X32865119Y-30717666D02*
X32865119Y-31336714D01*
X32484166Y-31003380D01*
X32484166Y-31146238D01*
X32436547Y-31241476D01*
X32388928Y-31289095D01*
X32293690Y-31336714D01*
X32055595Y-31336714D01*
X31960357Y-31289095D01*
X31912738Y-31241476D01*
X31865119Y-31146238D01*
X31865119Y-30860523D01*
X31912738Y-30765285D01*
X31960357Y-30717666D01*
%TO.C,RV1*%
X66968761Y-73898380D02*
X66635428Y-73422190D01*
X66397333Y-73898380D02*
X66397333Y-72898380D01*
X66778285Y-72898380D01*
X66873523Y-72946000D01*
X66921142Y-72993619D01*
X66968761Y-73088857D01*
X66968761Y-73231714D01*
X66921142Y-73326952D01*
X66873523Y-73374571D01*
X66778285Y-73422190D01*
X66397333Y-73422190D01*
X67254476Y-72898380D02*
X67587809Y-73898380D01*
X67921142Y-72898380D01*
X68778285Y-73898380D02*
X68206857Y-73898380D01*
X68492571Y-73898380D02*
X68492571Y-72898380D01*
X68397333Y-73041238D01*
X68302095Y-73136476D01*
X68206857Y-73184095D01*
%TO.C,C1*%
X32726333Y-36933142D02*
X32678714Y-36980761D01*
X32535857Y-37028380D01*
X32440619Y-37028380D01*
X32297761Y-36980761D01*
X32202523Y-36885523D01*
X32154904Y-36790285D01*
X32107285Y-36599809D01*
X32107285Y-36456952D01*
X32154904Y-36266476D01*
X32202523Y-36171238D01*
X32297761Y-36076000D01*
X32440619Y-36028380D01*
X32535857Y-36028380D01*
X32678714Y-36076000D01*
X32726333Y-36123619D01*
X33678714Y-37028380D02*
X33107285Y-37028380D01*
X33393000Y-37028380D02*
X33393000Y-36028380D01*
X33297761Y-36171238D01*
X33202523Y-36266476D01*
X33107285Y-36314095D01*
%TO.C,J6*%
X75993666Y-34758380D02*
X75993666Y-35472666D01*
X75946047Y-35615523D01*
X75850809Y-35710761D01*
X75707952Y-35758380D01*
X75612714Y-35758380D01*
X76898428Y-34758380D02*
X76707952Y-34758380D01*
X76612714Y-34806000D01*
X76565095Y-34853619D01*
X76469857Y-34996476D01*
X76422238Y-35186952D01*
X76422238Y-35567904D01*
X76469857Y-35663142D01*
X76517476Y-35710761D01*
X76612714Y-35758380D01*
X76803190Y-35758380D01*
X76898428Y-35710761D01*
X76946047Y-35663142D01*
X76993666Y-35567904D01*
X76993666Y-35329809D01*
X76946047Y-35234571D01*
X76898428Y-35186952D01*
X76803190Y-35139333D01*
X76612714Y-35139333D01*
X76517476Y-35186952D01*
X76469857Y-35234571D01*
X76422238Y-35329809D01*
%TO.C,R5*%
X97591619Y-66000333D02*
X98067809Y-65667000D01*
X97591619Y-65428904D02*
X98591619Y-65428904D01*
X98591619Y-65809857D01*
X98544000Y-65905095D01*
X98496380Y-65952714D01*
X98401142Y-66000333D01*
X98258285Y-66000333D01*
X98163047Y-65952714D01*
X98115428Y-65905095D01*
X98067809Y-65809857D01*
X98067809Y-65428904D01*
X98591619Y-66905095D02*
X98591619Y-66428904D01*
X98115428Y-66381285D01*
X98163047Y-66428904D01*
X98210666Y-66524142D01*
X98210666Y-66762238D01*
X98163047Y-66857476D01*
X98115428Y-66905095D01*
X98020190Y-66952714D01*
X97782095Y-66952714D01*
X97686857Y-66905095D01*
X97639238Y-66857476D01*
X97591619Y-66762238D01*
X97591619Y-66524142D01*
X97639238Y-66428904D01*
X97686857Y-66381285D01*
%TO.C,C17*%
X102512857Y-33012142D02*
X102465238Y-32964523D01*
X102417619Y-32821666D01*
X102417619Y-32726428D01*
X102465238Y-32583571D01*
X102560476Y-32488333D01*
X102655714Y-32440714D01*
X102846190Y-32393095D01*
X102989047Y-32393095D01*
X103179523Y-32440714D01*
X103274761Y-32488333D01*
X103370000Y-32583571D01*
X103417619Y-32726428D01*
X103417619Y-32821666D01*
X103370000Y-32964523D01*
X103322380Y-33012142D01*
X102417619Y-33964523D02*
X102417619Y-33393095D01*
X102417619Y-33678809D02*
X103417619Y-33678809D01*
X103274761Y-33583571D01*
X103179523Y-33488333D01*
X103131904Y-33393095D01*
X103417619Y-34297857D02*
X103417619Y-34964523D01*
X102417619Y-34535952D01*
%TO.C,R3*%
X90479619Y-64730333D02*
X90955809Y-64397000D01*
X90479619Y-64158904D02*
X91479619Y-64158904D01*
X91479619Y-64539857D01*
X91432000Y-64635095D01*
X91384380Y-64682714D01*
X91289142Y-64730333D01*
X91146285Y-64730333D01*
X91051047Y-64682714D01*
X91003428Y-64635095D01*
X90955809Y-64539857D01*
X90955809Y-64158904D01*
X91479619Y-65063666D02*
X91479619Y-65682714D01*
X91098666Y-65349380D01*
X91098666Y-65492238D01*
X91051047Y-65587476D01*
X91003428Y-65635095D01*
X90908190Y-65682714D01*
X90670095Y-65682714D01*
X90574857Y-65635095D01*
X90527238Y-65587476D01*
X90479619Y-65492238D01*
X90479619Y-65206523D01*
X90527238Y-65111285D01*
X90574857Y-65063666D01*
%TO.C,D7*%
X132793333Y-72438380D02*
X132793333Y-71438380D01*
X133031429Y-71438380D01*
X133174286Y-71486000D01*
X133269524Y-71581238D01*
X133317143Y-71676476D01*
X133364762Y-71866952D01*
X133364762Y-72009809D01*
X133317143Y-72200285D01*
X133269524Y-72295523D01*
X133174286Y-72390761D01*
X133031429Y-72438380D01*
X132793333Y-72438380D01*
X133698095Y-71438380D02*
X134364762Y-71438380D01*
X133936190Y-72438380D01*
%TO.C,R26*%
X142709619Y-50919142D02*
X143185809Y-50585809D01*
X142709619Y-50347714D02*
X143709619Y-50347714D01*
X143709619Y-50728666D01*
X143662000Y-50823904D01*
X143614380Y-50871523D01*
X143519142Y-50919142D01*
X143376285Y-50919142D01*
X143281047Y-50871523D01*
X143233428Y-50823904D01*
X143185809Y-50728666D01*
X143185809Y-50347714D01*
X143614380Y-51300095D02*
X143662000Y-51347714D01*
X143709619Y-51442952D01*
X143709619Y-51681047D01*
X143662000Y-51776285D01*
X143614380Y-51823904D01*
X143519142Y-51871523D01*
X143423904Y-51871523D01*
X143281047Y-51823904D01*
X142709619Y-51252476D01*
X142709619Y-51871523D01*
X143709619Y-52728666D02*
X143709619Y-52538190D01*
X143662000Y-52442952D01*
X143614380Y-52395333D01*
X143471523Y-52300095D01*
X143281047Y-52252476D01*
X142900095Y-52252476D01*
X142804857Y-52300095D01*
X142757238Y-52347714D01*
X142709619Y-52442952D01*
X142709619Y-52633428D01*
X142757238Y-52728666D01*
X142804857Y-52776285D01*
X142900095Y-52823904D01*
X143138190Y-52823904D01*
X143233428Y-52776285D01*
X143281047Y-52728666D01*
X143328666Y-52633428D01*
X143328666Y-52442952D01*
X143281047Y-52347714D01*
X143233428Y-52300095D01*
X143138190Y-52252476D01*
%TO.C,U8*%
X118872095Y-46315380D02*
X118872095Y-47124904D01*
X118919714Y-47220142D01*
X118967333Y-47267761D01*
X119062571Y-47315380D01*
X119253047Y-47315380D01*
X119348285Y-47267761D01*
X119395904Y-47220142D01*
X119443523Y-47124904D01*
X119443523Y-46315380D01*
X120062571Y-46743952D02*
X119967333Y-46696333D01*
X119919714Y-46648714D01*
X119872095Y-46553476D01*
X119872095Y-46505857D01*
X119919714Y-46410619D01*
X119967333Y-46363000D01*
X120062571Y-46315380D01*
X120253047Y-46315380D01*
X120348285Y-46363000D01*
X120395904Y-46410619D01*
X120443523Y-46505857D01*
X120443523Y-46553476D01*
X120395904Y-46648714D01*
X120348285Y-46696333D01*
X120253047Y-46743952D01*
X120062571Y-46743952D01*
X119967333Y-46791571D01*
X119919714Y-46839190D01*
X119872095Y-46934428D01*
X119872095Y-47124904D01*
X119919714Y-47220142D01*
X119967333Y-47267761D01*
X120062571Y-47315380D01*
X120253047Y-47315380D01*
X120348285Y-47267761D01*
X120395904Y-47220142D01*
X120443523Y-47124904D01*
X120443523Y-46934428D01*
X120395904Y-46839190D01*
X120348285Y-46791571D01*
X120253047Y-46743952D01*
%TO.C,C4*%
X39584333Y-37187142D02*
X39536714Y-37234761D01*
X39393857Y-37282380D01*
X39298619Y-37282380D01*
X39155761Y-37234761D01*
X39060523Y-37139523D01*
X39012904Y-37044285D01*
X38965285Y-36853809D01*
X38965285Y-36710952D01*
X39012904Y-36520476D01*
X39060523Y-36425238D01*
X39155761Y-36330000D01*
X39298619Y-36282380D01*
X39393857Y-36282380D01*
X39536714Y-36330000D01*
X39584333Y-36377619D01*
X40441476Y-36615714D02*
X40441476Y-37282380D01*
X40203380Y-36234761D02*
X39965285Y-36949047D01*
X40584333Y-36949047D01*
%TO.C,C14*%
X89273142Y-53824142D02*
X89225523Y-53871761D01*
X89082666Y-53919380D01*
X88987428Y-53919380D01*
X88844571Y-53871761D01*
X88749333Y-53776523D01*
X88701714Y-53681285D01*
X88654095Y-53490809D01*
X88654095Y-53347952D01*
X88701714Y-53157476D01*
X88749333Y-53062238D01*
X88844571Y-52967000D01*
X88987428Y-52919380D01*
X89082666Y-52919380D01*
X89225523Y-52967000D01*
X89273142Y-53014619D01*
X90225523Y-53919380D02*
X89654095Y-53919380D01*
X89939809Y-53919380D02*
X89939809Y-52919380D01*
X89844571Y-53062238D01*
X89749333Y-53157476D01*
X89654095Y-53205095D01*
X91082666Y-53252714D02*
X91082666Y-53919380D01*
X90844571Y-52871761D02*
X90606476Y-53586047D01*
X91225523Y-53586047D01*
%TO.C,D5*%
X95056190Y-72438380D02*
X95056190Y-71438380D01*
X95294286Y-71438380D01*
X95437143Y-71486000D01*
X95532381Y-71581238D01*
X95580000Y-71676476D01*
X95627619Y-71866952D01*
X95627619Y-72009809D01*
X95580000Y-72200285D01*
X95532381Y-72295523D01*
X95437143Y-72390761D01*
X95294286Y-72438380D01*
X95056190Y-72438380D01*
X96532381Y-71438380D02*
X96056190Y-71438380D01*
X96008571Y-71914571D01*
X96056190Y-71866952D01*
X96151428Y-71819333D01*
X96389524Y-71819333D01*
X96484762Y-71866952D01*
X96532381Y-71914571D01*
X96580000Y-72009809D01*
X96580000Y-72247904D01*
X96532381Y-72343142D01*
X96484762Y-72390761D01*
X96389524Y-72438380D01*
X96151428Y-72438380D01*
X96056190Y-72390761D01*
X96008571Y-72343142D01*
%TO.C,SW2*%
X54292666Y-64920761D02*
X54435523Y-64968380D01*
X54673619Y-64968380D01*
X54768857Y-64920761D01*
X54816476Y-64873142D01*
X54864095Y-64777904D01*
X54864095Y-64682666D01*
X54816476Y-64587428D01*
X54768857Y-64539809D01*
X54673619Y-64492190D01*
X54483142Y-64444571D01*
X54387904Y-64396952D01*
X54340285Y-64349333D01*
X54292666Y-64254095D01*
X54292666Y-64158857D01*
X54340285Y-64063619D01*
X54387904Y-64016000D01*
X54483142Y-63968380D01*
X54721238Y-63968380D01*
X54864095Y-64016000D01*
X55197428Y-63968380D02*
X55435523Y-64968380D01*
X55626000Y-64254095D01*
X55816476Y-64968380D01*
X56054571Y-63968380D01*
X56387904Y-64063619D02*
X56435523Y-64016000D01*
X56530761Y-63968380D01*
X56768857Y-63968380D01*
X56864095Y-64016000D01*
X56911714Y-64063619D01*
X56959333Y-64158857D01*
X56959333Y-64254095D01*
X56911714Y-64396952D01*
X56340285Y-64968380D01*
X56959333Y-64968380D01*
%TO.C,FL1*%
X92605428Y-63396904D02*
X92605428Y-63063571D01*
X92081619Y-63063571D02*
X93081619Y-63063571D01*
X93081619Y-63539761D01*
X92081619Y-64396904D02*
X92081619Y-63920714D01*
X93081619Y-63920714D01*
X92081619Y-65254047D02*
X92081619Y-64682619D01*
X92081619Y-64968333D02*
X93081619Y-64968333D01*
X92938761Y-64873095D01*
X92843523Y-64777857D01*
X92795904Y-64682619D01*
%TO.C,R25*%
X79748142Y-40617380D02*
X79414809Y-40141190D01*
X79176714Y-40617380D02*
X79176714Y-39617380D01*
X79557666Y-39617380D01*
X79652904Y-39665000D01*
X79700523Y-39712619D01*
X79748142Y-39807857D01*
X79748142Y-39950714D01*
X79700523Y-40045952D01*
X79652904Y-40093571D01*
X79557666Y-40141190D01*
X79176714Y-40141190D01*
X80129095Y-39712619D02*
X80176714Y-39665000D01*
X80271952Y-39617380D01*
X80510047Y-39617380D01*
X80605285Y-39665000D01*
X80652904Y-39712619D01*
X80700523Y-39807857D01*
X80700523Y-39903095D01*
X80652904Y-40045952D01*
X80081476Y-40617380D01*
X80700523Y-40617380D01*
X81605285Y-39617380D02*
X81129095Y-39617380D01*
X81081476Y-40093571D01*
X81129095Y-40045952D01*
X81224333Y-39998333D01*
X81462428Y-39998333D01*
X81557666Y-40045952D01*
X81605285Y-40093571D01*
X81652904Y-40188809D01*
X81652904Y-40426904D01*
X81605285Y-40522142D01*
X81557666Y-40569761D01*
X81462428Y-40617380D01*
X81224333Y-40617380D01*
X81129095Y-40569761D01*
X81081476Y-40522142D01*
%TO.C,C12*%
X85338142Y-51157142D02*
X85290523Y-51204761D01*
X85147666Y-51252380D01*
X85052428Y-51252380D01*
X84909571Y-51204761D01*
X84814333Y-51109523D01*
X84766714Y-51014285D01*
X84719095Y-50823809D01*
X84719095Y-50680952D01*
X84766714Y-50490476D01*
X84814333Y-50395238D01*
X84909571Y-50300000D01*
X85052428Y-50252380D01*
X85147666Y-50252380D01*
X85290523Y-50300000D01*
X85338142Y-50347619D01*
X86290523Y-51252380D02*
X85719095Y-51252380D01*
X86004809Y-51252380D02*
X86004809Y-50252380D01*
X85909571Y-50395238D01*
X85814333Y-50490476D01*
X85719095Y-50538095D01*
X86671476Y-50347619D02*
X86719095Y-50300000D01*
X86814333Y-50252380D01*
X87052428Y-50252380D01*
X87147666Y-50300000D01*
X87195285Y-50347619D01*
X87242904Y-50442857D01*
X87242904Y-50538095D01*
X87195285Y-50680952D01*
X86623857Y-51252380D01*
X87242904Y-51252380D01*
%TO.C,R11*%
X111180619Y-63365142D02*
X111656809Y-63031809D01*
X111180619Y-62793714D02*
X112180619Y-62793714D01*
X112180619Y-63174666D01*
X112133000Y-63269904D01*
X112085380Y-63317523D01*
X111990142Y-63365142D01*
X111847285Y-63365142D01*
X111752047Y-63317523D01*
X111704428Y-63269904D01*
X111656809Y-63174666D01*
X111656809Y-62793714D01*
X111180619Y-64317523D02*
X111180619Y-63746095D01*
X111180619Y-64031809D02*
X112180619Y-64031809D01*
X112037761Y-63936571D01*
X111942523Y-63841333D01*
X111894904Y-63746095D01*
X111180619Y-65269904D02*
X111180619Y-64698476D01*
X111180619Y-64984190D02*
X112180619Y-64984190D01*
X112037761Y-64888952D01*
X111942523Y-64793714D01*
X111894904Y-64698476D01*
%TO.C,R19*%
X130421142Y-50236380D02*
X130087809Y-49760190D01*
X129849714Y-50236380D02*
X129849714Y-49236380D01*
X130230666Y-49236380D01*
X130325904Y-49284000D01*
X130373523Y-49331619D01*
X130421142Y-49426857D01*
X130421142Y-49569714D01*
X130373523Y-49664952D01*
X130325904Y-49712571D01*
X130230666Y-49760190D01*
X129849714Y-49760190D01*
X131373523Y-50236380D02*
X130802095Y-50236380D01*
X131087809Y-50236380D02*
X131087809Y-49236380D01*
X130992571Y-49379238D01*
X130897333Y-49474476D01*
X130802095Y-49522095D01*
X131849714Y-50236380D02*
X132040190Y-50236380D01*
X132135428Y-50188761D01*
X132183047Y-50141142D01*
X132278285Y-49998285D01*
X132325904Y-49807809D01*
X132325904Y-49426857D01*
X132278285Y-49331619D01*
X132230666Y-49284000D01*
X132135428Y-49236380D01*
X131944952Y-49236380D01*
X131849714Y-49284000D01*
X131802095Y-49331619D01*
X131754476Y-49426857D01*
X131754476Y-49664952D01*
X131802095Y-49760190D01*
X131849714Y-49807809D01*
X131944952Y-49855428D01*
X132135428Y-49855428D01*
X132230666Y-49807809D01*
X132278285Y-49760190D01*
X132325904Y-49664952D01*
%TO.C,C15*%
X86225142Y-63603142D02*
X86177523Y-63650761D01*
X86034666Y-63698380D01*
X85939428Y-63698380D01*
X85796571Y-63650761D01*
X85701333Y-63555523D01*
X85653714Y-63460285D01*
X85606095Y-63269809D01*
X85606095Y-63126952D01*
X85653714Y-62936476D01*
X85701333Y-62841238D01*
X85796571Y-62746000D01*
X85939428Y-62698380D01*
X86034666Y-62698380D01*
X86177523Y-62746000D01*
X86225142Y-62793619D01*
X87177523Y-63698380D02*
X86606095Y-63698380D01*
X86891809Y-63698380D02*
X86891809Y-62698380D01*
X86796571Y-62841238D01*
X86701333Y-62936476D01*
X86606095Y-62984095D01*
X88082285Y-62698380D02*
X87606095Y-62698380D01*
X87558476Y-63174571D01*
X87606095Y-63126952D01*
X87701333Y-63079333D01*
X87939428Y-63079333D01*
X88034666Y-63126952D01*
X88082285Y-63174571D01*
X88129904Y-63269809D01*
X88129904Y-63507904D01*
X88082285Y-63603142D01*
X88034666Y-63650761D01*
X87939428Y-63698380D01*
X87701333Y-63698380D01*
X87606095Y-63650761D01*
X87558476Y-63603142D01*
%TO.C,FB6*%
X82875428Y-35361666D02*
X82875428Y-35028333D01*
X82351619Y-35028333D02*
X83351619Y-35028333D01*
X83351619Y-35504523D01*
X82875428Y-36218809D02*
X82827809Y-36361666D01*
X82780190Y-36409285D01*
X82684952Y-36456904D01*
X82542095Y-36456904D01*
X82446857Y-36409285D01*
X82399238Y-36361666D01*
X82351619Y-36266428D01*
X82351619Y-35885476D01*
X83351619Y-35885476D01*
X83351619Y-36218809D01*
X83304000Y-36314047D01*
X83256380Y-36361666D01*
X83161142Y-36409285D01*
X83065904Y-36409285D01*
X82970666Y-36361666D01*
X82923047Y-36314047D01*
X82875428Y-36218809D01*
X82875428Y-35885476D01*
X83351619Y-37314047D02*
X83351619Y-37123571D01*
X83304000Y-37028333D01*
X83256380Y-36980714D01*
X83113523Y-36885476D01*
X82923047Y-36837857D01*
X82542095Y-36837857D01*
X82446857Y-36885476D01*
X82399238Y-36933095D01*
X82351619Y-37028333D01*
X82351619Y-37218809D01*
X82399238Y-37314047D01*
X82446857Y-37361666D01*
X82542095Y-37409285D01*
X82780190Y-37409285D01*
X82875428Y-37361666D01*
X82923047Y-37314047D01*
X82970666Y-37218809D01*
X82970666Y-37028333D01*
X82923047Y-36933095D01*
X82875428Y-36885476D01*
X82780190Y-36837857D01*
%TO.C,R8*%
X103973333Y-41473380D02*
X103640000Y-40997190D01*
X103401904Y-41473380D02*
X103401904Y-40473380D01*
X103782857Y-40473380D01*
X103878095Y-40521000D01*
X103925714Y-40568619D01*
X103973333Y-40663857D01*
X103973333Y-40806714D01*
X103925714Y-40901952D01*
X103878095Y-40949571D01*
X103782857Y-40997190D01*
X103401904Y-40997190D01*
X104544761Y-40901952D02*
X104449523Y-40854333D01*
X104401904Y-40806714D01*
X104354285Y-40711476D01*
X104354285Y-40663857D01*
X104401904Y-40568619D01*
X104449523Y-40521000D01*
X104544761Y-40473380D01*
X104735238Y-40473380D01*
X104830476Y-40521000D01*
X104878095Y-40568619D01*
X104925714Y-40663857D01*
X104925714Y-40711476D01*
X104878095Y-40806714D01*
X104830476Y-40854333D01*
X104735238Y-40901952D01*
X104544761Y-40901952D01*
X104449523Y-40949571D01*
X104401904Y-40997190D01*
X104354285Y-41092428D01*
X104354285Y-41282904D01*
X104401904Y-41378142D01*
X104449523Y-41425761D01*
X104544761Y-41473380D01*
X104735238Y-41473380D01*
X104830476Y-41425761D01*
X104878095Y-41378142D01*
X104925714Y-41282904D01*
X104925714Y-41092428D01*
X104878095Y-40997190D01*
X104830476Y-40949571D01*
X104735238Y-40901952D01*
D13*
%TO.C,U9*%
X129322000Y-49530000D02*
X129322000Y-48730000D01*
X129322000Y-49530000D02*
X129322000Y-50330000D01*
X126202000Y-49530000D02*
X126202000Y-48730000D01*
X126202000Y-49530000D02*
X126202000Y-51330000D01*
%TO.C,C2*%
X33039267Y-34669000D02*
X32746733Y-34669000D01*
X33039267Y-35689000D02*
X32746733Y-35689000D01*
%TO.C,C25*%
X97153000Y-45866267D02*
X97153000Y-45573733D01*
X98173000Y-45866267D02*
X98173000Y-45573733D01*
%TO.C,FB3*%
X86666000Y-35784758D02*
X86666000Y-36605242D01*
X85546000Y-35784758D02*
X85546000Y-36605242D01*
%TO.C,R21*%
X50546724Y-49388500D02*
X50037276Y-49388500D01*
X50546724Y-50433500D02*
X50037276Y-50433500D01*
%TO.C,C5*%
X37218252Y-39089000D02*
X36695748Y-39089000D01*
X37218252Y-37619000D02*
X36695748Y-37619000D01*
%TO.C,C6*%
X86125267Y-60454000D02*
X85832733Y-60454000D01*
X86125267Y-59434000D02*
X85832733Y-59434000D01*
%TO.C,FB5*%
X56163242Y-38048000D02*
X55342758Y-38048000D01*
X56163242Y-39168000D02*
X55342758Y-39168000D01*
%TO.C,D1*%
X28820500Y-29151000D02*
X26720500Y-29151000D01*
X28820500Y-31951000D02*
X27620500Y-31951000D01*
%TO.C,J7*%
X67277000Y-20059000D02*
X47277000Y-20059000D01*
X67277000Y-32559000D02*
X67277000Y-20059000D01*
X47277000Y-20059000D02*
X47277000Y-32559000D01*
%TO.C,R16*%
X23607500Y-30225276D02*
X23607500Y-30734724D01*
X24652500Y-30225276D02*
X24652500Y-30734724D01*
%TO.C,R15*%
X117206500Y-60705276D02*
X117206500Y-61214724D01*
X118251500Y-60705276D02*
X118251500Y-61214724D01*
%TO.C,D2*%
X36628571Y-74401000D02*
X36628571Y-77491000D01*
X42178571Y-75946462D02*
G75*
G03*
X36628571Y-74401170I-2990000J462D01*
G01*
X36628571Y-77490830D02*
G75*
G03*
X42178571Y-75945538I2560000J1544830D01*
G01*
X41688571Y-75946000D02*
G75*
G03*
X41688571Y-75946000I-2500000J0D01*
G01*
%TO.C,U5*%
X71882000Y-60042000D02*
X74082000Y-60042000D01*
X71882000Y-60042000D02*
X69682000Y-60042000D01*
X71882000Y-51972000D02*
X74082000Y-51972000D01*
X71882000Y-51972000D02*
X68282000Y-51972000D01*
%TO.C,R9*%
X101727724Y-41895500D02*
X101218276Y-41895500D01*
X101727724Y-42940500D02*
X101218276Y-42940500D01*
%TO.C,FB1*%
X89124758Y-60504000D02*
X89945242Y-60504000D01*
X89124758Y-59384000D02*
X89945242Y-59384000D01*
%TO.C,SW3*%
X43005000Y-56007000D02*
G75*
G03*
X43005000Y-56007000I-3000000J0D01*
G01*
%TO.C,C20*%
X69068733Y-50544000D02*
X69361267Y-50544000D01*
X69068733Y-51564000D02*
X69361267Y-51564000D01*
%TO.C,D8*%
X53685000Y-39227000D02*
X49785000Y-39227000D01*
X53685000Y-39227000D02*
X53685000Y-37227000D01*
X53685000Y-37227000D02*
X49785000Y-37227000D01*
%TO.C,C21*%
X67439000Y-62884267D02*
X67439000Y-62591733D01*
X66419000Y-62884267D02*
X66419000Y-62591733D01*
%TO.C,D6*%
X112102857Y-74401000D02*
X112102857Y-77491000D01*
X112102857Y-77490830D02*
G75*
G03*
X117652857Y-75945538I2560000J1544830D01*
G01*
X117652857Y-75946462D02*
G75*
G03*
X112102857Y-74401170I-2990000J462D01*
G01*
X117162857Y-75946000D02*
G75*
G03*
X117162857Y-75946000I-2500000J0D01*
G01*
%TO.C,R28*%
X25004500Y-30225276D02*
X25004500Y-30734724D01*
X26049500Y-30225276D02*
X26049500Y-30734724D01*
%TO.C,R18*%
X129031276Y-46213500D02*
X129540724Y-46213500D01*
X129031276Y-47258500D02*
X129540724Y-47258500D01*
%TO.C,C11*%
X96010000Y-59797733D02*
X96010000Y-60090267D01*
X97030000Y-59797733D02*
X97030000Y-60090267D01*
%TO.C,SW1*%
X24650000Y-79446000D02*
X26150000Y-79446000D01*
X22150000Y-73696000D02*
X22150000Y-78196000D01*
X28650000Y-78196000D02*
X28650000Y-73696000D01*
X26150000Y-72446000D02*
X24650000Y-72446000D01*
%TO.C,C13*%
X86127267Y-57529000D02*
X85834733Y-57529000D01*
X86127267Y-58549000D02*
X85834733Y-58549000D01*
%TO.C,R2*%
X92710724Y-45197500D02*
X92201276Y-45197500D01*
X92710724Y-46242500D02*
X92201276Y-46242500D01*
%TO.C,C23*%
X141418000Y-34337000D02*
X149158000Y-34337000D01*
X141418000Y-34337000D02*
X141418000Y-35701000D01*
X141418000Y-38213000D02*
X141418000Y-39577000D01*
X149158000Y-34337000D02*
X149158000Y-35701000D01*
X141418000Y-39577000D02*
X149158000Y-39577000D01*
X149158000Y-38213000D02*
X149158000Y-39577000D01*
%TO.C,R17*%
X104125500Y-37338724D02*
X104125500Y-36829276D01*
X105170500Y-37338724D02*
X105170500Y-36829276D01*
%TO.C,C16*%
X99185000Y-45866267D02*
X99185000Y-45573733D01*
X100205000Y-45866267D02*
X100205000Y-45573733D01*
%TO.C,C7*%
X98427000Y-59797733D02*
X98427000Y-60090267D01*
X97407000Y-59797733D02*
X97407000Y-60090267D01*
%TO.C,C22*%
X74695267Y-50544000D02*
X74402733Y-50544000D01*
X74695267Y-51564000D02*
X74402733Y-51564000D01*
%TO.C,R14*%
X115682500Y-60705276D02*
X115682500Y-61214724D01*
X116727500Y-60705276D02*
X116727500Y-61214724D01*
%TO.C,U4*%
X115570000Y-19939000D02*
X118110000Y-19939000D01*
X128270000Y-19939000D02*
X128270000Y-32639000D01*
X128270000Y-32639000D02*
X115570000Y-32639000D01*
X118110000Y-19939000D02*
X118110000Y-14859000D01*
X125730000Y-19939000D02*
X128270000Y-19939000D01*
X125730000Y-19939000D02*
X125730000Y-14859000D01*
X115570000Y-32639000D02*
X115570000Y-19939000D01*
%TO.C,R6*%
X93613500Y-59690724D02*
X93613500Y-59181276D01*
X92568500Y-59690724D02*
X92568500Y-59181276D01*
%TO.C,D4*%
X74365714Y-74401000D02*
X74365714Y-77491000D01*
X74365714Y-77490830D02*
G75*
G03*
X79915714Y-75945538I2560000J1544830D01*
G01*
X79915714Y-75946462D02*
G75*
G03*
X74365714Y-74401170I-2990000J462D01*
G01*
X79425714Y-75946000D02*
G75*
G03*
X79425714Y-75946000I-2500000J0D01*
G01*
%TO.C,R7*%
X101727724Y-39101500D02*
X101218276Y-39101500D01*
X101727724Y-40146500D02*
X101218276Y-40146500D01*
%TO.C,U3*%
X140263000Y-38568000D02*
X135063000Y-38568000D01*
X140263000Y-45038000D02*
X140263000Y-38568000D01*
X135063000Y-45038000D02*
X140263000Y-45038000D01*
X135063000Y-38568000D02*
X135063000Y-40803000D01*
X135063000Y-42803000D02*
X135063000Y-45038000D01*
X135063000Y-42803000D02*
G75*
G03*
X135063000Y-40803000I0J1000000D01*
G01*
%TO.C,U7*%
X60025000Y-47057000D02*
X60025000Y-64957000D01*
X62505000Y-62357000D02*
X62505000Y-64957000D01*
X62505000Y-64957000D02*
X60025000Y-64957000D01*
X65105000Y-64957000D02*
X63775000Y-64957000D01*
X65105000Y-62357000D02*
X62505000Y-62357000D01*
X65105000Y-62357000D02*
X65105000Y-47057000D01*
X65105000Y-63627000D02*
X65105000Y-64957000D01*
X65105000Y-47057000D02*
X60025000Y-47057000D01*
%TO.C,R20*%
X106948500Y-33909724D02*
X106948500Y-33400276D01*
X105903500Y-33909724D02*
X105903500Y-33400276D01*
%TO.C,C24*%
X107942748Y-49884000D02*
X108465252Y-49884000D01*
X107942748Y-48414000D02*
X108465252Y-48414000D01*
%TO.C,FB2*%
X89124758Y-57710000D02*
X89945242Y-57710000D01*
X89124758Y-56590000D02*
X89945242Y-56590000D01*
%TO.C,C26*%
X124733267Y-46992000D02*
X124440733Y-46992000D01*
X124733267Y-45972000D02*
X124440733Y-45972000D01*
%TO.C,R13*%
X115203500Y-60705276D02*
X115203500Y-61214724D01*
X114158500Y-60705276D02*
X114158500Y-61214724D01*
%TO.C,J3*%
X145985000Y-42109000D02*
X147315000Y-42109000D01*
X145985000Y-43439000D02*
X145985000Y-42109000D01*
X145985000Y-44709000D02*
X148585000Y-44709000D01*
X145985000Y-57469000D02*
X151185000Y-57469000D01*
X148585000Y-44709000D02*
X148585000Y-42109000D01*
X151185000Y-42109000D02*
X151185000Y-57469000D01*
X148585000Y-42109000D02*
X151185000Y-42109000D01*
X145985000Y-44709000D02*
X145985000Y-57469000D01*
%TO.C,R4*%
X102093500Y-60579724D02*
X102093500Y-60070276D01*
X103138500Y-60579724D02*
X103138500Y-60070276D01*
%TO.C,R1*%
X101727724Y-44337500D02*
X101218276Y-44337500D01*
X101727724Y-43292500D02*
X101218276Y-43292500D01*
%TO.C,U2*%
X91446000Y-48393000D02*
X92446000Y-48393000D01*
X100886000Y-57833000D02*
X100886000Y-48593000D01*
X100886000Y-48593000D02*
X91646000Y-48593000D01*
X91646000Y-57833000D02*
X100886000Y-57833000D01*
X91646000Y-48593000D02*
X91646000Y-57833000D01*
X91446000Y-49393000D02*
X91446000Y-48393000D01*
%TO.C,U6*%
X46285000Y-46856000D02*
X56565000Y-46856000D01*
X56565000Y-41556000D02*
X46285000Y-41556000D01*
X46285000Y-41556000D02*
X46285000Y-46856000D01*
X56565000Y-43206000D02*
X56565000Y-41556000D01*
X56565000Y-46856000D02*
X56565000Y-45206000D01*
X56565000Y-43206000D02*
G75*
G03*
X56565000Y-45206000I0J-1000000D01*
G01*
%TO.C,R23*%
X87249724Y-39257500D02*
X86740276Y-39257500D01*
X87249724Y-38212500D02*
X86740276Y-38212500D01*
%TO.C,J5*%
X149361000Y-20066000D02*
X149361000Y-23686000D01*
X134611000Y-23686000D02*
X134611000Y-20066000D01*
X134611000Y-20066000D02*
X149361000Y-20066000D01*
%TO.C,L1*%
X34469000Y-30196758D02*
X34469000Y-31017242D01*
X33349000Y-30196758D02*
X33349000Y-31017242D01*
%TO.C,U1*%
X39633000Y-34578000D02*
X39633000Y-35888000D01*
X39633000Y-31168000D02*
X39633000Y-32478000D01*
X36913000Y-31168000D02*
X39633000Y-31168000D01*
X39633000Y-35888000D02*
X36913000Y-35888000D01*
X35773000Y-31398000D02*
X36913000Y-31398000D01*
X36913000Y-35888000D02*
X36913000Y-35658000D01*
X36913000Y-31168000D02*
X36913000Y-31398000D01*
%TO.C,C8*%
X101729000Y-59797733D02*
X101729000Y-60090267D01*
X100709000Y-59797733D02*
X100709000Y-60090267D01*
%TO.C,C18*%
X53424233Y-50421000D02*
X53716767Y-50421000D01*
X53424233Y-49401000D02*
X53716767Y-49401000D01*
%TO.C,R27*%
X108458724Y-46975500D02*
X107949276Y-46975500D01*
X108458724Y-48020500D02*
X107949276Y-48020500D01*
%TO.C,Y1*%
X84331000Y-53245000D02*
X84331000Y-57245000D01*
X87631000Y-53245000D02*
X84331000Y-53245000D01*
%TO.C,R24*%
X55498276Y-37606500D02*
X56007724Y-37606500D01*
X55498276Y-36561500D02*
X56007724Y-36561500D01*
%TO.C,R12*%
X112634500Y-60705276D02*
X112634500Y-61214724D01*
X113679500Y-60705276D02*
X113679500Y-61214724D01*
%TO.C,C10*%
X100303000Y-59682748D02*
X100303000Y-60205252D01*
X98833000Y-59682748D02*
X98833000Y-60205252D01*
%TO.C,FB4*%
X55342758Y-35127000D02*
X56163242Y-35127000D01*
X55342758Y-36247000D02*
X56163242Y-36247000D01*
%TO.C,D3*%
X55497143Y-74401000D02*
X55497143Y-77491000D01*
X61047143Y-75946462D02*
G75*
G03*
X55497143Y-74401170I-2990000J462D01*
G01*
X55497143Y-77490830D02*
G75*
G03*
X61047143Y-75945538I2560000J1544830D01*
G01*
X60557143Y-75946000D02*
G75*
G03*
X60557143Y-75946000I-2500000J0D01*
G01*
%TO.C,J1*%
X24258500Y-27427000D02*
X24258500Y-20077000D01*
X24258500Y-20077000D02*
X33198500Y-20077000D01*
X33198500Y-27427000D02*
X33198500Y-20077000D01*
%TO.C,R22*%
X127634276Y-55484500D02*
X128143724Y-55484500D01*
X127634276Y-56529500D02*
X128143724Y-56529500D01*
%TO.C,R10*%
X109586500Y-60705276D02*
X109586500Y-61214724D01*
X110631500Y-60705276D02*
X110631500Y-61214724D01*
%TO.C,C9*%
X90045000Y-62210733D02*
X90045000Y-62503267D01*
X89025000Y-62210733D02*
X89025000Y-62503267D01*
%TO.C,C19*%
X74355000Y-38815000D02*
X66615000Y-38815000D01*
X66615000Y-34939000D02*
X66615000Y-33575000D01*
X74355000Y-33575000D02*
X66615000Y-33575000D01*
X66615000Y-38815000D02*
X66615000Y-37451000D01*
X74355000Y-38815000D02*
X74355000Y-37451000D01*
X74355000Y-34939000D02*
X74355000Y-33575000D01*
%TO.C,J2*%
X98056000Y-35075000D02*
X98056000Y-35641529D01*
X98816000Y-35075000D02*
X99576000Y-35075000D01*
X99379471Y-36965000D02*
X99511000Y-36965000D01*
X98056000Y-35075000D02*
X93041000Y-35075000D01*
X99511000Y-38605000D02*
X93041000Y-38605000D01*
X93041000Y-36512530D02*
X93041000Y-37167470D01*
X99511000Y-36965000D02*
X99511000Y-37167470D01*
X98109471Y-36965000D02*
X98252529Y-36965000D01*
X93041000Y-35075000D02*
X93041000Y-35897470D01*
X99511000Y-37782530D02*
X99511000Y-38605000D01*
X99576000Y-35075000D02*
X99576000Y-36205000D01*
X98056000Y-36768471D02*
X98056000Y-36911529D01*
X93041000Y-37782530D02*
X93041000Y-38605000D01*
%TO.C,J4*%
X101448000Y-16795000D02*
X107448000Y-16795000D01*
X101448000Y-19995000D02*
X101448000Y-16795000D01*
X109148000Y-19995000D02*
X109148000Y-30995000D01*
X100148000Y-30995000D02*
X100148000Y-19995000D01*
X100148000Y-19995000D02*
X101448000Y-19995000D01*
X107448000Y-19995000D02*
X109148000Y-19995000D01*
X107448000Y-16795000D02*
X107448000Y-19995000D01*
X109148000Y-30995000D02*
X100148000Y-30995000D01*
%TO.C,C3*%
X31397500Y-30404733D02*
X31397500Y-30697267D01*
X30377500Y-30404733D02*
X30377500Y-30697267D01*
%TO.C,RV1*%
X69464000Y-74346000D02*
X69464000Y-74946000D01*
X65464000Y-75746000D02*
X65464000Y-76146000D01*
X66564000Y-77546000D02*
X69464000Y-77546000D01*
X64964000Y-74146000D02*
X64964000Y-74846000D01*
X66564000Y-74346000D02*
X69464000Y-74346000D01*
X69464000Y-77546000D02*
X69464000Y-76946000D01*
X65664000Y-74146000D02*
X64964000Y-74146000D01*
%TO.C,C1*%
X33154252Y-32793000D02*
X32631748Y-32793000D01*
X33154252Y-34263000D02*
X32631748Y-34263000D01*
%TO.C,J6*%
X93693000Y-32559000D02*
X93693000Y-20059000D01*
X93693000Y-20059000D02*
X73693000Y-20059000D01*
X73693000Y-20059000D02*
X73693000Y-32559000D01*
%TO.C,R5*%
X95137500Y-59690724D02*
X95137500Y-59181276D01*
X94092500Y-59690724D02*
X94092500Y-59181276D01*
%TO.C,C17*%
X105383000Y-33916252D02*
X105383000Y-33393748D01*
X103913000Y-33916252D02*
X103913000Y-33393748D01*
%TO.C,R3*%
X90409500Y-62102276D02*
X90409500Y-62611724D01*
X91454500Y-62102276D02*
X91454500Y-62611724D01*
%TO.C,D7*%
X130971429Y-74401000D02*
X130971429Y-77491000D01*
X130971429Y-77490830D02*
G75*
G03*
X136521429Y-75945538I2560000J1544830D01*
G01*
X136521429Y-75946462D02*
G75*
G03*
X130971429Y-74401170I-2990000J462D01*
G01*
X136031429Y-75946000D02*
G75*
G03*
X136031429Y-75946000I-2500000J0D01*
G01*
%TO.C,R26*%
X141209500Y-51307276D02*
X141209500Y-51816724D01*
X142254500Y-51307276D02*
X142254500Y-51816724D01*
%TO.C,U8*%
X122174000Y-47762000D02*
X118724000Y-47762000D01*
X122174000Y-47762000D02*
X124124000Y-47762000D01*
X122174000Y-56632000D02*
X124124000Y-56632000D01*
X122174000Y-56632000D02*
X120224000Y-56632000D01*
%TO.C,C4*%
X37103267Y-37340000D02*
X36810733Y-37340000D01*
X37103267Y-36320000D02*
X36810733Y-36320000D01*
%TO.C,C14*%
X90062267Y-55374000D02*
X89769733Y-55374000D01*
X90062267Y-54354000D02*
X89769733Y-54354000D01*
%TO.C,D5*%
X93234286Y-74401000D02*
X93234286Y-77491000D01*
X93234286Y-77490830D02*
G75*
G03*
X98784286Y-75945538I2560000J1544830D01*
G01*
X98784286Y-75946462D02*
G75*
G03*
X93234286Y-74401170I-2990000J462D01*
G01*
X98294286Y-75946000D02*
G75*
G03*
X98294286Y-75946000I-2500000J0D01*
G01*
%TO.C,SW2*%
X52376000Y-57186000D02*
X52376000Y-61686000D01*
X54876000Y-62936000D02*
X56376000Y-62936000D01*
X58876000Y-61686000D02*
X58876000Y-57186000D01*
X56376000Y-55936000D02*
X54876000Y-55936000D01*
%TO.C,FL1*%
X95034000Y-63735000D02*
X95034000Y-64535000D01*
X93434000Y-64535000D02*
X93434000Y-63735000D01*
%TO.C,R25*%
X80645724Y-38212500D02*
X80136276Y-38212500D01*
X80645724Y-39257500D02*
X80136276Y-39257500D01*
%TO.C,C12*%
X86127267Y-52707000D02*
X85834733Y-52707000D01*
X86127267Y-51687000D02*
X85834733Y-51687000D01*
%TO.C,R11*%
X111110500Y-60705276D02*
X111110500Y-61214724D01*
X112155500Y-60705276D02*
X112155500Y-61214724D01*
%TO.C,R19*%
X131318724Y-48909500D02*
X130809276Y-48909500D01*
X131318724Y-47864500D02*
X130809276Y-47864500D01*
%TO.C,C15*%
X89681267Y-58037000D02*
X89388733Y-58037000D01*
X89681267Y-59057000D02*
X89388733Y-59057000D01*
%TO.C,FB6*%
X81840000Y-36605242D02*
X81840000Y-35784758D01*
X80720000Y-36605242D02*
X80720000Y-35784758D01*
%TO.C,R8*%
X101727724Y-40498500D02*
X101218276Y-40498500D01*
X101727724Y-41543500D02*
X101218276Y-41543500D01*
%TD*%
M02*
