%TF.GenerationSoftware,KiCad,Pcbnew,(6.0.6-0)*%
%TF.CreationDate,2022-08-05T12:00:24-07:00*%
%TF.ProjectId,Tesla Coil MIDI Synth,5465736c-6120-4436-9f69-6c204d494449,1*%
%TF.SameCoordinates,Original*%
%TF.FileFunction,Legend,Top*%
%TF.FilePolarity,Positive*%
%FSLAX46Y46*%
G04 Gerber Fmt 4.6, Leading zero omitted, Abs format (unit mm)*
G04 Created by KiCad (PCBNEW (6.0.6-0)) date 2022-08-05 12:00:24*
%MOMM*%
%LPD*%
G01*
G04 APERTURE LIST*
%ADD10C,0.150000*%
%ADD11C,0.300000*%
%ADD12C,0.254000*%
%ADD13C,0.120000*%
%ADD14C,0.151870*%
%ADD15C,0.303741*%
G04 APERTURE END LIST*
D10*
X52657952Y-27011380D02*
X52657952Y-27725666D01*
X52610333Y-27868523D01*
X52515095Y-27963761D01*
X52372238Y-28011380D01*
X52277000Y-28011380D01*
X53610333Y-28011380D02*
X53134142Y-28011380D01*
X53134142Y-27011380D01*
X54515095Y-27916142D02*
X54467476Y-27963761D01*
X54324619Y-28011380D01*
X54229380Y-28011380D01*
X54086523Y-27963761D01*
X53991285Y-27868523D01*
X53943666Y-27773285D01*
X53896047Y-27582809D01*
X53896047Y-27439952D01*
X53943666Y-27249476D01*
X53991285Y-27154238D01*
X54086523Y-27059000D01*
X54229380Y-27011380D01*
X54324619Y-27011380D01*
X54467476Y-27059000D01*
X54515095Y-27106619D01*
X55229380Y-27011380D02*
X55229380Y-27725666D01*
X55181761Y-27868523D01*
X55086523Y-27963761D01*
X54943666Y-28011380D01*
X54848428Y-28011380D01*
X56181761Y-28011380D02*
X55705571Y-28011380D01*
X55705571Y-27011380D01*
X57086523Y-27916142D02*
X57038904Y-27963761D01*
X56896047Y-28011380D01*
X56800809Y-28011380D01*
X56657952Y-27963761D01*
X56562714Y-27868523D01*
X56515095Y-27773285D01*
X56467476Y-27582809D01*
X56467476Y-27439952D01*
X56515095Y-27249476D01*
X56562714Y-27154238D01*
X56657952Y-27059000D01*
X56800809Y-27011380D01*
X56896047Y-27011380D01*
X57038904Y-27059000D01*
X57086523Y-27106619D01*
X57800809Y-27011380D02*
X57800809Y-27725666D01*
X57753190Y-27868523D01*
X57657952Y-27963761D01*
X57515095Y-28011380D01*
X57419857Y-28011380D01*
X58753190Y-28011380D02*
X58277000Y-28011380D01*
X58277000Y-27011380D01*
X59657952Y-27916142D02*
X59610333Y-27963761D01*
X59467476Y-28011380D01*
X59372238Y-28011380D01*
X59229380Y-27963761D01*
X59134142Y-27868523D01*
X59086523Y-27773285D01*
X59038904Y-27582809D01*
X59038904Y-27439952D01*
X59086523Y-27249476D01*
X59134142Y-27154238D01*
X59229380Y-27059000D01*
X59372238Y-27011380D01*
X59467476Y-27011380D01*
X59610333Y-27059000D01*
X59657952Y-27106619D01*
X60372238Y-27011380D02*
X60372238Y-27725666D01*
X60324619Y-27868523D01*
X60229380Y-27963761D01*
X60086523Y-28011380D01*
X59991285Y-28011380D01*
X61324619Y-28011380D02*
X60848428Y-28011380D01*
X60848428Y-27011380D01*
X62229380Y-27916142D02*
X62181761Y-27963761D01*
X62038904Y-28011380D01*
X61943666Y-28011380D01*
X61800809Y-27963761D01*
X61705571Y-27868523D01*
X61657952Y-27773285D01*
X61610333Y-27582809D01*
X61610333Y-27439952D01*
X61657952Y-27249476D01*
X61705571Y-27154238D01*
X61800809Y-27059000D01*
X61943666Y-27011380D01*
X62038904Y-27011380D01*
X62181761Y-27059000D01*
X62229380Y-27106619D01*
X98806000Y-67183000D02*
X95631000Y-67183000D01*
X95631000Y-67183000D02*
X95631000Y-65024000D01*
X85344000Y-60960000D02*
X88392000Y-60960000D01*
X95631000Y-65024000D02*
X98806000Y-65024000D01*
X88392000Y-60960000D02*
X89535000Y-60504000D01*
X95631000Y-65024000D02*
X95631000Y-59944000D01*
X85344000Y-65405000D02*
X85344000Y-60960000D01*
X95631000Y-59944000D02*
X95250000Y-59563000D01*
X98806000Y-65024000D02*
X98806000Y-67183000D01*
X88392000Y-60960000D02*
X88392000Y-65405000D01*
X88392000Y-65405000D02*
X85344000Y-65405000D01*
D11*
X45041428Y-20618142D02*
X46541428Y-20618142D01*
X45470000Y-21118142D01*
X46541428Y-21618142D01*
X45041428Y-21618142D01*
X45041428Y-22332428D02*
X46541428Y-22332428D01*
X45041428Y-23046714D02*
X46541428Y-23046714D01*
X46541428Y-23403857D01*
X46470000Y-23618142D01*
X46327142Y-23761000D01*
X46184285Y-23832428D01*
X45898571Y-23903857D01*
X45684285Y-23903857D01*
X45398571Y-23832428D01*
X45255714Y-23761000D01*
X45112857Y-23618142D01*
X45041428Y-23403857D01*
X45041428Y-23046714D01*
X45041428Y-24546714D02*
X46541428Y-24546714D01*
X45041428Y-26403857D02*
X46541428Y-26403857D01*
X46041428Y-27118142D02*
X45041428Y-27118142D01*
X45898571Y-27118142D02*
X45970000Y-27189571D01*
X46041428Y-27332428D01*
X46041428Y-27546714D01*
X45970000Y-27689571D01*
X45827142Y-27761000D01*
X45041428Y-27761000D01*
X63937000Y-79529714D02*
X63865571Y-79601142D01*
X63651285Y-79672571D01*
X63508428Y-79672571D01*
X63294142Y-79601142D01*
X63151285Y-79458285D01*
X63079857Y-79315428D01*
X63008428Y-79029714D01*
X63008428Y-78815428D01*
X63079857Y-78529714D01*
X63151285Y-78386857D01*
X63294142Y-78244000D01*
X63508428Y-78172571D01*
X63651285Y-78172571D01*
X63865571Y-78244000D01*
X63937000Y-78315428D01*
X64794142Y-79672571D02*
X64651285Y-79601142D01*
X64579857Y-79529714D01*
X64508428Y-79386857D01*
X64508428Y-78958285D01*
X64579857Y-78815428D01*
X64651285Y-78744000D01*
X64794142Y-78672571D01*
X65008428Y-78672571D01*
X65151285Y-78744000D01*
X65222714Y-78815428D01*
X65294142Y-78958285D01*
X65294142Y-79386857D01*
X65222714Y-79529714D01*
X65151285Y-79601142D01*
X65008428Y-79672571D01*
X64794142Y-79672571D01*
X65937000Y-78672571D02*
X65937000Y-79672571D01*
X65937000Y-78815428D02*
X66008428Y-78744000D01*
X66151285Y-78672571D01*
X66365571Y-78672571D01*
X66508428Y-78744000D01*
X66579857Y-78886857D01*
X66579857Y-79672571D01*
X67079857Y-78672571D02*
X67651285Y-78672571D01*
X67294142Y-78172571D02*
X67294142Y-79458285D01*
X67365571Y-79601142D01*
X67508428Y-79672571D01*
X67651285Y-79672571D01*
X68151285Y-79672571D02*
X68151285Y-78672571D01*
X68151285Y-78958285D02*
X68222714Y-78815428D01*
X68294142Y-78744000D01*
X68437000Y-78672571D01*
X68579857Y-78672571D01*
X69722714Y-79672571D02*
X69722714Y-78886857D01*
X69651285Y-78744000D01*
X69508428Y-78672571D01*
X69222714Y-78672571D01*
X69079857Y-78744000D01*
X69722714Y-79601142D02*
X69579857Y-79672571D01*
X69222714Y-79672571D01*
X69079857Y-79601142D01*
X69008428Y-79458285D01*
X69008428Y-79315428D01*
X69079857Y-79172571D01*
X69222714Y-79101142D01*
X69579857Y-79101142D01*
X69722714Y-79029714D01*
X70365571Y-79601142D02*
X70508428Y-79672571D01*
X70794142Y-79672571D01*
X70937000Y-79601142D01*
X71008428Y-79458285D01*
X71008428Y-79386857D01*
X70937000Y-79244000D01*
X70794142Y-79172571D01*
X70579857Y-79172571D01*
X70437000Y-79101142D01*
X70365571Y-78958285D01*
X70365571Y-78886857D01*
X70437000Y-78744000D01*
X70579857Y-78672571D01*
X70794142Y-78672571D01*
X70937000Y-78744000D01*
X71437000Y-78672571D02*
X72008428Y-78672571D01*
X71651285Y-78172571D02*
X71651285Y-79458285D01*
X71722714Y-79601142D01*
X71865571Y-79672571D01*
X72008428Y-79672571D01*
X147427142Y-55670142D02*
X147427142Y-56170142D01*
X146641428Y-56384428D02*
X146641428Y-55670142D01*
X148141428Y-55670142D01*
X148141428Y-56384428D01*
X146641428Y-56884428D02*
X147641428Y-57670142D01*
X147641428Y-56884428D02*
X146641428Y-57670142D01*
X147641428Y-58241571D02*
X146141428Y-58241571D01*
X147570000Y-58241571D02*
X147641428Y-58384428D01*
X147641428Y-58670142D01*
X147570000Y-58813000D01*
X147498571Y-58884428D01*
X147355714Y-58955857D01*
X146927142Y-58955857D01*
X146784285Y-58884428D01*
X146712857Y-58813000D01*
X146641428Y-58670142D01*
X146641428Y-58384428D01*
X146712857Y-58241571D01*
X146641428Y-60241571D02*
X147427142Y-60241571D01*
X147570000Y-60170142D01*
X147641428Y-60027285D01*
X147641428Y-59741571D01*
X147570000Y-59598714D01*
X146712857Y-60241571D02*
X146641428Y-60098714D01*
X146641428Y-59741571D01*
X146712857Y-59598714D01*
X146855714Y-59527285D01*
X146998571Y-59527285D01*
X147141428Y-59598714D01*
X147212857Y-59741571D01*
X147212857Y-60098714D01*
X147284285Y-60241571D01*
X147641428Y-60955857D02*
X146641428Y-60955857D01*
X147498571Y-60955857D02*
X147570000Y-61027285D01*
X147641428Y-61170142D01*
X147641428Y-61384428D01*
X147570000Y-61527285D01*
X147427142Y-61598714D01*
X146641428Y-61598714D01*
X146712857Y-62241571D02*
X146641428Y-62384428D01*
X146641428Y-62670142D01*
X146712857Y-62813000D01*
X146855714Y-62884428D01*
X146927142Y-62884428D01*
X147070000Y-62813000D01*
X147141428Y-62670142D01*
X147141428Y-62455857D01*
X147212857Y-62313000D01*
X147355714Y-62241571D01*
X147427142Y-62241571D01*
X147570000Y-62313000D01*
X147641428Y-62455857D01*
X147641428Y-62670142D01*
X147570000Y-62813000D01*
X146641428Y-63527285D02*
X147641428Y-63527285D01*
X148141428Y-63527285D02*
X148070000Y-63455857D01*
X147998571Y-63527285D01*
X148070000Y-63598714D01*
X148141428Y-63527285D01*
X147998571Y-63527285D01*
X146641428Y-64455857D02*
X146712857Y-64313000D01*
X146784285Y-64241571D01*
X146927142Y-64170142D01*
X147355714Y-64170142D01*
X147498571Y-64241571D01*
X147570000Y-64313000D01*
X147641428Y-64455857D01*
X147641428Y-64670142D01*
X147570000Y-64813000D01*
X147498571Y-64884428D01*
X147355714Y-64955857D01*
X146927142Y-64955857D01*
X146784285Y-64884428D01*
X146712857Y-64813000D01*
X146641428Y-64670142D01*
X146641428Y-64455857D01*
X147641428Y-65598714D02*
X146641428Y-65598714D01*
X147498571Y-65598714D02*
X147570000Y-65670142D01*
X147641428Y-65813000D01*
X147641428Y-66027285D01*
X147570000Y-66170142D01*
X147427142Y-66241571D01*
X146641428Y-66241571D01*
X71457428Y-20618142D02*
X72957428Y-20618142D01*
X71886000Y-21118142D01*
X72957428Y-21618142D01*
X71457428Y-21618142D01*
X71457428Y-22332428D02*
X72957428Y-22332428D01*
X71457428Y-23046714D02*
X72957428Y-23046714D01*
X72957428Y-23403857D01*
X72886000Y-23618142D01*
X72743142Y-23761000D01*
X72600285Y-23832428D01*
X72314571Y-23903857D01*
X72100285Y-23903857D01*
X71814571Y-23832428D01*
X71671714Y-23761000D01*
X71528857Y-23618142D01*
X71457428Y-23403857D01*
X71457428Y-23046714D01*
X71457428Y-24546714D02*
X72957428Y-24546714D01*
X72957428Y-26689571D02*
X72957428Y-26975285D01*
X72886000Y-27118142D01*
X72743142Y-27261000D01*
X72457428Y-27332428D01*
X71957428Y-27332428D01*
X71671714Y-27261000D01*
X71528857Y-27118142D01*
X71457428Y-26975285D01*
X71457428Y-26689571D01*
X71528857Y-26546714D01*
X71671714Y-26403857D01*
X71957428Y-26332428D01*
X72457428Y-26332428D01*
X72743142Y-26403857D01*
X72886000Y-26546714D01*
X72957428Y-26689571D01*
X72457428Y-28618142D02*
X71457428Y-28618142D01*
X72457428Y-27975285D02*
X71671714Y-27975285D01*
X71528857Y-28046714D01*
X71457428Y-28189571D01*
X71457428Y-28403857D01*
X71528857Y-28546714D01*
X71600285Y-28618142D01*
X72457428Y-29118142D02*
X72457428Y-29689571D01*
X72957428Y-29332428D02*
X71671714Y-29332428D01*
X71528857Y-29403857D01*
X71457428Y-29546714D01*
X71457428Y-29689571D01*
X97873428Y-20618142D02*
X99373428Y-20618142D01*
X98659142Y-20618142D02*
X98659142Y-21475285D01*
X97873428Y-21475285D02*
X99373428Y-21475285D01*
X97944857Y-22761000D02*
X97873428Y-22618142D01*
X97873428Y-22332428D01*
X97944857Y-22189571D01*
X98087714Y-22118142D01*
X98659142Y-22118142D01*
X98802000Y-22189571D01*
X98873428Y-22332428D01*
X98873428Y-22618142D01*
X98802000Y-22761000D01*
X98659142Y-22832428D01*
X98516285Y-22832428D01*
X98373428Y-22118142D01*
X97873428Y-24118142D02*
X98659142Y-24118142D01*
X98802000Y-24046714D01*
X98873428Y-23903857D01*
X98873428Y-23618142D01*
X98802000Y-23475285D01*
X97944857Y-24118142D02*
X97873428Y-23975285D01*
X97873428Y-23618142D01*
X97944857Y-23475285D01*
X98087714Y-23403857D01*
X98230571Y-23403857D01*
X98373428Y-23475285D01*
X98444857Y-23618142D01*
X98444857Y-23975285D01*
X98516285Y-24118142D01*
X97873428Y-25475285D02*
X99373428Y-25475285D01*
X97944857Y-25475285D02*
X97873428Y-25332428D01*
X97873428Y-25046714D01*
X97944857Y-24903857D01*
X98016285Y-24832428D01*
X98159142Y-24761000D01*
X98587714Y-24761000D01*
X98730571Y-24832428D01*
X98802000Y-24903857D01*
X98873428Y-25046714D01*
X98873428Y-25332428D01*
X98802000Y-25475285D01*
X98873428Y-26189571D02*
X97373428Y-26189571D01*
X98802000Y-26189571D02*
X98873428Y-26332428D01*
X98873428Y-26618142D01*
X98802000Y-26761000D01*
X98730571Y-26832428D01*
X98587714Y-26903857D01*
X98159142Y-26903857D01*
X98016285Y-26832428D01*
X97944857Y-26761000D01*
X97873428Y-26618142D01*
X97873428Y-26332428D01*
X97944857Y-26189571D01*
X97873428Y-27546714D02*
X99373428Y-27546714D01*
X97873428Y-28189571D02*
X98659142Y-28189571D01*
X98802000Y-28118142D01*
X98873428Y-27975285D01*
X98873428Y-27761000D01*
X98802000Y-27618142D01*
X98730571Y-27546714D01*
X97873428Y-29118142D02*
X97944857Y-28975285D01*
X98016285Y-28903857D01*
X98159142Y-28832428D01*
X98587714Y-28832428D01*
X98730571Y-28903857D01*
X98802000Y-28975285D01*
X98873428Y-29118142D01*
X98873428Y-29332428D01*
X98802000Y-29475285D01*
X98730571Y-29546714D01*
X98587714Y-29618142D01*
X98159142Y-29618142D01*
X98016285Y-29546714D01*
X97944857Y-29475285D01*
X97873428Y-29332428D01*
X97873428Y-29118142D01*
X98873428Y-30261000D02*
X97873428Y-30261000D01*
X98730571Y-30261000D02*
X98802000Y-30332428D01*
X98873428Y-30475285D01*
X98873428Y-30689571D01*
X98802000Y-30832428D01*
X98659142Y-30903857D01*
X97873428Y-30903857D01*
X97944857Y-32189571D02*
X97873428Y-32046714D01*
X97873428Y-31761000D01*
X97944857Y-31618142D01*
X98087714Y-31546714D01*
X98659142Y-31546714D01*
X98802000Y-31618142D01*
X98873428Y-31761000D01*
X98873428Y-32046714D01*
X98802000Y-32189571D01*
X98659142Y-32261000D01*
X98516285Y-32261000D01*
X98373428Y-31546714D01*
X97944857Y-32832428D02*
X97873428Y-32975285D01*
X97873428Y-33261000D01*
X97944857Y-33403857D01*
X98087714Y-33475285D01*
X98159142Y-33475285D01*
X98302000Y-33403857D01*
X98373428Y-33261000D01*
X98373428Y-33046714D01*
X98444857Y-32903857D01*
X98587714Y-32832428D01*
X98659142Y-32832428D01*
X98802000Y-32903857D01*
X98873428Y-33046714D01*
X98873428Y-33261000D01*
X98802000Y-33403857D01*
D12*
X31327876Y-50324052D02*
X31327876Y-51049766D01*
X30057876Y-50686909D02*
X31327876Y-50686909D01*
X30118352Y-51956909D02*
X30057876Y-51835957D01*
X30057876Y-51594052D01*
X30118352Y-51473100D01*
X30239304Y-51412623D01*
X30723114Y-51412623D01*
X30844066Y-51473100D01*
X30904542Y-51594052D01*
X30904542Y-51835957D01*
X30844066Y-51956909D01*
X30723114Y-52017385D01*
X30602161Y-52017385D01*
X30481209Y-51412623D01*
X30118352Y-52501195D02*
X30057876Y-52622147D01*
X30057876Y-52864052D01*
X30118352Y-52985004D01*
X30239304Y-53045480D01*
X30299780Y-53045480D01*
X30420733Y-52985004D01*
X30481209Y-52864052D01*
X30481209Y-52682623D01*
X30541685Y-52561671D01*
X30662638Y-52501195D01*
X30723114Y-52501195D01*
X30844066Y-52561671D01*
X30904542Y-52682623D01*
X30904542Y-52864052D01*
X30844066Y-52985004D01*
X30057876Y-53771195D02*
X30118352Y-53650242D01*
X30239304Y-53589766D01*
X31327876Y-53589766D01*
X30057876Y-54799290D02*
X30723114Y-54799290D01*
X30844066Y-54738814D01*
X30904542Y-54617861D01*
X30904542Y-54375957D01*
X30844066Y-54255004D01*
X30118352Y-54799290D02*
X30057876Y-54678338D01*
X30057876Y-54375957D01*
X30118352Y-54255004D01*
X30239304Y-54194528D01*
X30360257Y-54194528D01*
X30481209Y-54255004D01*
X30541685Y-54375957D01*
X30541685Y-54678338D01*
X30602161Y-54799290D01*
X30178828Y-57097385D02*
X30118352Y-57036909D01*
X30057876Y-56855480D01*
X30057876Y-56734528D01*
X30118352Y-56553100D01*
X30239304Y-56432147D01*
X30360257Y-56371671D01*
X30602161Y-56311195D01*
X30783590Y-56311195D01*
X31025495Y-56371671D01*
X31146447Y-56432147D01*
X31267400Y-56553100D01*
X31327876Y-56734528D01*
X31327876Y-56855480D01*
X31267400Y-57036909D01*
X31206923Y-57097385D01*
X30057876Y-57823100D02*
X30118352Y-57702147D01*
X30178828Y-57641671D01*
X30299780Y-57581195D01*
X30662638Y-57581195D01*
X30783590Y-57641671D01*
X30844066Y-57702147D01*
X30904542Y-57823100D01*
X30904542Y-58004528D01*
X30844066Y-58125480D01*
X30783590Y-58185957D01*
X30662638Y-58246433D01*
X30299780Y-58246433D01*
X30178828Y-58185957D01*
X30118352Y-58125480D01*
X30057876Y-58004528D01*
X30057876Y-57823100D01*
X30057876Y-58790719D02*
X30904542Y-58790719D01*
X31327876Y-58790719D02*
X31267400Y-58730242D01*
X31206923Y-58790719D01*
X31267400Y-58851195D01*
X31327876Y-58790719D01*
X31206923Y-58790719D01*
X30057876Y-59576909D02*
X30118352Y-59455957D01*
X30239304Y-59395480D01*
X31327876Y-59395480D01*
X28013176Y-50505480D02*
X29283176Y-50505480D01*
X28376033Y-50928814D01*
X29283176Y-51352147D01*
X28013176Y-51352147D01*
X28013176Y-51956909D02*
X29283176Y-51956909D01*
X28013176Y-52561671D02*
X29283176Y-52561671D01*
X29283176Y-52864052D01*
X29222700Y-53045480D01*
X29101747Y-53166433D01*
X28980795Y-53226909D01*
X28738890Y-53287385D01*
X28557461Y-53287385D01*
X28315557Y-53226909D01*
X28194604Y-53166433D01*
X28073652Y-53045480D01*
X28013176Y-52864052D01*
X28013176Y-52561671D01*
X28013176Y-53831671D02*
X29283176Y-53831671D01*
X28013176Y-55404052D02*
X29283176Y-55404052D01*
X28859842Y-56008814D02*
X28013176Y-56008814D01*
X28738890Y-56008814D02*
X28799366Y-56069290D01*
X28859842Y-56190242D01*
X28859842Y-56371671D01*
X28799366Y-56492623D01*
X28678414Y-56553100D01*
X28013176Y-56553100D01*
X28859842Y-56976433D02*
X28859842Y-57460242D01*
X29283176Y-57157861D02*
X28194604Y-57157861D01*
X28073652Y-57218338D01*
X28013176Y-57339290D01*
X28013176Y-57460242D01*
X28073652Y-58367385D02*
X28013176Y-58246433D01*
X28013176Y-58004528D01*
X28073652Y-57883576D01*
X28194604Y-57823100D01*
X28678414Y-57823100D01*
X28799366Y-57883576D01*
X28859842Y-58004528D01*
X28859842Y-58246433D01*
X28799366Y-58367385D01*
X28678414Y-58427861D01*
X28557461Y-58427861D01*
X28436509Y-57823100D01*
X28013176Y-58972147D02*
X28859842Y-58972147D01*
X28617938Y-58972147D02*
X28738890Y-59032623D01*
X28799366Y-59093100D01*
X28859842Y-59214052D01*
X28859842Y-59335004D01*
X28013176Y-59758338D02*
X28859842Y-59758338D01*
X28617938Y-59758338D02*
X28738890Y-59818814D01*
X28799366Y-59879290D01*
X28859842Y-60000242D01*
X28859842Y-60121195D01*
X28859842Y-61088814D02*
X28013176Y-61088814D01*
X28859842Y-60544528D02*
X28194604Y-60544528D01*
X28073652Y-60605004D01*
X28013176Y-60725957D01*
X28013176Y-60907385D01*
X28073652Y-61028338D01*
X28134128Y-61088814D01*
X28859842Y-61693576D02*
X27589842Y-61693576D01*
X28799366Y-61693576D02*
X28859842Y-61814528D01*
X28859842Y-62056433D01*
X28799366Y-62177385D01*
X28738890Y-62237861D01*
X28617938Y-62298338D01*
X28255080Y-62298338D01*
X28134128Y-62237861D01*
X28073652Y-62177385D01*
X28013176Y-62056433D01*
X28013176Y-61814528D01*
X28073652Y-61693576D01*
X28859842Y-62661195D02*
X28859842Y-63145004D01*
X29283176Y-62842623D02*
X28194604Y-62842623D01*
X28073652Y-62903100D01*
X28013176Y-63024052D01*
X28013176Y-63145004D01*
X28073652Y-64052147D02*
X28013176Y-63931195D01*
X28013176Y-63689290D01*
X28073652Y-63568338D01*
X28194604Y-63507861D01*
X28678414Y-63507861D01*
X28799366Y-63568338D01*
X28859842Y-63689290D01*
X28859842Y-63931195D01*
X28799366Y-64052147D01*
X28678414Y-64112623D01*
X28557461Y-64112623D01*
X28436509Y-63507861D01*
X28013176Y-64656909D02*
X28859842Y-64656909D01*
X28617938Y-64656909D02*
X28738890Y-64717385D01*
X28799366Y-64777861D01*
X28859842Y-64898814D01*
X28859842Y-65019766D01*
X27238476Y-50505480D02*
X26210380Y-50505480D01*
X26089428Y-50565957D01*
X26028952Y-50626433D01*
X25968476Y-50747385D01*
X25968476Y-50989290D01*
X26028952Y-51110242D01*
X26089428Y-51170719D01*
X26210380Y-51231195D01*
X27238476Y-51231195D01*
X26089428Y-52561671D02*
X26028952Y-52501195D01*
X25968476Y-52319766D01*
X25968476Y-52198814D01*
X26028952Y-52017385D01*
X26149904Y-51896433D01*
X26270857Y-51835957D01*
X26512761Y-51775480D01*
X26694190Y-51775480D01*
X26936095Y-51835957D01*
X27057047Y-51896433D01*
X27178000Y-52017385D01*
X27238476Y-52198814D01*
X27238476Y-52319766D01*
X27178000Y-52501195D01*
X27117523Y-52561671D01*
X26028952Y-53045480D02*
X25968476Y-53226909D01*
X25968476Y-53529290D01*
X26028952Y-53650242D01*
X26089428Y-53710719D01*
X26210380Y-53771195D01*
X26331333Y-53771195D01*
X26452285Y-53710719D01*
X26512761Y-53650242D01*
X26573238Y-53529290D01*
X26633714Y-53287385D01*
X26694190Y-53166433D01*
X26754666Y-53105957D01*
X26875619Y-53045480D01*
X26996571Y-53045480D01*
X27117523Y-53105957D01*
X27178000Y-53166433D01*
X27238476Y-53287385D01*
X27238476Y-53589766D01*
X27178000Y-53771195D01*
X26633714Y-54738814D02*
X26573238Y-54920242D01*
X26512761Y-54980719D01*
X26391809Y-55041195D01*
X26210380Y-55041195D01*
X26089428Y-54980719D01*
X26028952Y-54920242D01*
X25968476Y-54799290D01*
X25968476Y-54315480D01*
X27238476Y-54315480D01*
X27238476Y-54738814D01*
X27178000Y-54859766D01*
X27117523Y-54920242D01*
X26996571Y-54980719D01*
X26875619Y-54980719D01*
X26754666Y-54920242D01*
X26694190Y-54859766D01*
X26633714Y-54738814D01*
X26633714Y-54315480D01*
X25968476Y-56553100D02*
X27238476Y-56553100D01*
X26633714Y-57157861D02*
X26633714Y-57581195D01*
X25968476Y-57762623D02*
X25968476Y-57157861D01*
X27238476Y-57157861D01*
X27238476Y-57762623D01*
X26633714Y-58306909D02*
X26633714Y-58730242D01*
X25968476Y-58911671D02*
X25968476Y-58306909D01*
X27238476Y-58306909D01*
X27238476Y-58911671D01*
X26633714Y-59455957D02*
X26633714Y-59879290D01*
X25968476Y-60060719D02*
X25968476Y-59455957D01*
X27238476Y-59455957D01*
X27238476Y-60060719D01*
X23923776Y-50505480D02*
X25193776Y-50505480D01*
X25193776Y-50807861D01*
X25133300Y-50989290D01*
X25012347Y-51110242D01*
X24891395Y-51170719D01*
X24649490Y-51231195D01*
X24468061Y-51231195D01*
X24226157Y-51170719D01*
X24105204Y-51110242D01*
X23984252Y-50989290D01*
X23923776Y-50807861D01*
X23923776Y-50505480D01*
X23923776Y-52319766D02*
X24589014Y-52319766D01*
X24709966Y-52259290D01*
X24770442Y-52138338D01*
X24770442Y-51896433D01*
X24709966Y-51775480D01*
X23984252Y-52319766D02*
X23923776Y-52198814D01*
X23923776Y-51896433D01*
X23984252Y-51775480D01*
X24105204Y-51715004D01*
X24226157Y-51715004D01*
X24347109Y-51775480D01*
X24407585Y-51896433D01*
X24407585Y-52198814D01*
X24468061Y-52319766D01*
X24770442Y-52924528D02*
X23923776Y-52924528D01*
X24649490Y-52924528D02*
X24709966Y-52985004D01*
X24770442Y-53105957D01*
X24770442Y-53287385D01*
X24709966Y-53408338D01*
X24589014Y-53468814D01*
X23923776Y-53468814D01*
X23923776Y-54073576D02*
X24770442Y-54073576D01*
X25193776Y-54073576D02*
X25133300Y-54013100D01*
X25072823Y-54073576D01*
X25133300Y-54134052D01*
X25193776Y-54073576D01*
X25072823Y-54073576D01*
X23984252Y-55162147D02*
X23923776Y-55041195D01*
X23923776Y-54799290D01*
X23984252Y-54678338D01*
X24105204Y-54617861D01*
X24589014Y-54617861D01*
X24709966Y-54678338D01*
X24770442Y-54799290D01*
X24770442Y-55041195D01*
X24709966Y-55162147D01*
X24589014Y-55222623D01*
X24468061Y-55222623D01*
X24347109Y-54617861D01*
X23923776Y-55948338D02*
X23984252Y-55827385D01*
X24105204Y-55766909D01*
X25193776Y-55766909D01*
X25193776Y-57218338D02*
X23923776Y-57641671D01*
X25193776Y-58065004D01*
X23149076Y-50868338D02*
X22241933Y-50868338D01*
X22060504Y-50807861D01*
X21939552Y-50686909D01*
X21879076Y-50505480D01*
X21879076Y-50384528D01*
X22725742Y-52017385D02*
X21879076Y-52017385D01*
X22725742Y-51473100D02*
X22060504Y-51473100D01*
X21939552Y-51533576D01*
X21879076Y-51654528D01*
X21879076Y-51835957D01*
X21939552Y-51956909D01*
X22000028Y-52017385D01*
X21879076Y-52803576D02*
X21939552Y-52682623D01*
X22060504Y-52622147D01*
X23149076Y-52622147D01*
X22725742Y-53166433D02*
X21879076Y-53468814D01*
X22725742Y-53771195D02*
X21879076Y-53468814D01*
X21576695Y-53347861D01*
X21516219Y-53287385D01*
X21455742Y-53166433D01*
X23028123Y-55162147D02*
X23088600Y-55222623D01*
X23149076Y-55343576D01*
X23149076Y-55645957D01*
X23088600Y-55766909D01*
X23028123Y-55827385D01*
X22907171Y-55887861D01*
X22786219Y-55887861D01*
X22604790Y-55827385D01*
X21879076Y-55101671D01*
X21879076Y-55887861D01*
X23149076Y-56674052D02*
X23149076Y-56795004D01*
X23088600Y-56915957D01*
X23028123Y-56976433D01*
X22907171Y-57036909D01*
X22665266Y-57097385D01*
X22362885Y-57097385D01*
X22120980Y-57036909D01*
X22000028Y-56976433D01*
X21939552Y-56915957D01*
X21879076Y-56795004D01*
X21879076Y-56674052D01*
X21939552Y-56553100D01*
X22000028Y-56492623D01*
X22120980Y-56432147D01*
X22362885Y-56371671D01*
X22665266Y-56371671D01*
X22907171Y-56432147D01*
X23028123Y-56492623D01*
X23088600Y-56553100D01*
X23149076Y-56674052D01*
X23028123Y-57581195D02*
X23088600Y-57641671D01*
X23149076Y-57762623D01*
X23149076Y-58065004D01*
X23088600Y-58185957D01*
X23028123Y-58246433D01*
X22907171Y-58306909D01*
X22786219Y-58306909D01*
X22604790Y-58246433D01*
X21879076Y-57520719D01*
X21879076Y-58306909D01*
X23028123Y-58790719D02*
X23088600Y-58851195D01*
X23149076Y-58972147D01*
X23149076Y-59274528D01*
X23088600Y-59395480D01*
X23028123Y-59455957D01*
X22907171Y-59516433D01*
X22786219Y-59516433D01*
X22604790Y-59455957D01*
X21879076Y-58730242D01*
X21879076Y-59516433D01*
D11*
X52911714Y-53613857D02*
X53411714Y-53613857D01*
X53626000Y-54399571D02*
X52911714Y-54399571D01*
X52911714Y-52899571D01*
X53626000Y-52899571D01*
X54268857Y-54399571D02*
X54268857Y-53399571D01*
X54268857Y-53685285D02*
X54340285Y-53542428D01*
X54411714Y-53471000D01*
X54554571Y-53399571D01*
X54697428Y-53399571D01*
X55840285Y-54399571D02*
X55840285Y-53613857D01*
X55768857Y-53471000D01*
X55626000Y-53399571D01*
X55340285Y-53399571D01*
X55197428Y-53471000D01*
X55840285Y-54328142D02*
X55697428Y-54399571D01*
X55340285Y-54399571D01*
X55197428Y-54328142D01*
X55126000Y-54185285D01*
X55126000Y-54042428D01*
X55197428Y-53899571D01*
X55340285Y-53828142D01*
X55697428Y-53828142D01*
X55840285Y-53756714D01*
X56483142Y-54328142D02*
X56626000Y-54399571D01*
X56911714Y-54399571D01*
X57054571Y-54328142D01*
X57126000Y-54185285D01*
X57126000Y-54113857D01*
X57054571Y-53971000D01*
X56911714Y-53899571D01*
X56697428Y-53899571D01*
X56554571Y-53828142D01*
X56483142Y-53685285D01*
X56483142Y-53613857D01*
X56554571Y-53471000D01*
X56697428Y-53399571D01*
X56911714Y-53399571D01*
X57054571Y-53471000D01*
X58340285Y-54328142D02*
X58197428Y-54399571D01*
X57911714Y-54399571D01*
X57768857Y-54328142D01*
X57697428Y-54185285D01*
X57697428Y-53613857D01*
X57768857Y-53471000D01*
X57911714Y-53399571D01*
X58197428Y-53399571D01*
X58340285Y-53471000D01*
X58411714Y-53613857D01*
X58411714Y-53756714D01*
X57697428Y-53899571D01*
X23542857Y-71036571D02*
X23042857Y-70322285D01*
X22685714Y-71036571D02*
X22685714Y-69536571D01*
X23257142Y-69536571D01*
X23400000Y-69608000D01*
X23471428Y-69679428D01*
X23542857Y-69822285D01*
X23542857Y-70036571D01*
X23471428Y-70179428D01*
X23400000Y-70250857D01*
X23257142Y-70322285D01*
X22685714Y-70322285D01*
X24757142Y-70965142D02*
X24614285Y-71036571D01*
X24328571Y-71036571D01*
X24185714Y-70965142D01*
X24114285Y-70822285D01*
X24114285Y-70250857D01*
X24185714Y-70108000D01*
X24328571Y-70036571D01*
X24614285Y-70036571D01*
X24757142Y-70108000D01*
X24828571Y-70250857D01*
X24828571Y-70393714D01*
X24114285Y-70536571D01*
X25400000Y-70965142D02*
X25542857Y-71036571D01*
X25828571Y-71036571D01*
X25971428Y-70965142D01*
X26042857Y-70822285D01*
X26042857Y-70750857D01*
X25971428Y-70608000D01*
X25828571Y-70536571D01*
X25614285Y-70536571D01*
X25471428Y-70465142D01*
X25400000Y-70322285D01*
X25400000Y-70250857D01*
X25471428Y-70108000D01*
X25614285Y-70036571D01*
X25828571Y-70036571D01*
X25971428Y-70108000D01*
X27257142Y-70965142D02*
X27114285Y-71036571D01*
X26828571Y-71036571D01*
X26685714Y-70965142D01*
X26614285Y-70822285D01*
X26614285Y-70250857D01*
X26685714Y-70108000D01*
X26828571Y-70036571D01*
X27114285Y-70036571D01*
X27257142Y-70108000D01*
X27328571Y-70250857D01*
X27328571Y-70393714D01*
X26614285Y-70536571D01*
X27757142Y-70036571D02*
X28328571Y-70036571D01*
X27971428Y-69536571D02*
X27971428Y-70822285D01*
X28042857Y-70965142D01*
X28185714Y-71036571D01*
X28328571Y-71036571D01*
X132822142Y-20991142D02*
X132750714Y-21205428D01*
X132679285Y-21276857D01*
X132536428Y-21348285D01*
X132322142Y-21348285D01*
X132179285Y-21276857D01*
X132107857Y-21205428D01*
X132036428Y-21062571D01*
X132036428Y-20491142D01*
X133536428Y-20491142D01*
X133536428Y-20991142D01*
X133465000Y-21134000D01*
X133393571Y-21205428D01*
X133250714Y-21276857D01*
X133107857Y-21276857D01*
X132965000Y-21205428D01*
X132893571Y-21134000D01*
X132822142Y-20991142D01*
X132822142Y-20491142D01*
X132036428Y-21991142D02*
X133536428Y-21991142D01*
X132036428Y-22848285D01*
X133536428Y-22848285D01*
X132179285Y-24419714D02*
X132107857Y-24348285D01*
X132036428Y-24134000D01*
X132036428Y-23991142D01*
X132107857Y-23776857D01*
X132250714Y-23634000D01*
X132393571Y-23562571D01*
X132679285Y-23491142D01*
X132893571Y-23491142D01*
X133179285Y-23562571D01*
X133322142Y-23634000D01*
X133465000Y-23776857D01*
X133536428Y-23991142D01*
X133536428Y-24134000D01*
X133465000Y-24348285D01*
X133393571Y-24419714D01*
X94516000Y-39056571D02*
X94516000Y-40128000D01*
X94444571Y-40342285D01*
X94301714Y-40485142D01*
X94087428Y-40556571D01*
X93944571Y-40556571D01*
X95016000Y-39056571D02*
X95873142Y-39056571D01*
X95444571Y-40556571D02*
X95444571Y-39056571D01*
X96301714Y-40128000D02*
X97016000Y-40128000D01*
X96158857Y-40556571D02*
X96658857Y-39056571D01*
X97158857Y-40556571D01*
X98444571Y-39128000D02*
X98301714Y-39056571D01*
X98087428Y-39056571D01*
X97873142Y-39128000D01*
X97730285Y-39270857D01*
X97658857Y-39413714D01*
X97587428Y-39699428D01*
X97587428Y-39913714D01*
X97658857Y-40199428D01*
X97730285Y-40342285D01*
X97873142Y-40485142D01*
X98087428Y-40556571D01*
X98230285Y-40556571D01*
X98444571Y-40485142D01*
X98516000Y-40413714D01*
X98516000Y-39913714D01*
X98230285Y-39913714D01*
X113899142Y-20991142D02*
X113899142Y-20491142D01*
X113113428Y-20491142D02*
X114613428Y-20491142D01*
X114613428Y-21205428D01*
X113113428Y-21776857D02*
X114113428Y-21776857D01*
X114613428Y-21776857D02*
X114542000Y-21705428D01*
X114470571Y-21776857D01*
X114542000Y-21848285D01*
X114613428Y-21776857D01*
X114470571Y-21776857D01*
X113113428Y-22491142D02*
X114613428Y-22491142D01*
X114042000Y-22491142D02*
X114113428Y-22634000D01*
X114113428Y-22919714D01*
X114042000Y-23062571D01*
X113970571Y-23134000D01*
X113827714Y-23205428D01*
X113399142Y-23205428D01*
X113256285Y-23134000D01*
X113184857Y-23062571D01*
X113113428Y-22919714D01*
X113113428Y-22634000D01*
X113184857Y-22491142D01*
X113184857Y-24419714D02*
X113113428Y-24276857D01*
X113113428Y-23991142D01*
X113184857Y-23848285D01*
X113327714Y-23776857D01*
X113899142Y-23776857D01*
X114042000Y-23848285D01*
X114113428Y-23991142D01*
X114113428Y-24276857D01*
X114042000Y-24419714D01*
X113899142Y-24491142D01*
X113756285Y-24491142D01*
X113613428Y-23776857D01*
X113113428Y-25134000D02*
X114113428Y-25134000D01*
X113827714Y-25134000D02*
X113970571Y-25205428D01*
X114042000Y-25276857D01*
X114113428Y-25419714D01*
X114113428Y-25562571D01*
D10*
%TO.C,D14*%
X46283714Y-38552380D02*
X46283714Y-37552380D01*
X46521809Y-37552380D01*
X46664666Y-37600000D01*
X46759904Y-37695238D01*
X46807523Y-37790476D01*
X46855142Y-37980952D01*
X46855142Y-38123809D01*
X46807523Y-38314285D01*
X46759904Y-38409523D01*
X46664666Y-38504761D01*
X46521809Y-38552380D01*
X46283714Y-38552380D01*
X47807523Y-38552380D02*
X47236095Y-38552380D01*
X47521809Y-38552380D02*
X47521809Y-37552380D01*
X47426571Y-37695238D01*
X47331333Y-37790476D01*
X47236095Y-37838095D01*
X48664666Y-37885714D02*
X48664666Y-38552380D01*
X48426571Y-37504761D02*
X48188476Y-38219047D01*
X48807523Y-38219047D01*
%TO.C,C2*%
X32726333Y-38330142D02*
X32678714Y-38377761D01*
X32535857Y-38425380D01*
X32440619Y-38425380D01*
X32297761Y-38377761D01*
X32202523Y-38282523D01*
X32154904Y-38187285D01*
X32107285Y-37996809D01*
X32107285Y-37853952D01*
X32154904Y-37663476D01*
X32202523Y-37568238D01*
X32297761Y-37473000D01*
X32440619Y-37425380D01*
X32535857Y-37425380D01*
X32678714Y-37473000D01*
X32726333Y-37520619D01*
X33107285Y-37520619D02*
X33154904Y-37473000D01*
X33250142Y-37425380D01*
X33488238Y-37425380D01*
X33583476Y-37473000D01*
X33631095Y-37520619D01*
X33678714Y-37615857D01*
X33678714Y-37711095D01*
X33631095Y-37853952D01*
X33059666Y-38425380D01*
X33678714Y-38425380D01*
%TO.C,C25*%
X100734857Y-45331142D02*
X100687238Y-45283523D01*
X100639619Y-45140666D01*
X100639619Y-45045428D01*
X100687238Y-44902571D01*
X100782476Y-44807333D01*
X100877714Y-44759714D01*
X101068190Y-44712095D01*
X101211047Y-44712095D01*
X101401523Y-44759714D01*
X101496761Y-44807333D01*
X101592000Y-44902571D01*
X101639619Y-45045428D01*
X101639619Y-45140666D01*
X101592000Y-45283523D01*
X101544380Y-45331142D01*
X101544380Y-45712095D02*
X101592000Y-45759714D01*
X101639619Y-45854952D01*
X101639619Y-46093047D01*
X101592000Y-46188285D01*
X101544380Y-46235904D01*
X101449142Y-46283523D01*
X101353904Y-46283523D01*
X101211047Y-46235904D01*
X100639619Y-45664476D01*
X100639619Y-46283523D01*
X101639619Y-47188285D02*
X101639619Y-46712095D01*
X101163428Y-46664476D01*
X101211047Y-46712095D01*
X101258666Y-46807333D01*
X101258666Y-47045428D01*
X101211047Y-47140666D01*
X101163428Y-47188285D01*
X101068190Y-47235904D01*
X100830095Y-47235904D01*
X100734857Y-47188285D01*
X100687238Y-47140666D01*
X100639619Y-47045428D01*
X100639619Y-46807333D01*
X100687238Y-46712095D01*
X100734857Y-46664476D01*
%TO.C,FB3*%
X84653428Y-35361666D02*
X84653428Y-35028333D01*
X84129619Y-35028333D02*
X85129619Y-35028333D01*
X85129619Y-35504523D01*
X84653428Y-36218809D02*
X84605809Y-36361666D01*
X84558190Y-36409285D01*
X84462952Y-36456904D01*
X84320095Y-36456904D01*
X84224857Y-36409285D01*
X84177238Y-36361666D01*
X84129619Y-36266428D01*
X84129619Y-35885476D01*
X85129619Y-35885476D01*
X85129619Y-36218809D01*
X85082000Y-36314047D01*
X85034380Y-36361666D01*
X84939142Y-36409285D01*
X84843904Y-36409285D01*
X84748666Y-36361666D01*
X84701047Y-36314047D01*
X84653428Y-36218809D01*
X84653428Y-35885476D01*
X85129619Y-36790238D02*
X85129619Y-37409285D01*
X84748666Y-37075952D01*
X84748666Y-37218809D01*
X84701047Y-37314047D01*
X84653428Y-37361666D01*
X84558190Y-37409285D01*
X84320095Y-37409285D01*
X84224857Y-37361666D01*
X84177238Y-37314047D01*
X84129619Y-37218809D01*
X84129619Y-36933095D01*
X84177238Y-36837857D01*
X84224857Y-36790238D01*
%TO.C,R21*%
X56102642Y-51887380D02*
X55769309Y-51411190D01*
X55531214Y-51887380D02*
X55531214Y-50887380D01*
X55912166Y-50887380D01*
X56007404Y-50935000D01*
X56055023Y-50982619D01*
X56102642Y-51077857D01*
X56102642Y-51220714D01*
X56055023Y-51315952D01*
X56007404Y-51363571D01*
X55912166Y-51411190D01*
X55531214Y-51411190D01*
X56483595Y-50982619D02*
X56531214Y-50935000D01*
X56626452Y-50887380D01*
X56864547Y-50887380D01*
X56959785Y-50935000D01*
X57007404Y-50982619D01*
X57055023Y-51077857D01*
X57055023Y-51173095D01*
X57007404Y-51315952D01*
X56435976Y-51887380D01*
X57055023Y-51887380D01*
X58007404Y-51887380D02*
X57435976Y-51887380D01*
X57721690Y-51887380D02*
X57721690Y-50887380D01*
X57626452Y-51030238D01*
X57531214Y-51125476D01*
X57435976Y-51173095D01*
%TO.C,C5*%
X39584333Y-38711142D02*
X39536714Y-38758761D01*
X39393857Y-38806380D01*
X39298619Y-38806380D01*
X39155761Y-38758761D01*
X39060523Y-38663523D01*
X39012904Y-38568285D01*
X38965285Y-38377809D01*
X38965285Y-38234952D01*
X39012904Y-38044476D01*
X39060523Y-37949238D01*
X39155761Y-37854000D01*
X39298619Y-37806380D01*
X39393857Y-37806380D01*
X39536714Y-37854000D01*
X39584333Y-37901619D01*
X40489095Y-37806380D02*
X40012904Y-37806380D01*
X39965285Y-38282571D01*
X40012904Y-38234952D01*
X40108142Y-38187333D01*
X40346238Y-38187333D01*
X40441476Y-38234952D01*
X40489095Y-38282571D01*
X40536714Y-38377809D01*
X40536714Y-38615904D01*
X40489095Y-38711142D01*
X40441476Y-38758761D01*
X40346238Y-38806380D01*
X40108142Y-38806380D01*
X40012904Y-38758761D01*
X39965285Y-38711142D01*
%TO.C,C6*%
X83018333Y-60301142D02*
X82970714Y-60348761D01*
X82827857Y-60396380D01*
X82732619Y-60396380D01*
X82589761Y-60348761D01*
X82494523Y-60253523D01*
X82446904Y-60158285D01*
X82399285Y-59967809D01*
X82399285Y-59824952D01*
X82446904Y-59634476D01*
X82494523Y-59539238D01*
X82589761Y-59444000D01*
X82732619Y-59396380D01*
X82827857Y-59396380D01*
X82970714Y-59444000D01*
X83018333Y-59491619D01*
X83875476Y-59396380D02*
X83685000Y-59396380D01*
X83589761Y-59444000D01*
X83542142Y-59491619D01*
X83446904Y-59634476D01*
X83399285Y-59824952D01*
X83399285Y-60205904D01*
X83446904Y-60301142D01*
X83494523Y-60348761D01*
X83589761Y-60396380D01*
X83780238Y-60396380D01*
X83875476Y-60348761D01*
X83923095Y-60301142D01*
X83970714Y-60205904D01*
X83970714Y-59967809D01*
X83923095Y-59872571D01*
X83875476Y-59824952D01*
X83780238Y-59777333D01*
X83589761Y-59777333D01*
X83494523Y-59824952D01*
X83446904Y-59872571D01*
X83399285Y-59967809D01*
%TO.C,FB5*%
X58221666Y-38536571D02*
X57888333Y-38536571D01*
X57888333Y-39060380D02*
X57888333Y-38060380D01*
X58364523Y-38060380D01*
X59078809Y-38536571D02*
X59221666Y-38584190D01*
X59269285Y-38631809D01*
X59316904Y-38727047D01*
X59316904Y-38869904D01*
X59269285Y-38965142D01*
X59221666Y-39012761D01*
X59126428Y-39060380D01*
X58745476Y-39060380D01*
X58745476Y-38060380D01*
X59078809Y-38060380D01*
X59174047Y-38108000D01*
X59221666Y-38155619D01*
X59269285Y-38250857D01*
X59269285Y-38346095D01*
X59221666Y-38441333D01*
X59174047Y-38488952D01*
X59078809Y-38536571D01*
X58745476Y-38536571D01*
X60221666Y-38060380D02*
X59745476Y-38060380D01*
X59697857Y-38536571D01*
X59745476Y-38488952D01*
X59840714Y-38441333D01*
X60078809Y-38441333D01*
X60174047Y-38488952D01*
X60221666Y-38536571D01*
X60269285Y-38631809D01*
X60269285Y-38869904D01*
X60221666Y-38965142D01*
X60174047Y-39012761D01*
X60078809Y-39060380D01*
X59840714Y-39060380D01*
X59745476Y-39012761D01*
X59697857Y-38965142D01*
%TO.C,D1*%
X25101119Y-29812904D02*
X26101119Y-29812904D01*
X26101119Y-30051000D01*
X26053500Y-30193857D01*
X25958261Y-30289095D01*
X25863023Y-30336714D01*
X25672547Y-30384333D01*
X25529690Y-30384333D01*
X25339214Y-30336714D01*
X25243976Y-30289095D01*
X25148738Y-30193857D01*
X25101119Y-30051000D01*
X25101119Y-29812904D01*
X25101119Y-31336714D02*
X25101119Y-30765285D01*
X25101119Y-31051000D02*
X26101119Y-31051000D01*
X25958261Y-30955761D01*
X25863023Y-30860523D01*
X25815404Y-30765285D01*
%TO.C,J7*%
X48942666Y-34758380D02*
X48942666Y-35472666D01*
X48895047Y-35615523D01*
X48799809Y-35710761D01*
X48656952Y-35758380D01*
X48561714Y-35758380D01*
X49323619Y-34758380D02*
X49990285Y-34758380D01*
X49561714Y-35758380D01*
%TO.C,R16*%
X123055142Y-43886380D02*
X122721809Y-43410190D01*
X122483714Y-43886380D02*
X122483714Y-42886380D01*
X122864666Y-42886380D01*
X122959904Y-42934000D01*
X123007523Y-42981619D01*
X123055142Y-43076857D01*
X123055142Y-43219714D01*
X123007523Y-43314952D01*
X122959904Y-43362571D01*
X122864666Y-43410190D01*
X122483714Y-43410190D01*
X124007523Y-43886380D02*
X123436095Y-43886380D01*
X123721809Y-43886380D02*
X123721809Y-42886380D01*
X123626571Y-43029238D01*
X123531333Y-43124476D01*
X123436095Y-43172095D01*
X124864666Y-42886380D02*
X124674190Y-42886380D01*
X124578952Y-42934000D01*
X124531333Y-42981619D01*
X124436095Y-43124476D01*
X124388476Y-43314952D01*
X124388476Y-43695904D01*
X124436095Y-43791142D01*
X124483714Y-43838761D01*
X124578952Y-43886380D01*
X124769428Y-43886380D01*
X124864666Y-43838761D01*
X124912285Y-43791142D01*
X124959904Y-43695904D01*
X124959904Y-43457809D01*
X124912285Y-43362571D01*
X124864666Y-43314952D01*
X124769428Y-43267333D01*
X124578952Y-43267333D01*
X124483714Y-43314952D01*
X124436095Y-43362571D01*
X124388476Y-43457809D01*
%TO.C,R15*%
X117276619Y-63365142D02*
X117752809Y-63031809D01*
X117276619Y-62793714D02*
X118276619Y-62793714D01*
X118276619Y-63174666D01*
X118229000Y-63269904D01*
X118181380Y-63317523D01*
X118086142Y-63365142D01*
X117943285Y-63365142D01*
X117848047Y-63317523D01*
X117800428Y-63269904D01*
X117752809Y-63174666D01*
X117752809Y-62793714D01*
X117276619Y-64317523D02*
X117276619Y-63746095D01*
X117276619Y-64031809D02*
X118276619Y-64031809D01*
X118133761Y-63936571D01*
X118038523Y-63841333D01*
X117990904Y-63746095D01*
X118276619Y-65222285D02*
X118276619Y-64746095D01*
X117800428Y-64698476D01*
X117848047Y-64746095D01*
X117895666Y-64841333D01*
X117895666Y-65079428D01*
X117848047Y-65174666D01*
X117800428Y-65222285D01*
X117705190Y-65269904D01*
X117467095Y-65269904D01*
X117371857Y-65222285D01*
X117324238Y-65174666D01*
X117276619Y-65079428D01*
X117276619Y-64841333D01*
X117324238Y-64746095D01*
X117371857Y-64698476D01*
%TO.C,D2*%
X38450475Y-72438380D02*
X38450475Y-71438380D01*
X38688571Y-71438380D01*
X38831428Y-71486000D01*
X38926666Y-71581238D01*
X38974285Y-71676476D01*
X39021904Y-71866952D01*
X39021904Y-72009809D01*
X38974285Y-72200285D01*
X38926666Y-72295523D01*
X38831428Y-72390761D01*
X38688571Y-72438380D01*
X38450475Y-72438380D01*
X39402856Y-71533619D02*
X39450475Y-71486000D01*
X39545713Y-71438380D01*
X39783809Y-71438380D01*
X39879047Y-71486000D01*
X39926666Y-71533619D01*
X39974285Y-71628857D01*
X39974285Y-71724095D01*
X39926666Y-71866952D01*
X39355237Y-72438380D01*
X39974285Y-72438380D01*
%TO.C,U5*%
X71120095Y-50609380D02*
X71120095Y-51418904D01*
X71167714Y-51514142D01*
X71215333Y-51561761D01*
X71310571Y-51609380D01*
X71501047Y-51609380D01*
X71596285Y-51561761D01*
X71643904Y-51514142D01*
X71691523Y-51418904D01*
X71691523Y-50609380D01*
X72643904Y-50609380D02*
X72167714Y-50609380D01*
X72120095Y-51085571D01*
X72167714Y-51037952D01*
X72262952Y-50990333D01*
X72501047Y-50990333D01*
X72596285Y-51037952D01*
X72643904Y-51085571D01*
X72691523Y-51180809D01*
X72691523Y-51418904D01*
X72643904Y-51514142D01*
X72596285Y-51561761D01*
X72501047Y-51609380D01*
X72262952Y-51609380D01*
X72167714Y-51561761D01*
X72120095Y-51514142D01*
%TO.C,R9*%
X103973333Y-42870380D02*
X103640000Y-42394190D01*
X103401904Y-42870380D02*
X103401904Y-41870380D01*
X103782857Y-41870380D01*
X103878095Y-41918000D01*
X103925714Y-41965619D01*
X103973333Y-42060857D01*
X103973333Y-42203714D01*
X103925714Y-42298952D01*
X103878095Y-42346571D01*
X103782857Y-42394190D01*
X103401904Y-42394190D01*
X104449523Y-42870380D02*
X104640000Y-42870380D01*
X104735238Y-42822761D01*
X104782857Y-42775142D01*
X104878095Y-42632285D01*
X104925714Y-42441809D01*
X104925714Y-42060857D01*
X104878095Y-41965619D01*
X104830476Y-41918000D01*
X104735238Y-41870380D01*
X104544761Y-41870380D01*
X104449523Y-41918000D01*
X104401904Y-41965619D01*
X104354285Y-42060857D01*
X104354285Y-42298952D01*
X104401904Y-42394190D01*
X104449523Y-42441809D01*
X104544761Y-42489428D01*
X104735238Y-42489428D01*
X104830476Y-42441809D01*
X104878095Y-42394190D01*
X104925714Y-42298952D01*
%TO.C,FB1*%
X86034666Y-64571571D02*
X85701333Y-64571571D01*
X85701333Y-65095380D02*
X85701333Y-64095380D01*
X86177523Y-64095380D01*
X86891809Y-64571571D02*
X87034666Y-64619190D01*
X87082285Y-64666809D01*
X87129904Y-64762047D01*
X87129904Y-64904904D01*
X87082285Y-65000142D01*
X87034666Y-65047761D01*
X86939428Y-65095380D01*
X86558476Y-65095380D01*
X86558476Y-64095380D01*
X86891809Y-64095380D01*
X86987047Y-64143000D01*
X87034666Y-64190619D01*
X87082285Y-64285857D01*
X87082285Y-64381095D01*
X87034666Y-64476333D01*
X86987047Y-64523952D01*
X86891809Y-64571571D01*
X86558476Y-64571571D01*
X88082285Y-65095380D02*
X87510857Y-65095380D01*
X87796571Y-65095380D02*
X87796571Y-64095380D01*
X87701333Y-64238238D01*
X87606095Y-64333476D01*
X87510857Y-64381095D01*
%TO.C,Q1*%
X107854761Y-40171619D02*
X107759523Y-40124000D01*
X107664285Y-40028761D01*
X107521428Y-39885904D01*
X107426190Y-39838285D01*
X107330952Y-39838285D01*
X107378571Y-40076380D02*
X107283333Y-40028761D01*
X107188095Y-39933523D01*
X107140476Y-39743047D01*
X107140476Y-39409714D01*
X107188095Y-39219238D01*
X107283333Y-39124000D01*
X107378571Y-39076380D01*
X107569047Y-39076380D01*
X107664285Y-39124000D01*
X107759523Y-39219238D01*
X107807142Y-39409714D01*
X107807142Y-39743047D01*
X107759523Y-39933523D01*
X107664285Y-40028761D01*
X107569047Y-40076380D01*
X107378571Y-40076380D01*
X108759523Y-40076380D02*
X108188095Y-40076380D01*
X108473809Y-40076380D02*
X108473809Y-39076380D01*
X108378571Y-39219238D01*
X108283333Y-39314476D01*
X108188095Y-39362095D01*
%TO.C,SW3*%
X38671666Y-65936761D02*
X38814523Y-65984380D01*
X39052619Y-65984380D01*
X39147857Y-65936761D01*
X39195476Y-65889142D01*
X39243095Y-65793904D01*
X39243095Y-65698666D01*
X39195476Y-65603428D01*
X39147857Y-65555809D01*
X39052619Y-65508190D01*
X38862142Y-65460571D01*
X38766904Y-65412952D01*
X38719285Y-65365333D01*
X38671666Y-65270095D01*
X38671666Y-65174857D01*
X38719285Y-65079619D01*
X38766904Y-65032000D01*
X38862142Y-64984380D01*
X39100238Y-64984380D01*
X39243095Y-65032000D01*
X39576428Y-64984380D02*
X39814523Y-65984380D01*
X40005000Y-65270095D01*
X40195476Y-65984380D01*
X40433571Y-64984380D01*
X40719285Y-64984380D02*
X41338333Y-64984380D01*
X41005000Y-65365333D01*
X41147857Y-65365333D01*
X41243095Y-65412952D01*
X41290714Y-65460571D01*
X41338333Y-65555809D01*
X41338333Y-65793904D01*
X41290714Y-65889142D01*
X41243095Y-65936761D01*
X41147857Y-65984380D01*
X40862142Y-65984380D01*
X40766904Y-65936761D01*
X40719285Y-65889142D01*
%TO.C,C20*%
X68572142Y-49981142D02*
X68524523Y-50028761D01*
X68381666Y-50076380D01*
X68286428Y-50076380D01*
X68143571Y-50028761D01*
X68048333Y-49933523D01*
X68000714Y-49838285D01*
X67953095Y-49647809D01*
X67953095Y-49504952D01*
X68000714Y-49314476D01*
X68048333Y-49219238D01*
X68143571Y-49124000D01*
X68286428Y-49076380D01*
X68381666Y-49076380D01*
X68524523Y-49124000D01*
X68572142Y-49171619D01*
X68953095Y-49171619D02*
X69000714Y-49124000D01*
X69095952Y-49076380D01*
X69334047Y-49076380D01*
X69429285Y-49124000D01*
X69476904Y-49171619D01*
X69524523Y-49266857D01*
X69524523Y-49362095D01*
X69476904Y-49504952D01*
X68905476Y-50076380D01*
X69524523Y-50076380D01*
X70143571Y-49076380D02*
X70238809Y-49076380D01*
X70334047Y-49124000D01*
X70381666Y-49171619D01*
X70429285Y-49266857D01*
X70476904Y-49457333D01*
X70476904Y-49695428D01*
X70429285Y-49885904D01*
X70381666Y-49981142D01*
X70334047Y-50028761D01*
X70238809Y-50076380D01*
X70143571Y-50076380D01*
X70048333Y-50028761D01*
X70000714Y-49981142D01*
X69953095Y-49885904D01*
X69905476Y-49695428D01*
X69905476Y-49457333D01*
X69953095Y-49266857D01*
X70000714Y-49171619D01*
X70048333Y-49124000D01*
X70143571Y-49076380D01*
%TO.C,D8*%
X123340904Y-46045380D02*
X123340904Y-45045380D01*
X123579000Y-45045380D01*
X123721857Y-45093000D01*
X123817095Y-45188238D01*
X123864714Y-45283476D01*
X123912333Y-45473952D01*
X123912333Y-45616809D01*
X123864714Y-45807285D01*
X123817095Y-45902523D01*
X123721857Y-45997761D01*
X123579000Y-46045380D01*
X123340904Y-46045380D01*
X124483761Y-45473952D02*
X124388523Y-45426333D01*
X124340904Y-45378714D01*
X124293285Y-45283476D01*
X124293285Y-45235857D01*
X124340904Y-45140619D01*
X124388523Y-45093000D01*
X124483761Y-45045380D01*
X124674238Y-45045380D01*
X124769476Y-45093000D01*
X124817095Y-45140619D01*
X124864714Y-45235857D01*
X124864714Y-45283476D01*
X124817095Y-45378714D01*
X124769476Y-45426333D01*
X124674238Y-45473952D01*
X124483761Y-45473952D01*
X124388523Y-45521571D01*
X124340904Y-45569190D01*
X124293285Y-45664428D01*
X124293285Y-45854904D01*
X124340904Y-45950142D01*
X124388523Y-45997761D01*
X124483761Y-46045380D01*
X124674238Y-46045380D01*
X124769476Y-45997761D01*
X124817095Y-45950142D01*
X124864714Y-45854904D01*
X124864714Y-45664428D01*
X124817095Y-45569190D01*
X124769476Y-45521571D01*
X124674238Y-45473952D01*
%TO.C,C21*%
X68095857Y-62095142D02*
X68048238Y-62047523D01*
X68000619Y-61904666D01*
X68000619Y-61809428D01*
X68048238Y-61666571D01*
X68143476Y-61571333D01*
X68238714Y-61523714D01*
X68429190Y-61476095D01*
X68572047Y-61476095D01*
X68762523Y-61523714D01*
X68857761Y-61571333D01*
X68953000Y-61666571D01*
X69000619Y-61809428D01*
X69000619Y-61904666D01*
X68953000Y-62047523D01*
X68905380Y-62095142D01*
X68905380Y-62476095D02*
X68953000Y-62523714D01*
X69000619Y-62618952D01*
X69000619Y-62857047D01*
X68953000Y-62952285D01*
X68905380Y-62999904D01*
X68810142Y-63047523D01*
X68714904Y-63047523D01*
X68572047Y-62999904D01*
X68000619Y-62428476D01*
X68000619Y-63047523D01*
X68000619Y-63999904D02*
X68000619Y-63428476D01*
X68000619Y-63714190D02*
X69000619Y-63714190D01*
X68857761Y-63618952D01*
X68762523Y-63523714D01*
X68714904Y-63428476D01*
%TO.C,D6*%
X113924761Y-72438380D02*
X113924761Y-71438380D01*
X114162857Y-71438380D01*
X114305714Y-71486000D01*
X114400952Y-71581238D01*
X114448571Y-71676476D01*
X114496190Y-71866952D01*
X114496190Y-72009809D01*
X114448571Y-72200285D01*
X114400952Y-72295523D01*
X114305714Y-72390761D01*
X114162857Y-72438380D01*
X113924761Y-72438380D01*
X115353333Y-71438380D02*
X115162857Y-71438380D01*
X115067618Y-71486000D01*
X115019999Y-71533619D01*
X114924761Y-71676476D01*
X114877142Y-71866952D01*
X114877142Y-72247904D01*
X114924761Y-72343142D01*
X114972380Y-72390761D01*
X115067618Y-72438380D01*
X115258095Y-72438380D01*
X115353333Y-72390761D01*
X115400952Y-72343142D01*
X115448571Y-72247904D01*
X115448571Y-72009809D01*
X115400952Y-71914571D01*
X115353333Y-71866952D01*
X115258095Y-71819333D01*
X115067618Y-71819333D01*
X114972380Y-71866952D01*
X114924761Y-71914571D01*
X114877142Y-72009809D01*
%TO.C,R18*%
X121627619Y-34155142D02*
X122103809Y-33821809D01*
X121627619Y-33583714D02*
X122627619Y-33583714D01*
X122627619Y-33964666D01*
X122580000Y-34059904D01*
X122532380Y-34107523D01*
X122437142Y-34155142D01*
X122294285Y-34155142D01*
X122199047Y-34107523D01*
X122151428Y-34059904D01*
X122103809Y-33964666D01*
X122103809Y-33583714D01*
X121627619Y-35107523D02*
X121627619Y-34536095D01*
X121627619Y-34821809D02*
X122627619Y-34821809D01*
X122484761Y-34726571D01*
X122389523Y-34631333D01*
X122341904Y-34536095D01*
X122199047Y-35678952D02*
X122246666Y-35583714D01*
X122294285Y-35536095D01*
X122389523Y-35488476D01*
X122437142Y-35488476D01*
X122532380Y-35536095D01*
X122580000Y-35583714D01*
X122627619Y-35678952D01*
X122627619Y-35869428D01*
X122580000Y-35964666D01*
X122532380Y-36012285D01*
X122437142Y-36059904D01*
X122389523Y-36059904D01*
X122294285Y-36012285D01*
X122246666Y-35964666D01*
X122199047Y-35869428D01*
X122199047Y-35678952D01*
X122151428Y-35583714D01*
X122103809Y-35536095D01*
X122008571Y-35488476D01*
X121818095Y-35488476D01*
X121722857Y-35536095D01*
X121675238Y-35583714D01*
X121627619Y-35678952D01*
X121627619Y-35869428D01*
X121675238Y-35964666D01*
X121722857Y-36012285D01*
X121818095Y-36059904D01*
X122008571Y-36059904D01*
X122103809Y-36012285D01*
X122151428Y-35964666D01*
X122199047Y-35869428D01*
%TO.C,C11*%
X96162857Y-62349142D02*
X96115238Y-62301523D01*
X96067619Y-62158666D01*
X96067619Y-62063428D01*
X96115238Y-61920571D01*
X96210476Y-61825333D01*
X96305714Y-61777714D01*
X96496190Y-61730095D01*
X96639047Y-61730095D01*
X96829523Y-61777714D01*
X96924761Y-61825333D01*
X97020000Y-61920571D01*
X97067619Y-62063428D01*
X97067619Y-62158666D01*
X97020000Y-62301523D01*
X96972380Y-62349142D01*
X96067619Y-63301523D02*
X96067619Y-62730095D01*
X96067619Y-63015809D02*
X97067619Y-63015809D01*
X96924761Y-62920571D01*
X96829523Y-62825333D01*
X96781904Y-62730095D01*
X96067619Y-64253904D02*
X96067619Y-63682476D01*
X96067619Y-63968190D02*
X97067619Y-63968190D01*
X96924761Y-63872952D01*
X96829523Y-63777714D01*
X96781904Y-63682476D01*
%TO.C,Q2*%
X127793761Y-44756619D02*
X127698523Y-44709000D01*
X127603285Y-44613761D01*
X127460428Y-44470904D01*
X127365190Y-44423285D01*
X127269952Y-44423285D01*
X127317571Y-44661380D02*
X127222333Y-44613761D01*
X127127095Y-44518523D01*
X127079476Y-44328047D01*
X127079476Y-43994714D01*
X127127095Y-43804238D01*
X127222333Y-43709000D01*
X127317571Y-43661380D01*
X127508047Y-43661380D01*
X127603285Y-43709000D01*
X127698523Y-43804238D01*
X127746142Y-43994714D01*
X127746142Y-44328047D01*
X127698523Y-44518523D01*
X127603285Y-44613761D01*
X127508047Y-44661380D01*
X127317571Y-44661380D01*
X128127095Y-43756619D02*
X128174714Y-43709000D01*
X128269952Y-43661380D01*
X128508047Y-43661380D01*
X128603285Y-43709000D01*
X128650904Y-43756619D01*
X128698523Y-43851857D01*
X128698523Y-43947095D01*
X128650904Y-44089952D01*
X128079476Y-44661380D01*
X128698523Y-44661380D01*
%TO.C,SW1*%
X29313238Y-74612666D02*
X29265619Y-74755523D01*
X29265619Y-74993619D01*
X29313238Y-75088857D01*
X29360857Y-75136476D01*
X29456095Y-75184095D01*
X29551333Y-75184095D01*
X29646571Y-75136476D01*
X29694190Y-75088857D01*
X29741809Y-74993619D01*
X29789428Y-74803142D01*
X29837047Y-74707904D01*
X29884666Y-74660285D01*
X29979904Y-74612666D01*
X30075142Y-74612666D01*
X30170380Y-74660285D01*
X30218000Y-74707904D01*
X30265619Y-74803142D01*
X30265619Y-75041238D01*
X30218000Y-75184095D01*
X30265619Y-75517428D02*
X29265619Y-75755523D01*
X29979904Y-75946000D01*
X29265619Y-76136476D01*
X30265619Y-76374571D01*
X29265619Y-77279333D02*
X29265619Y-76707904D01*
X29265619Y-76993619D02*
X30265619Y-76993619D01*
X30122761Y-76898380D01*
X30027523Y-76803142D01*
X29979904Y-76707904D01*
%TO.C,C13*%
X82161142Y-58396142D02*
X82113523Y-58443761D01*
X81970666Y-58491380D01*
X81875428Y-58491380D01*
X81732571Y-58443761D01*
X81637333Y-58348523D01*
X81589714Y-58253285D01*
X81542095Y-58062809D01*
X81542095Y-57919952D01*
X81589714Y-57729476D01*
X81637333Y-57634238D01*
X81732571Y-57539000D01*
X81875428Y-57491380D01*
X81970666Y-57491380D01*
X82113523Y-57539000D01*
X82161142Y-57586619D01*
X83113523Y-58491380D02*
X82542095Y-58491380D01*
X82827809Y-58491380D02*
X82827809Y-57491380D01*
X82732571Y-57634238D01*
X82637333Y-57729476D01*
X82542095Y-57777095D01*
X83446857Y-57491380D02*
X84065904Y-57491380D01*
X83732571Y-57872333D01*
X83875428Y-57872333D01*
X83970666Y-57919952D01*
X84018285Y-57967571D01*
X84065904Y-58062809D01*
X84065904Y-58300904D01*
X84018285Y-58396142D01*
X83970666Y-58443761D01*
X83875428Y-58491380D01*
X83589714Y-58491380D01*
X83494476Y-58443761D01*
X83446857Y-58396142D01*
%TO.C,R2*%
X92289333Y-44775380D02*
X91956000Y-44299190D01*
X91717904Y-44775380D02*
X91717904Y-43775380D01*
X92098857Y-43775380D01*
X92194095Y-43823000D01*
X92241714Y-43870619D01*
X92289333Y-43965857D01*
X92289333Y-44108714D01*
X92241714Y-44203952D01*
X92194095Y-44251571D01*
X92098857Y-44299190D01*
X91717904Y-44299190D01*
X92670285Y-43870619D02*
X92717904Y-43823000D01*
X92813142Y-43775380D01*
X93051238Y-43775380D01*
X93146476Y-43823000D01*
X93194095Y-43870619D01*
X93241714Y-43965857D01*
X93241714Y-44061095D01*
X93194095Y-44203952D01*
X92622666Y-44775380D01*
X93241714Y-44775380D01*
%TO.C,D10*%
X123245714Y-50871380D02*
X123245714Y-49871380D01*
X123483809Y-49871380D01*
X123626666Y-49919000D01*
X123721904Y-50014238D01*
X123769523Y-50109476D01*
X123817142Y-50299952D01*
X123817142Y-50442809D01*
X123769523Y-50633285D01*
X123721904Y-50728523D01*
X123626666Y-50823761D01*
X123483809Y-50871380D01*
X123245714Y-50871380D01*
X124769523Y-50871380D02*
X124198095Y-50871380D01*
X124483809Y-50871380D02*
X124483809Y-49871380D01*
X124388571Y-50014238D01*
X124293333Y-50109476D01*
X124198095Y-50157095D01*
X125388571Y-49871380D02*
X125483809Y-49871380D01*
X125579047Y-49919000D01*
X125626666Y-49966619D01*
X125674285Y-50061857D01*
X125721904Y-50252333D01*
X125721904Y-50490428D01*
X125674285Y-50680904D01*
X125626666Y-50776142D01*
X125579047Y-50823761D01*
X125483809Y-50871380D01*
X125388571Y-50871380D01*
X125293333Y-50823761D01*
X125245714Y-50776142D01*
X125198095Y-50680904D01*
X125150476Y-50490428D01*
X125150476Y-50252333D01*
X125198095Y-50061857D01*
X125245714Y-49966619D01*
X125293333Y-49919000D01*
X125388571Y-49871380D01*
%TO.C,C23*%
X144645142Y-33631142D02*
X144597523Y-33678761D01*
X144454666Y-33726380D01*
X144359428Y-33726380D01*
X144216571Y-33678761D01*
X144121333Y-33583523D01*
X144073714Y-33488285D01*
X144026095Y-33297809D01*
X144026095Y-33154952D01*
X144073714Y-32964476D01*
X144121333Y-32869238D01*
X144216571Y-32774000D01*
X144359428Y-32726380D01*
X144454666Y-32726380D01*
X144597523Y-32774000D01*
X144645142Y-32821619D01*
X145026095Y-32821619D02*
X145073714Y-32774000D01*
X145168952Y-32726380D01*
X145407047Y-32726380D01*
X145502285Y-32774000D01*
X145549904Y-32821619D01*
X145597523Y-32916857D01*
X145597523Y-33012095D01*
X145549904Y-33154952D01*
X144978476Y-33726380D01*
X145597523Y-33726380D01*
X145930857Y-32726380D02*
X146549904Y-32726380D01*
X146216571Y-33107333D01*
X146359428Y-33107333D01*
X146454666Y-33154952D01*
X146502285Y-33202571D01*
X146549904Y-33297809D01*
X146549904Y-33535904D01*
X146502285Y-33631142D01*
X146454666Y-33678761D01*
X146359428Y-33726380D01*
X146073714Y-33726380D01*
X145978476Y-33678761D01*
X145930857Y-33631142D01*
%TO.C,R17*%
X103116142Y-38171380D02*
X102782809Y-37695190D01*
X102544714Y-38171380D02*
X102544714Y-37171380D01*
X102925666Y-37171380D01*
X103020904Y-37219000D01*
X103068523Y-37266619D01*
X103116142Y-37361857D01*
X103116142Y-37504714D01*
X103068523Y-37599952D01*
X103020904Y-37647571D01*
X102925666Y-37695190D01*
X102544714Y-37695190D01*
X104068523Y-38171380D02*
X103497095Y-38171380D01*
X103782809Y-38171380D02*
X103782809Y-37171380D01*
X103687571Y-37314238D01*
X103592333Y-37409476D01*
X103497095Y-37457095D01*
X104401857Y-37171380D02*
X105068523Y-37171380D01*
X104639952Y-38171380D01*
%TO.C,C16*%
X102131857Y-45331142D02*
X102084238Y-45283523D01*
X102036619Y-45140666D01*
X102036619Y-45045428D01*
X102084238Y-44902571D01*
X102179476Y-44807333D01*
X102274714Y-44759714D01*
X102465190Y-44712095D01*
X102608047Y-44712095D01*
X102798523Y-44759714D01*
X102893761Y-44807333D01*
X102989000Y-44902571D01*
X103036619Y-45045428D01*
X103036619Y-45140666D01*
X102989000Y-45283523D01*
X102941380Y-45331142D01*
X102036619Y-46283523D02*
X102036619Y-45712095D01*
X102036619Y-45997809D02*
X103036619Y-45997809D01*
X102893761Y-45902571D01*
X102798523Y-45807333D01*
X102750904Y-45712095D01*
X103036619Y-47140666D02*
X103036619Y-46950190D01*
X102989000Y-46854952D01*
X102941380Y-46807333D01*
X102798523Y-46712095D01*
X102608047Y-46664476D01*
X102227095Y-46664476D01*
X102131857Y-46712095D01*
X102084238Y-46759714D01*
X102036619Y-46854952D01*
X102036619Y-47045428D01*
X102084238Y-47140666D01*
X102131857Y-47188285D01*
X102227095Y-47235904D01*
X102465190Y-47235904D01*
X102560428Y-47188285D01*
X102608047Y-47140666D01*
X102655666Y-47045428D01*
X102655666Y-46854952D01*
X102608047Y-46759714D01*
X102560428Y-46712095D01*
X102465190Y-46664476D01*
%TO.C,C7*%
X97559857Y-62444333D02*
X97512238Y-62396714D01*
X97464619Y-62253857D01*
X97464619Y-62158619D01*
X97512238Y-62015761D01*
X97607476Y-61920523D01*
X97702714Y-61872904D01*
X97893190Y-61825285D01*
X98036047Y-61825285D01*
X98226523Y-61872904D01*
X98321761Y-61920523D01*
X98417000Y-62015761D01*
X98464619Y-62158619D01*
X98464619Y-62253857D01*
X98417000Y-62396714D01*
X98369380Y-62444333D01*
X98464619Y-62777666D02*
X98464619Y-63444333D01*
X97464619Y-63015761D01*
%TO.C,C22*%
X73906142Y-50014142D02*
X73858523Y-50061761D01*
X73715666Y-50109380D01*
X73620428Y-50109380D01*
X73477571Y-50061761D01*
X73382333Y-49966523D01*
X73334714Y-49871285D01*
X73287095Y-49680809D01*
X73287095Y-49537952D01*
X73334714Y-49347476D01*
X73382333Y-49252238D01*
X73477571Y-49157000D01*
X73620428Y-49109380D01*
X73715666Y-49109380D01*
X73858523Y-49157000D01*
X73906142Y-49204619D01*
X74287095Y-49204619D02*
X74334714Y-49157000D01*
X74429952Y-49109380D01*
X74668047Y-49109380D01*
X74763285Y-49157000D01*
X74810904Y-49204619D01*
X74858523Y-49299857D01*
X74858523Y-49395095D01*
X74810904Y-49537952D01*
X74239476Y-50109380D01*
X74858523Y-50109380D01*
X75239476Y-49204619D02*
X75287095Y-49157000D01*
X75382333Y-49109380D01*
X75620428Y-49109380D01*
X75715666Y-49157000D01*
X75763285Y-49204619D01*
X75810904Y-49299857D01*
X75810904Y-49395095D01*
X75763285Y-49537952D01*
X75191857Y-50109380D01*
X75810904Y-50109380D01*
%TO.C,R14*%
X115752619Y-63365142D02*
X116228809Y-63031809D01*
X115752619Y-62793714D02*
X116752619Y-62793714D01*
X116752619Y-63174666D01*
X116705000Y-63269904D01*
X116657380Y-63317523D01*
X116562142Y-63365142D01*
X116419285Y-63365142D01*
X116324047Y-63317523D01*
X116276428Y-63269904D01*
X116228809Y-63174666D01*
X116228809Y-62793714D01*
X115752619Y-64317523D02*
X115752619Y-63746095D01*
X115752619Y-64031809D02*
X116752619Y-64031809D01*
X116609761Y-63936571D01*
X116514523Y-63841333D01*
X116466904Y-63746095D01*
X116419285Y-65174666D02*
X115752619Y-65174666D01*
X116800238Y-64936571D02*
X116085952Y-64698476D01*
X116085952Y-65317523D01*
%TO.C,U4*%
X115697095Y-33234380D02*
X115697095Y-34043904D01*
X115744714Y-34139142D01*
X115792333Y-34186761D01*
X115887571Y-34234380D01*
X116078047Y-34234380D01*
X116173285Y-34186761D01*
X116220904Y-34139142D01*
X116268523Y-34043904D01*
X116268523Y-33234380D01*
X117173285Y-33567714D02*
X117173285Y-34234380D01*
X116935190Y-33186761D02*
X116697095Y-33901047D01*
X117316142Y-33901047D01*
%TO.C,R6*%
X96067619Y-66000333D02*
X96543809Y-65667000D01*
X96067619Y-65428904D02*
X97067619Y-65428904D01*
X97067619Y-65809857D01*
X97020000Y-65905095D01*
X96972380Y-65952714D01*
X96877142Y-66000333D01*
X96734285Y-66000333D01*
X96639047Y-65952714D01*
X96591428Y-65905095D01*
X96543809Y-65809857D01*
X96543809Y-65428904D01*
X97067619Y-66857476D02*
X97067619Y-66667000D01*
X97020000Y-66571761D01*
X96972380Y-66524142D01*
X96829523Y-66428904D01*
X96639047Y-66381285D01*
X96258095Y-66381285D01*
X96162857Y-66428904D01*
X96115238Y-66476523D01*
X96067619Y-66571761D01*
X96067619Y-66762238D01*
X96115238Y-66857476D01*
X96162857Y-66905095D01*
X96258095Y-66952714D01*
X96496190Y-66952714D01*
X96591428Y-66905095D01*
X96639047Y-66857476D01*
X96686666Y-66762238D01*
X96686666Y-66571761D01*
X96639047Y-66476523D01*
X96591428Y-66428904D01*
X96496190Y-66381285D01*
%TO.C,D4*%
X76187618Y-72438380D02*
X76187618Y-71438380D01*
X76425714Y-71438380D01*
X76568571Y-71486000D01*
X76663809Y-71581238D01*
X76711428Y-71676476D01*
X76759047Y-71866952D01*
X76759047Y-72009809D01*
X76711428Y-72200285D01*
X76663809Y-72295523D01*
X76568571Y-72390761D01*
X76425714Y-72438380D01*
X76187618Y-72438380D01*
X77616190Y-71771714D02*
X77616190Y-72438380D01*
X77378094Y-71390761D02*
X77139999Y-72105047D01*
X77759047Y-72105047D01*
%TO.C,R7*%
X103973333Y-40076380D02*
X103640000Y-39600190D01*
X103401904Y-40076380D02*
X103401904Y-39076380D01*
X103782857Y-39076380D01*
X103878095Y-39124000D01*
X103925714Y-39171619D01*
X103973333Y-39266857D01*
X103973333Y-39409714D01*
X103925714Y-39504952D01*
X103878095Y-39552571D01*
X103782857Y-39600190D01*
X103401904Y-39600190D01*
X104306666Y-39076380D02*
X104973333Y-39076380D01*
X104544761Y-40076380D01*
%TO.C,U3*%
X134659619Y-43180095D02*
X133850095Y-43180095D01*
X133754857Y-43227714D01*
X133707238Y-43275333D01*
X133659619Y-43370571D01*
X133659619Y-43561047D01*
X133707238Y-43656285D01*
X133754857Y-43703904D01*
X133850095Y-43751523D01*
X134659619Y-43751523D01*
X134659619Y-44132476D02*
X134659619Y-44751523D01*
X134278666Y-44418190D01*
X134278666Y-44561047D01*
X134231047Y-44656285D01*
X134183428Y-44703904D01*
X134088190Y-44751523D01*
X133850095Y-44751523D01*
X133754857Y-44703904D01*
X133707238Y-44656285D01*
X133659619Y-44561047D01*
X133659619Y-44275333D01*
X133707238Y-44180095D01*
X133754857Y-44132476D01*
%TO.C,U7*%
X61743095Y-65409380D02*
X61743095Y-66218904D01*
X61790714Y-66314142D01*
X61838333Y-66361761D01*
X61933571Y-66409380D01*
X62124047Y-66409380D01*
X62219285Y-66361761D01*
X62266904Y-66314142D01*
X62314523Y-66218904D01*
X62314523Y-65409380D01*
X62695476Y-65409380D02*
X63362142Y-65409380D01*
X62933571Y-66409380D01*
%TO.C,R20*%
X107497619Y-33012142D02*
X107973809Y-32678809D01*
X107497619Y-32440714D02*
X108497619Y-32440714D01*
X108497619Y-32821666D01*
X108450000Y-32916904D01*
X108402380Y-32964523D01*
X108307142Y-33012142D01*
X108164285Y-33012142D01*
X108069047Y-32964523D01*
X108021428Y-32916904D01*
X107973809Y-32821666D01*
X107973809Y-32440714D01*
X108402380Y-33393095D02*
X108450000Y-33440714D01*
X108497619Y-33535952D01*
X108497619Y-33774047D01*
X108450000Y-33869285D01*
X108402380Y-33916904D01*
X108307142Y-33964523D01*
X108211904Y-33964523D01*
X108069047Y-33916904D01*
X107497619Y-33345476D01*
X107497619Y-33964523D01*
X108497619Y-34583571D02*
X108497619Y-34678809D01*
X108450000Y-34774047D01*
X108402380Y-34821666D01*
X108307142Y-34869285D01*
X108116666Y-34916904D01*
X107878571Y-34916904D01*
X107688095Y-34869285D01*
X107592857Y-34821666D01*
X107545238Y-34774047D01*
X107497619Y-34678809D01*
X107497619Y-34583571D01*
X107545238Y-34488333D01*
X107592857Y-34440714D01*
X107688095Y-34393095D01*
X107878571Y-34345476D01*
X108116666Y-34345476D01*
X108307142Y-34393095D01*
X108402380Y-34440714D01*
X108450000Y-34488333D01*
X108497619Y-34583571D01*
%TO.C,C24*%
X123055142Y-40743142D02*
X123007523Y-40790761D01*
X122864666Y-40838380D01*
X122769428Y-40838380D01*
X122626571Y-40790761D01*
X122531333Y-40695523D01*
X122483714Y-40600285D01*
X122436095Y-40409809D01*
X122436095Y-40266952D01*
X122483714Y-40076476D01*
X122531333Y-39981238D01*
X122626571Y-39886000D01*
X122769428Y-39838380D01*
X122864666Y-39838380D01*
X123007523Y-39886000D01*
X123055142Y-39933619D01*
X123436095Y-39933619D02*
X123483714Y-39886000D01*
X123578952Y-39838380D01*
X123817047Y-39838380D01*
X123912285Y-39886000D01*
X123959904Y-39933619D01*
X124007523Y-40028857D01*
X124007523Y-40124095D01*
X123959904Y-40266952D01*
X123388476Y-40838380D01*
X124007523Y-40838380D01*
X124864666Y-40171714D02*
X124864666Y-40838380D01*
X124626571Y-39790761D02*
X124388476Y-40505047D01*
X125007523Y-40505047D01*
%TO.C,FB2*%
X86034666Y-61777571D02*
X85701333Y-61777571D01*
X85701333Y-62301380D02*
X85701333Y-61301380D01*
X86177523Y-61301380D01*
X86891809Y-61777571D02*
X87034666Y-61825190D01*
X87082285Y-61872809D01*
X87129904Y-61968047D01*
X87129904Y-62110904D01*
X87082285Y-62206142D01*
X87034666Y-62253761D01*
X86939428Y-62301380D01*
X86558476Y-62301380D01*
X86558476Y-61301380D01*
X86891809Y-61301380D01*
X86987047Y-61349000D01*
X87034666Y-61396619D01*
X87082285Y-61491857D01*
X87082285Y-61587095D01*
X87034666Y-61682333D01*
X86987047Y-61729952D01*
X86891809Y-61777571D01*
X86558476Y-61777571D01*
X87510857Y-61396619D02*
X87558476Y-61349000D01*
X87653714Y-61301380D01*
X87891809Y-61301380D01*
X87987047Y-61349000D01*
X88034666Y-61396619D01*
X88082285Y-61491857D01*
X88082285Y-61587095D01*
X88034666Y-61729952D01*
X87463238Y-62301380D01*
X88082285Y-62301380D01*
%TO.C,R13*%
X114228619Y-63365142D02*
X114704809Y-63031809D01*
X114228619Y-62793714D02*
X115228619Y-62793714D01*
X115228619Y-63174666D01*
X115181000Y-63269904D01*
X115133380Y-63317523D01*
X115038142Y-63365142D01*
X114895285Y-63365142D01*
X114800047Y-63317523D01*
X114752428Y-63269904D01*
X114704809Y-63174666D01*
X114704809Y-62793714D01*
X114228619Y-64317523D02*
X114228619Y-63746095D01*
X114228619Y-64031809D02*
X115228619Y-64031809D01*
X115085761Y-63936571D01*
X114990523Y-63841333D01*
X114942904Y-63746095D01*
X115228619Y-64650857D02*
X115228619Y-65269904D01*
X114847666Y-64936571D01*
X114847666Y-65079428D01*
X114800047Y-65174666D01*
X114752428Y-65222285D01*
X114657190Y-65269904D01*
X114419095Y-65269904D01*
X114323857Y-65222285D01*
X114276238Y-65174666D01*
X114228619Y-65079428D01*
X114228619Y-64793714D01*
X114276238Y-64698476D01*
X114323857Y-64650857D01*
%TO.C,J3*%
X150407619Y-56054666D02*
X149693333Y-56054666D01*
X149550476Y-56007047D01*
X149455238Y-55911809D01*
X149407619Y-55768952D01*
X149407619Y-55673714D01*
X150407619Y-56435619D02*
X150407619Y-57054666D01*
X150026666Y-56721333D01*
X150026666Y-56864190D01*
X149979047Y-56959428D01*
X149931428Y-57007047D01*
X149836190Y-57054666D01*
X149598095Y-57054666D01*
X149502857Y-57007047D01*
X149455238Y-56959428D01*
X149407619Y-56864190D01*
X149407619Y-56578476D01*
X149455238Y-56483238D01*
X149502857Y-56435619D01*
%TO.C,R4*%
X102163619Y-62698333D02*
X102639809Y-62365000D01*
X102163619Y-62126904D02*
X103163619Y-62126904D01*
X103163619Y-62507857D01*
X103116000Y-62603095D01*
X103068380Y-62650714D01*
X102973142Y-62698333D01*
X102830285Y-62698333D01*
X102735047Y-62650714D01*
X102687428Y-62603095D01*
X102639809Y-62507857D01*
X102639809Y-62126904D01*
X102830285Y-63555476D02*
X102163619Y-63555476D01*
X103211238Y-63317380D02*
X102496952Y-63079285D01*
X102496952Y-63698333D01*
%TO.C,R1*%
X103973333Y-44267380D02*
X103640000Y-43791190D01*
X103401904Y-44267380D02*
X103401904Y-43267380D01*
X103782857Y-43267380D01*
X103878095Y-43315000D01*
X103925714Y-43362619D01*
X103973333Y-43457857D01*
X103973333Y-43600714D01*
X103925714Y-43695952D01*
X103878095Y-43743571D01*
X103782857Y-43791190D01*
X103401904Y-43791190D01*
X104925714Y-44267380D02*
X104354285Y-44267380D01*
X104640000Y-44267380D02*
X104640000Y-43267380D01*
X104544761Y-43410238D01*
X104449523Y-43505476D01*
X104354285Y-43553095D01*
%TO.C,D11*%
X123245714Y-53284380D02*
X123245714Y-52284380D01*
X123483809Y-52284380D01*
X123626666Y-52332000D01*
X123721904Y-52427238D01*
X123769523Y-52522476D01*
X123817142Y-52712952D01*
X123817142Y-52855809D01*
X123769523Y-53046285D01*
X123721904Y-53141523D01*
X123626666Y-53236761D01*
X123483809Y-53284380D01*
X123245714Y-53284380D01*
X124769523Y-53284380D02*
X124198095Y-53284380D01*
X124483809Y-53284380D02*
X124483809Y-52284380D01*
X124388571Y-52427238D01*
X124293333Y-52522476D01*
X124198095Y-52570095D01*
X125721904Y-53284380D02*
X125150476Y-53284380D01*
X125436190Y-53284380D02*
X125436190Y-52284380D01*
X125340952Y-52427238D01*
X125245714Y-52522476D01*
X125150476Y-52570095D01*
%TO.C,U2*%
X95504095Y-47077380D02*
X95504095Y-47886904D01*
X95551714Y-47982142D01*
X95599333Y-48029761D01*
X95694571Y-48077380D01*
X95885047Y-48077380D01*
X95980285Y-48029761D01*
X96027904Y-47982142D01*
X96075523Y-47886904D01*
X96075523Y-47077380D01*
X96504095Y-47172619D02*
X96551714Y-47125000D01*
X96646952Y-47077380D01*
X96885047Y-47077380D01*
X96980285Y-47125000D01*
X97027904Y-47172619D01*
X97075523Y-47267857D01*
X97075523Y-47363095D01*
X97027904Y-47505952D01*
X96456476Y-48077380D01*
X97075523Y-48077380D01*
%TO.C,U6*%
X45886619Y-45212095D02*
X45077095Y-45212095D01*
X44981857Y-45259714D01*
X44934238Y-45307333D01*
X44886619Y-45402571D01*
X44886619Y-45593047D01*
X44934238Y-45688285D01*
X44981857Y-45735904D01*
X45077095Y-45783523D01*
X45886619Y-45783523D01*
X45886619Y-46688285D02*
X45886619Y-46497809D01*
X45839000Y-46402571D01*
X45791380Y-46354952D01*
X45648523Y-46259714D01*
X45458047Y-46212095D01*
X45077095Y-46212095D01*
X44981857Y-46259714D01*
X44934238Y-46307333D01*
X44886619Y-46402571D01*
X44886619Y-46593047D01*
X44934238Y-46688285D01*
X44981857Y-46735904D01*
X45077095Y-46783523D01*
X45315190Y-46783523D01*
X45410428Y-46735904D01*
X45458047Y-46688285D01*
X45505666Y-46593047D01*
X45505666Y-46402571D01*
X45458047Y-46307333D01*
X45410428Y-46259714D01*
X45315190Y-46212095D01*
%TO.C,R23*%
X86352142Y-40617380D02*
X86018809Y-40141190D01*
X85780714Y-40617380D02*
X85780714Y-39617380D01*
X86161666Y-39617380D01*
X86256904Y-39665000D01*
X86304523Y-39712619D01*
X86352142Y-39807857D01*
X86352142Y-39950714D01*
X86304523Y-40045952D01*
X86256904Y-40093571D01*
X86161666Y-40141190D01*
X85780714Y-40141190D01*
X86733095Y-39712619D02*
X86780714Y-39665000D01*
X86875952Y-39617380D01*
X87114047Y-39617380D01*
X87209285Y-39665000D01*
X87256904Y-39712619D01*
X87304523Y-39807857D01*
X87304523Y-39903095D01*
X87256904Y-40045952D01*
X86685476Y-40617380D01*
X87304523Y-40617380D01*
X87637857Y-39617380D02*
X88256904Y-39617380D01*
X87923571Y-39998333D01*
X88066428Y-39998333D01*
X88161666Y-40045952D01*
X88209285Y-40093571D01*
X88256904Y-40188809D01*
X88256904Y-40426904D01*
X88209285Y-40522142D01*
X88161666Y-40569761D01*
X88066428Y-40617380D01*
X87780714Y-40617380D01*
X87685476Y-40569761D01*
X87637857Y-40522142D01*
%TO.C,J5*%
X136572666Y-34377380D02*
X136572666Y-35091666D01*
X136525047Y-35234523D01*
X136429809Y-35329761D01*
X136286952Y-35377380D01*
X136191714Y-35377380D01*
X137525047Y-34377380D02*
X137048857Y-34377380D01*
X137001238Y-34853571D01*
X137048857Y-34805952D01*
X137144095Y-34758333D01*
X137382190Y-34758333D01*
X137477428Y-34805952D01*
X137525047Y-34853571D01*
X137572666Y-34948809D01*
X137572666Y-35186904D01*
X137525047Y-35282142D01*
X137477428Y-35329761D01*
X137382190Y-35377380D01*
X137144095Y-35377380D01*
X137048857Y-35329761D01*
X137001238Y-35282142D01*
%TO.C,L1*%
X35006619Y-29170333D02*
X35006619Y-28694142D01*
X36006619Y-28694142D01*
X35006619Y-30027476D02*
X35006619Y-29456047D01*
X35006619Y-29741761D02*
X36006619Y-29741761D01*
X35863761Y-29646523D01*
X35768523Y-29551285D01*
X35720904Y-29456047D01*
%TO.C,U1*%
X37511095Y-29480380D02*
X37511095Y-30289904D01*
X37558714Y-30385142D01*
X37606333Y-30432761D01*
X37701571Y-30480380D01*
X37892047Y-30480380D01*
X37987285Y-30432761D01*
X38034904Y-30385142D01*
X38082523Y-30289904D01*
X38082523Y-29480380D01*
X39082523Y-30480380D02*
X38511095Y-30480380D01*
X38796809Y-30480380D02*
X38796809Y-29480380D01*
X38701571Y-29623238D01*
X38606333Y-29718476D01*
X38511095Y-29766095D01*
%TO.C,C8*%
X100861857Y-62317333D02*
X100814238Y-62269714D01*
X100766619Y-62126857D01*
X100766619Y-62031619D01*
X100814238Y-61888761D01*
X100909476Y-61793523D01*
X101004714Y-61745904D01*
X101195190Y-61698285D01*
X101338047Y-61698285D01*
X101528523Y-61745904D01*
X101623761Y-61793523D01*
X101719000Y-61888761D01*
X101766619Y-62031619D01*
X101766619Y-62126857D01*
X101719000Y-62269714D01*
X101671380Y-62317333D01*
X101338047Y-62888761D02*
X101385666Y-62793523D01*
X101433285Y-62745904D01*
X101528523Y-62698285D01*
X101576142Y-62698285D01*
X101671380Y-62745904D01*
X101719000Y-62793523D01*
X101766619Y-62888761D01*
X101766619Y-63079238D01*
X101719000Y-63174476D01*
X101671380Y-63222095D01*
X101576142Y-63269714D01*
X101528523Y-63269714D01*
X101433285Y-63222095D01*
X101385666Y-63174476D01*
X101338047Y-63079238D01*
X101338047Y-62888761D01*
X101290428Y-62793523D01*
X101242809Y-62745904D01*
X101147571Y-62698285D01*
X100957095Y-62698285D01*
X100861857Y-62745904D01*
X100814238Y-62793523D01*
X100766619Y-62888761D01*
X100766619Y-63079238D01*
X100814238Y-63174476D01*
X100861857Y-63222095D01*
X100957095Y-63269714D01*
X101147571Y-63269714D01*
X101242809Y-63222095D01*
X101290428Y-63174476D01*
X101338047Y-63079238D01*
%TO.C,C18*%
X56102642Y-50268142D02*
X56055023Y-50315761D01*
X55912166Y-50363380D01*
X55816928Y-50363380D01*
X55674071Y-50315761D01*
X55578833Y-50220523D01*
X55531214Y-50125285D01*
X55483595Y-49934809D01*
X55483595Y-49791952D01*
X55531214Y-49601476D01*
X55578833Y-49506238D01*
X55674071Y-49411000D01*
X55816928Y-49363380D01*
X55912166Y-49363380D01*
X56055023Y-49411000D01*
X56102642Y-49458619D01*
X57055023Y-50363380D02*
X56483595Y-50363380D01*
X56769309Y-50363380D02*
X56769309Y-49363380D01*
X56674071Y-49506238D01*
X56578833Y-49601476D01*
X56483595Y-49649095D01*
X57626452Y-49791952D02*
X57531214Y-49744333D01*
X57483595Y-49696714D01*
X57435976Y-49601476D01*
X57435976Y-49553857D01*
X57483595Y-49458619D01*
X57531214Y-49411000D01*
X57626452Y-49363380D01*
X57816928Y-49363380D01*
X57912166Y-49411000D01*
X57959785Y-49458619D01*
X58007404Y-49553857D01*
X58007404Y-49601476D01*
X57959785Y-49696714D01*
X57912166Y-49744333D01*
X57816928Y-49791952D01*
X57626452Y-49791952D01*
X57531214Y-49839571D01*
X57483595Y-49887190D01*
X57435976Y-49982428D01*
X57435976Y-50172904D01*
X57483595Y-50268142D01*
X57531214Y-50315761D01*
X57626452Y-50363380D01*
X57816928Y-50363380D01*
X57912166Y-50315761D01*
X57959785Y-50268142D01*
X58007404Y-50172904D01*
X58007404Y-49982428D01*
X57959785Y-49887190D01*
X57912166Y-49839571D01*
X57816928Y-49791952D01*
%TO.C,R27*%
X123055142Y-42362380D02*
X122721809Y-41886190D01*
X122483714Y-42362380D02*
X122483714Y-41362380D01*
X122864666Y-41362380D01*
X122959904Y-41410000D01*
X123007523Y-41457619D01*
X123055142Y-41552857D01*
X123055142Y-41695714D01*
X123007523Y-41790952D01*
X122959904Y-41838571D01*
X122864666Y-41886190D01*
X122483714Y-41886190D01*
X123436095Y-41457619D02*
X123483714Y-41410000D01*
X123578952Y-41362380D01*
X123817047Y-41362380D01*
X123912285Y-41410000D01*
X123959904Y-41457619D01*
X124007523Y-41552857D01*
X124007523Y-41648095D01*
X123959904Y-41790952D01*
X123388476Y-42362380D01*
X124007523Y-42362380D01*
X124340857Y-41362380D02*
X125007523Y-41362380D01*
X124578952Y-42362380D01*
%TO.C,Y1*%
X83337809Y-54768809D02*
X82861619Y-54768809D01*
X83861619Y-54435476D02*
X83337809Y-54768809D01*
X83861619Y-55102142D01*
X82861619Y-55959285D02*
X82861619Y-55387857D01*
X82861619Y-55673571D02*
X83861619Y-55673571D01*
X83718761Y-55578333D01*
X83623523Y-55483095D01*
X83575904Y-55387857D01*
%TO.C,R24*%
X58412142Y-37536380D02*
X58078809Y-37060190D01*
X57840714Y-37536380D02*
X57840714Y-36536380D01*
X58221666Y-36536380D01*
X58316904Y-36584000D01*
X58364523Y-36631619D01*
X58412142Y-36726857D01*
X58412142Y-36869714D01*
X58364523Y-36964952D01*
X58316904Y-37012571D01*
X58221666Y-37060190D01*
X57840714Y-37060190D01*
X58793095Y-36631619D02*
X58840714Y-36584000D01*
X58935952Y-36536380D01*
X59174047Y-36536380D01*
X59269285Y-36584000D01*
X59316904Y-36631619D01*
X59364523Y-36726857D01*
X59364523Y-36822095D01*
X59316904Y-36964952D01*
X58745476Y-37536380D01*
X59364523Y-37536380D01*
X60221666Y-36869714D02*
X60221666Y-37536380D01*
X59983571Y-36488761D02*
X59745476Y-37203047D01*
X60364523Y-37203047D01*
%TO.C,R12*%
X112704619Y-63365142D02*
X113180809Y-63031809D01*
X112704619Y-62793714D02*
X113704619Y-62793714D01*
X113704619Y-63174666D01*
X113657000Y-63269904D01*
X113609380Y-63317523D01*
X113514142Y-63365142D01*
X113371285Y-63365142D01*
X113276047Y-63317523D01*
X113228428Y-63269904D01*
X113180809Y-63174666D01*
X113180809Y-62793714D01*
X112704619Y-64317523D02*
X112704619Y-63746095D01*
X112704619Y-64031809D02*
X113704619Y-64031809D01*
X113561761Y-63936571D01*
X113466523Y-63841333D01*
X113418904Y-63746095D01*
X113609380Y-64698476D02*
X113657000Y-64746095D01*
X113704619Y-64841333D01*
X113704619Y-65079428D01*
X113657000Y-65174666D01*
X113609380Y-65222285D01*
X113514142Y-65269904D01*
X113418904Y-65269904D01*
X113276047Y-65222285D01*
X112704619Y-64650857D01*
X112704619Y-65269904D01*
%TO.C,C10*%
X99210857Y-62603142D02*
X99163238Y-62555523D01*
X99115619Y-62412666D01*
X99115619Y-62317428D01*
X99163238Y-62174571D01*
X99258476Y-62079333D01*
X99353714Y-62031714D01*
X99544190Y-61984095D01*
X99687047Y-61984095D01*
X99877523Y-62031714D01*
X99972761Y-62079333D01*
X100068000Y-62174571D01*
X100115619Y-62317428D01*
X100115619Y-62412666D01*
X100068000Y-62555523D01*
X100020380Y-62603142D01*
X99115619Y-63555523D02*
X99115619Y-62984095D01*
X99115619Y-63269809D02*
X100115619Y-63269809D01*
X99972761Y-63174571D01*
X99877523Y-63079333D01*
X99829904Y-62984095D01*
X100115619Y-64174571D02*
X100115619Y-64269809D01*
X100068000Y-64365047D01*
X100020380Y-64412666D01*
X99925142Y-64460285D01*
X99734666Y-64507904D01*
X99496571Y-64507904D01*
X99306095Y-64460285D01*
X99210857Y-64412666D01*
X99163238Y-64365047D01*
X99115619Y-64269809D01*
X99115619Y-64174571D01*
X99163238Y-64079333D01*
X99210857Y-64031714D01*
X99306095Y-63984095D01*
X99496571Y-63936476D01*
X99734666Y-63936476D01*
X99925142Y-63984095D01*
X100020380Y-64031714D01*
X100068000Y-64079333D01*
X100115619Y-64174571D01*
%TO.C,FB4*%
X58221666Y-35615571D02*
X57888333Y-35615571D01*
X57888333Y-36139380D02*
X57888333Y-35139380D01*
X58364523Y-35139380D01*
X59078809Y-35615571D02*
X59221666Y-35663190D01*
X59269285Y-35710809D01*
X59316904Y-35806047D01*
X59316904Y-35948904D01*
X59269285Y-36044142D01*
X59221666Y-36091761D01*
X59126428Y-36139380D01*
X58745476Y-36139380D01*
X58745476Y-35139380D01*
X59078809Y-35139380D01*
X59174047Y-35187000D01*
X59221666Y-35234619D01*
X59269285Y-35329857D01*
X59269285Y-35425095D01*
X59221666Y-35520333D01*
X59174047Y-35567952D01*
X59078809Y-35615571D01*
X58745476Y-35615571D01*
X60174047Y-35472714D02*
X60174047Y-36139380D01*
X59935952Y-35091761D02*
X59697857Y-35806047D01*
X60316904Y-35806047D01*
%TO.C,D3*%
X57319047Y-72438380D02*
X57319047Y-71438380D01*
X57557143Y-71438380D01*
X57700000Y-71486000D01*
X57795238Y-71581238D01*
X57842857Y-71676476D01*
X57890476Y-71866952D01*
X57890476Y-72009809D01*
X57842857Y-72200285D01*
X57795238Y-72295523D01*
X57700000Y-72390761D01*
X57557143Y-72438380D01*
X57319047Y-72438380D01*
X58223809Y-71438380D02*
X58842857Y-71438380D01*
X58509523Y-71819333D01*
X58652381Y-71819333D01*
X58747619Y-71866952D01*
X58795238Y-71914571D01*
X58842857Y-72009809D01*
X58842857Y-72247904D01*
X58795238Y-72343142D01*
X58747619Y-72390761D01*
X58652381Y-72438380D01*
X58366666Y-72438380D01*
X58271428Y-72390761D01*
X58223809Y-72343142D01*
%TO.C,J1*%
X23582166Y-28535380D02*
X23582166Y-29249666D01*
X23534547Y-29392523D01*
X23439309Y-29487761D01*
X23296452Y-29535380D01*
X23201214Y-29535380D01*
X24582166Y-29535380D02*
X24010738Y-29535380D01*
X24296452Y-29535380D02*
X24296452Y-28535380D01*
X24201214Y-28678238D01*
X24105976Y-28773476D01*
X24010738Y-28821095D01*
%TO.C,R22*%
X49275119Y-50030142D02*
X49751309Y-49696809D01*
X49275119Y-49458714D02*
X50275119Y-49458714D01*
X50275119Y-49839666D01*
X50227500Y-49934904D01*
X50179880Y-49982523D01*
X50084642Y-50030142D01*
X49941785Y-50030142D01*
X49846547Y-49982523D01*
X49798928Y-49934904D01*
X49751309Y-49839666D01*
X49751309Y-49458714D01*
X50179880Y-50411095D02*
X50227500Y-50458714D01*
X50275119Y-50553952D01*
X50275119Y-50792047D01*
X50227500Y-50887285D01*
X50179880Y-50934904D01*
X50084642Y-50982523D01*
X49989404Y-50982523D01*
X49846547Y-50934904D01*
X49275119Y-50363476D01*
X49275119Y-50982523D01*
X50179880Y-51363476D02*
X50227500Y-51411095D01*
X50275119Y-51506333D01*
X50275119Y-51744428D01*
X50227500Y-51839666D01*
X50179880Y-51887285D01*
X50084642Y-51934904D01*
X49989404Y-51934904D01*
X49846547Y-51887285D01*
X49275119Y-51315857D01*
X49275119Y-51934904D01*
%TO.C,R10*%
X109656619Y-63365142D02*
X110132809Y-63031809D01*
X109656619Y-62793714D02*
X110656619Y-62793714D01*
X110656619Y-63174666D01*
X110609000Y-63269904D01*
X110561380Y-63317523D01*
X110466142Y-63365142D01*
X110323285Y-63365142D01*
X110228047Y-63317523D01*
X110180428Y-63269904D01*
X110132809Y-63174666D01*
X110132809Y-62793714D01*
X109656619Y-64317523D02*
X109656619Y-63746095D01*
X109656619Y-64031809D02*
X110656619Y-64031809D01*
X110513761Y-63936571D01*
X110418523Y-63841333D01*
X110370904Y-63746095D01*
X110656619Y-64936571D02*
X110656619Y-65031809D01*
X110609000Y-65127047D01*
X110561380Y-65174666D01*
X110466142Y-65222285D01*
X110275666Y-65269904D01*
X110037571Y-65269904D01*
X109847095Y-65222285D01*
X109751857Y-65174666D01*
X109704238Y-65127047D01*
X109656619Y-65031809D01*
X109656619Y-64936571D01*
X109704238Y-64841333D01*
X109751857Y-64793714D01*
X109847095Y-64746095D01*
X110037571Y-64698476D01*
X110275666Y-64698476D01*
X110466142Y-64746095D01*
X110561380Y-64793714D01*
X110609000Y-64841333D01*
X110656619Y-64936571D01*
%TO.C,C9*%
X89177857Y-64730333D02*
X89130238Y-64682714D01*
X89082619Y-64539857D01*
X89082619Y-64444619D01*
X89130238Y-64301761D01*
X89225476Y-64206523D01*
X89320714Y-64158904D01*
X89511190Y-64111285D01*
X89654047Y-64111285D01*
X89844523Y-64158904D01*
X89939761Y-64206523D01*
X90035000Y-64301761D01*
X90082619Y-64444619D01*
X90082619Y-64539857D01*
X90035000Y-64682714D01*
X89987380Y-64730333D01*
X89082619Y-65206523D02*
X89082619Y-65397000D01*
X89130238Y-65492238D01*
X89177857Y-65539857D01*
X89320714Y-65635095D01*
X89511190Y-65682714D01*
X89892142Y-65682714D01*
X89987380Y-65635095D01*
X90035000Y-65587476D01*
X90082619Y-65492238D01*
X90082619Y-65301761D01*
X90035000Y-65206523D01*
X89987380Y-65158904D01*
X89892142Y-65111285D01*
X89654047Y-65111285D01*
X89558809Y-65158904D01*
X89511190Y-65206523D01*
X89463571Y-65301761D01*
X89463571Y-65492238D01*
X89511190Y-65587476D01*
X89558809Y-65635095D01*
X89654047Y-65682714D01*
%TO.C,C19*%
X69842142Y-40302142D02*
X69794523Y-40349761D01*
X69651666Y-40397380D01*
X69556428Y-40397380D01*
X69413571Y-40349761D01*
X69318333Y-40254523D01*
X69270714Y-40159285D01*
X69223095Y-39968809D01*
X69223095Y-39825952D01*
X69270714Y-39635476D01*
X69318333Y-39540238D01*
X69413571Y-39445000D01*
X69556428Y-39397380D01*
X69651666Y-39397380D01*
X69794523Y-39445000D01*
X69842142Y-39492619D01*
X70794523Y-40397380D02*
X70223095Y-40397380D01*
X70508809Y-40397380D02*
X70508809Y-39397380D01*
X70413571Y-39540238D01*
X70318333Y-39635476D01*
X70223095Y-39683095D01*
X71270714Y-40397380D02*
X71461190Y-40397380D01*
X71556428Y-40349761D01*
X71604047Y-40302142D01*
X71699285Y-40159285D01*
X71746904Y-39968809D01*
X71746904Y-39587857D01*
X71699285Y-39492619D01*
X71651666Y-39445000D01*
X71556428Y-39397380D01*
X71365952Y-39397380D01*
X71270714Y-39445000D01*
X71223095Y-39492619D01*
X71175476Y-39587857D01*
X71175476Y-39825952D01*
X71223095Y-39921190D01*
X71270714Y-39968809D01*
X71365952Y-40016428D01*
X71556428Y-40016428D01*
X71651666Y-39968809D01*
X71699285Y-39921190D01*
X71746904Y-39825952D01*
%TO.C,J2*%
X101058619Y-36506666D02*
X100344333Y-36506666D01*
X100201476Y-36459047D01*
X100106238Y-36363809D01*
X100058619Y-36220952D01*
X100058619Y-36125714D01*
X100963380Y-36935238D02*
X101011000Y-36982857D01*
X101058619Y-37078095D01*
X101058619Y-37316190D01*
X101011000Y-37411428D01*
X100963380Y-37459047D01*
X100868142Y-37506666D01*
X100772904Y-37506666D01*
X100630047Y-37459047D01*
X100058619Y-36887619D01*
X100058619Y-37506666D01*
%TO.C,J4*%
X100504666Y-31456380D02*
X100504666Y-32170666D01*
X100457047Y-32313523D01*
X100361809Y-32408761D01*
X100218952Y-32456380D01*
X100123714Y-32456380D01*
X101409428Y-31789714D02*
X101409428Y-32456380D01*
X101171333Y-31408761D02*
X100933238Y-32123047D01*
X101552285Y-32123047D01*
%TO.C,C3*%
X31960357Y-30384333D02*
X31912738Y-30336714D01*
X31865119Y-30193857D01*
X31865119Y-30098619D01*
X31912738Y-29955761D01*
X32007976Y-29860523D01*
X32103214Y-29812904D01*
X32293690Y-29765285D01*
X32436547Y-29765285D01*
X32627023Y-29812904D01*
X32722261Y-29860523D01*
X32817500Y-29955761D01*
X32865119Y-30098619D01*
X32865119Y-30193857D01*
X32817500Y-30336714D01*
X32769880Y-30384333D01*
X32865119Y-30717666D02*
X32865119Y-31336714D01*
X32484166Y-31003380D01*
X32484166Y-31146238D01*
X32436547Y-31241476D01*
X32388928Y-31289095D01*
X32293690Y-31336714D01*
X32055595Y-31336714D01*
X31960357Y-31289095D01*
X31912738Y-31241476D01*
X31865119Y-31146238D01*
X31865119Y-30860523D01*
X31912738Y-30765285D01*
X31960357Y-30717666D01*
%TO.C,RV1*%
X66968761Y-73898380D02*
X66635428Y-73422190D01*
X66397333Y-73898380D02*
X66397333Y-72898380D01*
X66778285Y-72898380D01*
X66873523Y-72946000D01*
X66921142Y-72993619D01*
X66968761Y-73088857D01*
X66968761Y-73231714D01*
X66921142Y-73326952D01*
X66873523Y-73374571D01*
X66778285Y-73422190D01*
X66397333Y-73422190D01*
X67254476Y-72898380D02*
X67587809Y-73898380D01*
X67921142Y-72898380D01*
X68778285Y-73898380D02*
X68206857Y-73898380D01*
X68492571Y-73898380D02*
X68492571Y-72898380D01*
X68397333Y-73041238D01*
X68302095Y-73136476D01*
X68206857Y-73184095D01*
%TO.C,C1*%
X32726333Y-36933142D02*
X32678714Y-36980761D01*
X32535857Y-37028380D01*
X32440619Y-37028380D01*
X32297761Y-36980761D01*
X32202523Y-36885523D01*
X32154904Y-36790285D01*
X32107285Y-36599809D01*
X32107285Y-36456952D01*
X32154904Y-36266476D01*
X32202523Y-36171238D01*
X32297761Y-36076000D01*
X32440619Y-36028380D01*
X32535857Y-36028380D01*
X32678714Y-36076000D01*
X32726333Y-36123619D01*
X33678714Y-37028380D02*
X33107285Y-37028380D01*
X33393000Y-37028380D02*
X33393000Y-36028380D01*
X33297761Y-36171238D01*
X33202523Y-36266476D01*
X33107285Y-36314095D01*
%TO.C,J6*%
X75993666Y-34758380D02*
X75993666Y-35472666D01*
X75946047Y-35615523D01*
X75850809Y-35710761D01*
X75707952Y-35758380D01*
X75612714Y-35758380D01*
X76898428Y-34758380D02*
X76707952Y-34758380D01*
X76612714Y-34806000D01*
X76565095Y-34853619D01*
X76469857Y-34996476D01*
X76422238Y-35186952D01*
X76422238Y-35567904D01*
X76469857Y-35663142D01*
X76517476Y-35710761D01*
X76612714Y-35758380D01*
X76803190Y-35758380D01*
X76898428Y-35710761D01*
X76946047Y-35663142D01*
X76993666Y-35567904D01*
X76993666Y-35329809D01*
X76946047Y-35234571D01*
X76898428Y-35186952D01*
X76803190Y-35139333D01*
X76612714Y-35139333D01*
X76517476Y-35186952D01*
X76469857Y-35234571D01*
X76422238Y-35329809D01*
%TO.C,R5*%
X97591619Y-66000333D02*
X98067809Y-65667000D01*
X97591619Y-65428904D02*
X98591619Y-65428904D01*
X98591619Y-65809857D01*
X98544000Y-65905095D01*
X98496380Y-65952714D01*
X98401142Y-66000333D01*
X98258285Y-66000333D01*
X98163047Y-65952714D01*
X98115428Y-65905095D01*
X98067809Y-65809857D01*
X98067809Y-65428904D01*
X98591619Y-66905095D02*
X98591619Y-66428904D01*
X98115428Y-66381285D01*
X98163047Y-66428904D01*
X98210666Y-66524142D01*
X98210666Y-66762238D01*
X98163047Y-66857476D01*
X98115428Y-66905095D01*
X98020190Y-66952714D01*
X97782095Y-66952714D01*
X97686857Y-66905095D01*
X97639238Y-66857476D01*
X97591619Y-66762238D01*
X97591619Y-66524142D01*
X97639238Y-66428904D01*
X97686857Y-66381285D01*
%TO.C,C17*%
X102512857Y-33012142D02*
X102465238Y-32964523D01*
X102417619Y-32821666D01*
X102417619Y-32726428D01*
X102465238Y-32583571D01*
X102560476Y-32488333D01*
X102655714Y-32440714D01*
X102846190Y-32393095D01*
X102989047Y-32393095D01*
X103179523Y-32440714D01*
X103274761Y-32488333D01*
X103370000Y-32583571D01*
X103417619Y-32726428D01*
X103417619Y-32821666D01*
X103370000Y-32964523D01*
X103322380Y-33012142D01*
X102417619Y-33964523D02*
X102417619Y-33393095D01*
X102417619Y-33678809D02*
X103417619Y-33678809D01*
X103274761Y-33583571D01*
X103179523Y-33488333D01*
X103131904Y-33393095D01*
X103417619Y-34297857D02*
X103417619Y-34964523D01*
X102417619Y-34535952D01*
%TO.C,R3*%
X90479619Y-64730333D02*
X90955809Y-64397000D01*
X90479619Y-64158904D02*
X91479619Y-64158904D01*
X91479619Y-64539857D01*
X91432000Y-64635095D01*
X91384380Y-64682714D01*
X91289142Y-64730333D01*
X91146285Y-64730333D01*
X91051047Y-64682714D01*
X91003428Y-64635095D01*
X90955809Y-64539857D01*
X90955809Y-64158904D01*
X91479619Y-65063666D02*
X91479619Y-65682714D01*
X91098666Y-65349380D01*
X91098666Y-65492238D01*
X91051047Y-65587476D01*
X91003428Y-65635095D01*
X90908190Y-65682714D01*
X90670095Y-65682714D01*
X90574857Y-65635095D01*
X90527238Y-65587476D01*
X90479619Y-65492238D01*
X90479619Y-65206523D01*
X90527238Y-65111285D01*
X90574857Y-65063666D01*
%TO.C,D7*%
X132793333Y-72438380D02*
X132793333Y-71438380D01*
X133031429Y-71438380D01*
X133174286Y-71486000D01*
X133269524Y-71581238D01*
X133317143Y-71676476D01*
X133364762Y-71866952D01*
X133364762Y-72009809D01*
X133317143Y-72200285D01*
X133269524Y-72295523D01*
X133174286Y-72390761D01*
X133031429Y-72438380D01*
X132793333Y-72438380D01*
X133698095Y-71438380D02*
X134364762Y-71438380D01*
X133936190Y-72438380D01*
%TO.C,D12*%
X123245714Y-55697380D02*
X123245714Y-54697380D01*
X123483809Y-54697380D01*
X123626666Y-54745000D01*
X123721904Y-54840238D01*
X123769523Y-54935476D01*
X123817142Y-55125952D01*
X123817142Y-55268809D01*
X123769523Y-55459285D01*
X123721904Y-55554523D01*
X123626666Y-55649761D01*
X123483809Y-55697380D01*
X123245714Y-55697380D01*
X124769523Y-55697380D02*
X124198095Y-55697380D01*
X124483809Y-55697380D02*
X124483809Y-54697380D01*
X124388571Y-54840238D01*
X124293333Y-54935476D01*
X124198095Y-54983095D01*
X125150476Y-54792619D02*
X125198095Y-54745000D01*
X125293333Y-54697380D01*
X125531428Y-54697380D01*
X125626666Y-54745000D01*
X125674285Y-54792619D01*
X125721904Y-54887857D01*
X125721904Y-54983095D01*
X125674285Y-55125952D01*
X125102857Y-55697380D01*
X125721904Y-55697380D01*
%TO.C,R26*%
X142709619Y-50919142D02*
X143185809Y-50585809D01*
X142709619Y-50347714D02*
X143709619Y-50347714D01*
X143709619Y-50728666D01*
X143662000Y-50823904D01*
X143614380Y-50871523D01*
X143519142Y-50919142D01*
X143376285Y-50919142D01*
X143281047Y-50871523D01*
X143233428Y-50823904D01*
X143185809Y-50728666D01*
X143185809Y-50347714D01*
X143614380Y-51300095D02*
X143662000Y-51347714D01*
X143709619Y-51442952D01*
X143709619Y-51681047D01*
X143662000Y-51776285D01*
X143614380Y-51823904D01*
X143519142Y-51871523D01*
X143423904Y-51871523D01*
X143281047Y-51823904D01*
X142709619Y-51252476D01*
X142709619Y-51871523D01*
X143709619Y-52728666D02*
X143709619Y-52538190D01*
X143662000Y-52442952D01*
X143614380Y-52395333D01*
X143471523Y-52300095D01*
X143281047Y-52252476D01*
X142900095Y-52252476D01*
X142804857Y-52300095D01*
X142757238Y-52347714D01*
X142709619Y-52442952D01*
X142709619Y-52633428D01*
X142757238Y-52728666D01*
X142804857Y-52776285D01*
X142900095Y-52823904D01*
X143138190Y-52823904D01*
X143233428Y-52776285D01*
X143281047Y-52728666D01*
X143328666Y-52633428D01*
X143328666Y-52442952D01*
X143281047Y-52347714D01*
X143233428Y-52300095D01*
X143138190Y-52252476D01*
%TO.C,C4*%
X39584333Y-37187142D02*
X39536714Y-37234761D01*
X39393857Y-37282380D01*
X39298619Y-37282380D01*
X39155761Y-37234761D01*
X39060523Y-37139523D01*
X39012904Y-37044285D01*
X38965285Y-36853809D01*
X38965285Y-36710952D01*
X39012904Y-36520476D01*
X39060523Y-36425238D01*
X39155761Y-36330000D01*
X39298619Y-36282380D01*
X39393857Y-36282380D01*
X39536714Y-36330000D01*
X39584333Y-36377619D01*
X40441476Y-36615714D02*
X40441476Y-37282380D01*
X40203380Y-36234761D02*
X39965285Y-36949047D01*
X40584333Y-36949047D01*
%TO.C,C14*%
X89273142Y-53824142D02*
X89225523Y-53871761D01*
X89082666Y-53919380D01*
X88987428Y-53919380D01*
X88844571Y-53871761D01*
X88749333Y-53776523D01*
X88701714Y-53681285D01*
X88654095Y-53490809D01*
X88654095Y-53347952D01*
X88701714Y-53157476D01*
X88749333Y-53062238D01*
X88844571Y-52967000D01*
X88987428Y-52919380D01*
X89082666Y-52919380D01*
X89225523Y-52967000D01*
X89273142Y-53014619D01*
X90225523Y-53919380D02*
X89654095Y-53919380D01*
X89939809Y-53919380D02*
X89939809Y-52919380D01*
X89844571Y-53062238D01*
X89749333Y-53157476D01*
X89654095Y-53205095D01*
X91082666Y-53252714D02*
X91082666Y-53919380D01*
X90844571Y-52871761D02*
X90606476Y-53586047D01*
X91225523Y-53586047D01*
%TO.C,D5*%
X95056190Y-72438380D02*
X95056190Y-71438380D01*
X95294286Y-71438380D01*
X95437143Y-71486000D01*
X95532381Y-71581238D01*
X95580000Y-71676476D01*
X95627619Y-71866952D01*
X95627619Y-72009809D01*
X95580000Y-72200285D01*
X95532381Y-72295523D01*
X95437143Y-72390761D01*
X95294286Y-72438380D01*
X95056190Y-72438380D01*
X96532381Y-71438380D02*
X96056190Y-71438380D01*
X96008571Y-71914571D01*
X96056190Y-71866952D01*
X96151428Y-71819333D01*
X96389524Y-71819333D01*
X96484762Y-71866952D01*
X96532381Y-71914571D01*
X96580000Y-72009809D01*
X96580000Y-72247904D01*
X96532381Y-72343142D01*
X96484762Y-72390761D01*
X96389524Y-72438380D01*
X96151428Y-72438380D01*
X96056190Y-72390761D01*
X96008571Y-72343142D01*
%TO.C,SW2*%
X54292666Y-64920761D02*
X54435523Y-64968380D01*
X54673619Y-64968380D01*
X54768857Y-64920761D01*
X54816476Y-64873142D01*
X54864095Y-64777904D01*
X54864095Y-64682666D01*
X54816476Y-64587428D01*
X54768857Y-64539809D01*
X54673619Y-64492190D01*
X54483142Y-64444571D01*
X54387904Y-64396952D01*
X54340285Y-64349333D01*
X54292666Y-64254095D01*
X54292666Y-64158857D01*
X54340285Y-64063619D01*
X54387904Y-64016000D01*
X54483142Y-63968380D01*
X54721238Y-63968380D01*
X54864095Y-64016000D01*
X55197428Y-63968380D02*
X55435523Y-64968380D01*
X55626000Y-64254095D01*
X55816476Y-64968380D01*
X56054571Y-63968380D01*
X56387904Y-64063619D02*
X56435523Y-64016000D01*
X56530761Y-63968380D01*
X56768857Y-63968380D01*
X56864095Y-64016000D01*
X56911714Y-64063619D01*
X56959333Y-64158857D01*
X56959333Y-64254095D01*
X56911714Y-64396952D01*
X56340285Y-64968380D01*
X56959333Y-64968380D01*
%TO.C,FL1*%
X92605428Y-63396904D02*
X92605428Y-63063571D01*
X92081619Y-63063571D02*
X93081619Y-63063571D01*
X93081619Y-63539761D01*
X92081619Y-64396904D02*
X92081619Y-63920714D01*
X93081619Y-63920714D01*
X92081619Y-65254047D02*
X92081619Y-64682619D01*
X92081619Y-64968333D02*
X93081619Y-64968333D01*
X92938761Y-64873095D01*
X92843523Y-64777857D01*
X92795904Y-64682619D01*
%TO.C,R25*%
X79748142Y-40617380D02*
X79414809Y-40141190D01*
X79176714Y-40617380D02*
X79176714Y-39617380D01*
X79557666Y-39617380D01*
X79652904Y-39665000D01*
X79700523Y-39712619D01*
X79748142Y-39807857D01*
X79748142Y-39950714D01*
X79700523Y-40045952D01*
X79652904Y-40093571D01*
X79557666Y-40141190D01*
X79176714Y-40141190D01*
X80129095Y-39712619D02*
X80176714Y-39665000D01*
X80271952Y-39617380D01*
X80510047Y-39617380D01*
X80605285Y-39665000D01*
X80652904Y-39712619D01*
X80700523Y-39807857D01*
X80700523Y-39903095D01*
X80652904Y-40045952D01*
X80081476Y-40617380D01*
X80700523Y-40617380D01*
X81605285Y-39617380D02*
X81129095Y-39617380D01*
X81081476Y-40093571D01*
X81129095Y-40045952D01*
X81224333Y-39998333D01*
X81462428Y-39998333D01*
X81557666Y-40045952D01*
X81605285Y-40093571D01*
X81652904Y-40188809D01*
X81652904Y-40426904D01*
X81605285Y-40522142D01*
X81557666Y-40569761D01*
X81462428Y-40617380D01*
X81224333Y-40617380D01*
X81129095Y-40569761D01*
X81081476Y-40522142D01*
%TO.C,C12*%
X85338142Y-51157142D02*
X85290523Y-51204761D01*
X85147666Y-51252380D01*
X85052428Y-51252380D01*
X84909571Y-51204761D01*
X84814333Y-51109523D01*
X84766714Y-51014285D01*
X84719095Y-50823809D01*
X84719095Y-50680952D01*
X84766714Y-50490476D01*
X84814333Y-50395238D01*
X84909571Y-50300000D01*
X85052428Y-50252380D01*
X85147666Y-50252380D01*
X85290523Y-50300000D01*
X85338142Y-50347619D01*
X86290523Y-51252380D02*
X85719095Y-51252380D01*
X86004809Y-51252380D02*
X86004809Y-50252380D01*
X85909571Y-50395238D01*
X85814333Y-50490476D01*
X85719095Y-50538095D01*
X86671476Y-50347619D02*
X86719095Y-50300000D01*
X86814333Y-50252380D01*
X87052428Y-50252380D01*
X87147666Y-50300000D01*
X87195285Y-50347619D01*
X87242904Y-50442857D01*
X87242904Y-50538095D01*
X87195285Y-50680952D01*
X86623857Y-51252380D01*
X87242904Y-51252380D01*
%TO.C,D13*%
X123245714Y-58110380D02*
X123245714Y-57110380D01*
X123483809Y-57110380D01*
X123626666Y-57158000D01*
X123721904Y-57253238D01*
X123769523Y-57348476D01*
X123817142Y-57538952D01*
X123817142Y-57681809D01*
X123769523Y-57872285D01*
X123721904Y-57967523D01*
X123626666Y-58062761D01*
X123483809Y-58110380D01*
X123245714Y-58110380D01*
X124769523Y-58110380D02*
X124198095Y-58110380D01*
X124483809Y-58110380D02*
X124483809Y-57110380D01*
X124388571Y-57253238D01*
X124293333Y-57348476D01*
X124198095Y-57396095D01*
X125102857Y-57110380D02*
X125721904Y-57110380D01*
X125388571Y-57491333D01*
X125531428Y-57491333D01*
X125626666Y-57538952D01*
X125674285Y-57586571D01*
X125721904Y-57681809D01*
X125721904Y-57919904D01*
X125674285Y-58015142D01*
X125626666Y-58062761D01*
X125531428Y-58110380D01*
X125245714Y-58110380D01*
X125150476Y-58062761D01*
X125102857Y-58015142D01*
%TO.C,R11*%
X111180619Y-63365142D02*
X111656809Y-63031809D01*
X111180619Y-62793714D02*
X112180619Y-62793714D01*
X112180619Y-63174666D01*
X112133000Y-63269904D01*
X112085380Y-63317523D01*
X111990142Y-63365142D01*
X111847285Y-63365142D01*
X111752047Y-63317523D01*
X111704428Y-63269904D01*
X111656809Y-63174666D01*
X111656809Y-62793714D01*
X111180619Y-64317523D02*
X111180619Y-63746095D01*
X111180619Y-64031809D02*
X112180619Y-64031809D01*
X112037761Y-63936571D01*
X111942523Y-63841333D01*
X111894904Y-63746095D01*
X111180619Y-65269904D02*
X111180619Y-64698476D01*
X111180619Y-64984190D02*
X112180619Y-64984190D01*
X112037761Y-64888952D01*
X111942523Y-64793714D01*
X111894904Y-64698476D01*
%TO.C,R19*%
X137375619Y-49141142D02*
X137851809Y-48807809D01*
X137375619Y-48569714D02*
X138375619Y-48569714D01*
X138375619Y-48950666D01*
X138328000Y-49045904D01*
X138280380Y-49093523D01*
X138185142Y-49141142D01*
X138042285Y-49141142D01*
X137947047Y-49093523D01*
X137899428Y-49045904D01*
X137851809Y-48950666D01*
X137851809Y-48569714D01*
X137375619Y-50093523D02*
X137375619Y-49522095D01*
X137375619Y-49807809D02*
X138375619Y-49807809D01*
X138232761Y-49712571D01*
X138137523Y-49617333D01*
X138089904Y-49522095D01*
X137375619Y-50569714D02*
X137375619Y-50760190D01*
X137423238Y-50855428D01*
X137470857Y-50903047D01*
X137613714Y-50998285D01*
X137804190Y-51045904D01*
X138185142Y-51045904D01*
X138280380Y-50998285D01*
X138328000Y-50950666D01*
X138375619Y-50855428D01*
X138375619Y-50664952D01*
X138328000Y-50569714D01*
X138280380Y-50522095D01*
X138185142Y-50474476D01*
X137947047Y-50474476D01*
X137851809Y-50522095D01*
X137804190Y-50569714D01*
X137756571Y-50664952D01*
X137756571Y-50855428D01*
X137804190Y-50950666D01*
X137851809Y-50998285D01*
X137947047Y-51045904D01*
%TO.C,C15*%
X86225142Y-63603142D02*
X86177523Y-63650761D01*
X86034666Y-63698380D01*
X85939428Y-63698380D01*
X85796571Y-63650761D01*
X85701333Y-63555523D01*
X85653714Y-63460285D01*
X85606095Y-63269809D01*
X85606095Y-63126952D01*
X85653714Y-62936476D01*
X85701333Y-62841238D01*
X85796571Y-62746000D01*
X85939428Y-62698380D01*
X86034666Y-62698380D01*
X86177523Y-62746000D01*
X86225142Y-62793619D01*
X87177523Y-63698380D02*
X86606095Y-63698380D01*
X86891809Y-63698380D02*
X86891809Y-62698380D01*
X86796571Y-62841238D01*
X86701333Y-62936476D01*
X86606095Y-62984095D01*
X88082285Y-62698380D02*
X87606095Y-62698380D01*
X87558476Y-63174571D01*
X87606095Y-63126952D01*
X87701333Y-63079333D01*
X87939428Y-63079333D01*
X88034666Y-63126952D01*
X88082285Y-63174571D01*
X88129904Y-63269809D01*
X88129904Y-63507904D01*
X88082285Y-63603142D01*
X88034666Y-63650761D01*
X87939428Y-63698380D01*
X87701333Y-63698380D01*
X87606095Y-63650761D01*
X87558476Y-63603142D01*
%TO.C,FB6*%
X82875428Y-35361666D02*
X82875428Y-35028333D01*
X82351619Y-35028333D02*
X83351619Y-35028333D01*
X83351619Y-35504523D01*
X82875428Y-36218809D02*
X82827809Y-36361666D01*
X82780190Y-36409285D01*
X82684952Y-36456904D01*
X82542095Y-36456904D01*
X82446857Y-36409285D01*
X82399238Y-36361666D01*
X82351619Y-36266428D01*
X82351619Y-35885476D01*
X83351619Y-35885476D01*
X83351619Y-36218809D01*
X83304000Y-36314047D01*
X83256380Y-36361666D01*
X83161142Y-36409285D01*
X83065904Y-36409285D01*
X82970666Y-36361666D01*
X82923047Y-36314047D01*
X82875428Y-36218809D01*
X82875428Y-35885476D01*
X83351619Y-37314047D02*
X83351619Y-37123571D01*
X83304000Y-37028333D01*
X83256380Y-36980714D01*
X83113523Y-36885476D01*
X82923047Y-36837857D01*
X82542095Y-36837857D01*
X82446857Y-36885476D01*
X82399238Y-36933095D01*
X82351619Y-37028333D01*
X82351619Y-37218809D01*
X82399238Y-37314047D01*
X82446857Y-37361666D01*
X82542095Y-37409285D01*
X82780190Y-37409285D01*
X82875428Y-37361666D01*
X82923047Y-37314047D01*
X82970666Y-37218809D01*
X82970666Y-37028333D01*
X82923047Y-36933095D01*
X82875428Y-36885476D01*
X82780190Y-36837857D01*
%TO.C,D9*%
X123340904Y-48458380D02*
X123340904Y-47458380D01*
X123579000Y-47458380D01*
X123721857Y-47506000D01*
X123817095Y-47601238D01*
X123864714Y-47696476D01*
X123912333Y-47886952D01*
X123912333Y-48029809D01*
X123864714Y-48220285D01*
X123817095Y-48315523D01*
X123721857Y-48410761D01*
X123579000Y-48458380D01*
X123340904Y-48458380D01*
X124388523Y-48458380D02*
X124579000Y-48458380D01*
X124674238Y-48410761D01*
X124721857Y-48363142D01*
X124817095Y-48220285D01*
X124864714Y-48029809D01*
X124864714Y-47648857D01*
X124817095Y-47553619D01*
X124769476Y-47506000D01*
X124674238Y-47458380D01*
X124483761Y-47458380D01*
X124388523Y-47506000D01*
X124340904Y-47553619D01*
X124293285Y-47648857D01*
X124293285Y-47886952D01*
X124340904Y-47982190D01*
X124388523Y-48029809D01*
X124483761Y-48077428D01*
X124674238Y-48077428D01*
X124769476Y-48029809D01*
X124817095Y-47982190D01*
X124864714Y-47886952D01*
%TO.C,R8*%
X103973333Y-41473380D02*
X103640000Y-40997190D01*
X103401904Y-41473380D02*
X103401904Y-40473380D01*
X103782857Y-40473380D01*
X103878095Y-40521000D01*
X103925714Y-40568619D01*
X103973333Y-40663857D01*
X103973333Y-40806714D01*
X103925714Y-40901952D01*
X103878095Y-40949571D01*
X103782857Y-40997190D01*
X103401904Y-40997190D01*
X104544761Y-40901952D02*
X104449523Y-40854333D01*
X104401904Y-40806714D01*
X104354285Y-40711476D01*
X104354285Y-40663857D01*
X104401904Y-40568619D01*
X104449523Y-40521000D01*
X104544761Y-40473380D01*
X104735238Y-40473380D01*
X104830476Y-40521000D01*
X104878095Y-40568619D01*
X104925714Y-40663857D01*
X104925714Y-40711476D01*
X104878095Y-40806714D01*
X104830476Y-40854333D01*
X104735238Y-40901952D01*
X104544761Y-40901952D01*
X104449523Y-40949571D01*
X104401904Y-40997190D01*
X104354285Y-41092428D01*
X104354285Y-41282904D01*
X104401904Y-41378142D01*
X104449523Y-41425761D01*
X104544761Y-41473380D01*
X104735238Y-41473380D01*
X104830476Y-41425761D01*
X104878095Y-41378142D01*
X104925714Y-41282904D01*
X104925714Y-41092428D01*
X104878095Y-40997190D01*
X104830476Y-40949571D01*
X104735238Y-40901952D01*
D13*
%TO.C,D14*%
X53685000Y-37100000D02*
X49785000Y-37100000D01*
X53685000Y-39100000D02*
X49785000Y-39100000D01*
X53685000Y-39100000D02*
X53685000Y-37100000D01*
%TO.C,C2*%
X33039267Y-34669000D02*
X32746733Y-34669000D01*
X33039267Y-35689000D02*
X32746733Y-35689000D01*
%TO.C,C25*%
X97153000Y-45866267D02*
X97153000Y-45573733D01*
X98173000Y-45866267D02*
X98173000Y-45573733D01*
%TO.C,FB3*%
X86666000Y-35784758D02*
X86666000Y-36605242D01*
X85546000Y-35784758D02*
X85546000Y-36605242D01*
%TO.C,R21*%
X53825224Y-51957500D02*
X53315776Y-51957500D01*
X53825224Y-50912500D02*
X53315776Y-50912500D01*
%TO.C,C5*%
X37218252Y-39089000D02*
X36695748Y-39089000D01*
X37218252Y-37619000D02*
X36695748Y-37619000D01*
%TO.C,C6*%
X86125267Y-60454000D02*
X85832733Y-60454000D01*
X86125267Y-59434000D02*
X85832733Y-59434000D01*
%TO.C,FB5*%
X56163242Y-38048000D02*
X55342758Y-38048000D01*
X56163242Y-39168000D02*
X55342758Y-39168000D01*
%TO.C,D1*%
X28820500Y-29151000D02*
X26720500Y-29151000D01*
X28820500Y-31951000D02*
X27620500Y-31951000D01*
%TO.C,J7*%
X67277000Y-20059000D02*
X47277000Y-20059000D01*
X67277000Y-32559000D02*
X67277000Y-20059000D01*
X47277000Y-20059000D02*
X47277000Y-32559000D01*
%TO.C,R16*%
X120904724Y-42911500D02*
X120395276Y-42911500D01*
X120904724Y-43956500D02*
X120395276Y-43956500D01*
%TO.C,R15*%
X117206500Y-60705276D02*
X117206500Y-61214724D01*
X118251500Y-60705276D02*
X118251500Y-61214724D01*
%TO.C,D2*%
X36628571Y-74401000D02*
X36628571Y-77491000D01*
X42178571Y-75946462D02*
G75*
G03*
X36628571Y-74401170I-2990000J462D01*
G01*
X36628571Y-77490830D02*
G75*
G03*
X42178571Y-75945538I2560000J1544830D01*
G01*
X41688571Y-75946000D02*
G75*
G03*
X41688571Y-75946000I-2500000J0D01*
G01*
%TO.C,U5*%
X71882000Y-60042000D02*
X74082000Y-60042000D01*
X71882000Y-60042000D02*
X69682000Y-60042000D01*
X71882000Y-51972000D02*
X74082000Y-51972000D01*
X71882000Y-51972000D02*
X68282000Y-51972000D01*
%TO.C,R9*%
X101727724Y-41895500D02*
X101218276Y-41895500D01*
X101727724Y-42940500D02*
X101218276Y-42940500D01*
%TO.C,FB1*%
X89124758Y-60504000D02*
X89945242Y-60504000D01*
X89124758Y-59384000D02*
X89945242Y-59384000D01*
%TO.C,Q1*%
X107442000Y-38644000D02*
X106792000Y-38644000D01*
X107442000Y-35524000D02*
X106792000Y-35524000D01*
X107442000Y-35524000D02*
X108092000Y-35524000D01*
X107442000Y-38644000D02*
X109117000Y-38644000D01*
%TO.C,SW3*%
X43005000Y-56007000D02*
G75*
G03*
X43005000Y-56007000I-3000000J0D01*
G01*
%TO.C,C20*%
X69068733Y-50544000D02*
X69361267Y-50544000D01*
X69068733Y-51564000D02*
X69361267Y-51564000D01*
%TO.C,D8*%
X122900000Y-46593000D02*
X119000000Y-46593000D01*
X122900000Y-46593000D02*
X122900000Y-44593000D01*
X122900000Y-44593000D02*
X119000000Y-44593000D01*
%TO.C,C21*%
X67439000Y-62884267D02*
X67439000Y-62591733D01*
X66419000Y-62884267D02*
X66419000Y-62591733D01*
%TO.C,D6*%
X112102857Y-74401000D02*
X112102857Y-77491000D01*
X112102857Y-77490830D02*
G75*
G03*
X117652857Y-75945538I2560000J1544830D01*
G01*
X117652857Y-75946462D02*
G75*
G03*
X112102857Y-74401170I-2990000J462D01*
G01*
X117162857Y-75946000D02*
G75*
G03*
X117162857Y-75946000I-2500000J0D01*
G01*
%TO.C,R18*%
X121172500Y-34543276D02*
X121172500Y-35052724D01*
X120127500Y-34543276D02*
X120127500Y-35052724D01*
%TO.C,C11*%
X96010000Y-59797733D02*
X96010000Y-60090267D01*
X97030000Y-59797733D02*
X97030000Y-60090267D01*
%TO.C,Q2*%
X127889000Y-48169000D02*
X128539000Y-48169000D01*
X127889000Y-45049000D02*
X128539000Y-45049000D01*
X127889000Y-48169000D02*
X127239000Y-48169000D01*
X127889000Y-45049000D02*
X126214000Y-45049000D01*
%TO.C,SW1*%
X24650000Y-79446000D02*
X26150000Y-79446000D01*
X22150000Y-73696000D02*
X22150000Y-78196000D01*
X28650000Y-78196000D02*
X28650000Y-73696000D01*
X26150000Y-72446000D02*
X24650000Y-72446000D01*
%TO.C,C13*%
X86127267Y-57529000D02*
X85834733Y-57529000D01*
X86127267Y-58549000D02*
X85834733Y-58549000D01*
%TO.C,R2*%
X92710724Y-45197500D02*
X92201276Y-45197500D01*
X92710724Y-46242500D02*
X92201276Y-46242500D01*
%TO.C,D10*%
X122900000Y-49419000D02*
X119000000Y-49419000D01*
X122900000Y-51419000D02*
X122900000Y-49419000D01*
X122900000Y-51419000D02*
X119000000Y-51419000D01*
%TO.C,C23*%
X141418000Y-34337000D02*
X149158000Y-34337000D01*
X141418000Y-34337000D02*
X141418000Y-35701000D01*
X141418000Y-38213000D02*
X141418000Y-39577000D01*
X149158000Y-34337000D02*
X149158000Y-35701000D01*
X141418000Y-39577000D02*
X149158000Y-39577000D01*
X149158000Y-38213000D02*
X149158000Y-39577000D01*
%TO.C,R17*%
X103504276Y-35672500D02*
X104013724Y-35672500D01*
X103504276Y-36717500D02*
X104013724Y-36717500D01*
%TO.C,C16*%
X99185000Y-45866267D02*
X99185000Y-45573733D01*
X100205000Y-45866267D02*
X100205000Y-45573733D01*
%TO.C,C7*%
X98427000Y-59797733D02*
X98427000Y-60090267D01*
X97407000Y-59797733D02*
X97407000Y-60090267D01*
%TO.C,C22*%
X74695267Y-50544000D02*
X74402733Y-50544000D01*
X74695267Y-51564000D02*
X74402733Y-51564000D01*
%TO.C,R14*%
X115682500Y-60705276D02*
X115682500Y-61214724D01*
X116727500Y-60705276D02*
X116727500Y-61214724D01*
%TO.C,U4*%
X115570000Y-19939000D02*
X118110000Y-19939000D01*
X128270000Y-19939000D02*
X128270000Y-32639000D01*
X128270000Y-32639000D02*
X115570000Y-32639000D01*
X118110000Y-19939000D02*
X118110000Y-14859000D01*
X125730000Y-19939000D02*
X128270000Y-19939000D01*
X125730000Y-19939000D02*
X125730000Y-14859000D01*
X115570000Y-32639000D02*
X115570000Y-19939000D01*
%TO.C,R6*%
X93613500Y-59690724D02*
X93613500Y-59181276D01*
X92568500Y-59690724D02*
X92568500Y-59181276D01*
%TO.C,D4*%
X74365714Y-74401000D02*
X74365714Y-77491000D01*
X74365714Y-77490830D02*
G75*
G03*
X79915714Y-75945538I2560000J1544830D01*
G01*
X79915714Y-75946462D02*
G75*
G03*
X74365714Y-74401170I-2990000J462D01*
G01*
X79425714Y-75946000D02*
G75*
G03*
X79425714Y-75946000I-2500000J0D01*
G01*
%TO.C,R7*%
X101727724Y-39101500D02*
X101218276Y-39101500D01*
X101727724Y-40146500D02*
X101218276Y-40146500D01*
%TO.C,U3*%
X140263000Y-38568000D02*
X135063000Y-38568000D01*
X140263000Y-45038000D02*
X140263000Y-38568000D01*
X135063000Y-45038000D02*
X140263000Y-45038000D01*
X135063000Y-38568000D02*
X135063000Y-40803000D01*
X135063000Y-42803000D02*
X135063000Y-45038000D01*
X135063000Y-42803000D02*
G75*
G03*
X135063000Y-40803000I0J1000000D01*
G01*
%TO.C,U7*%
X60025000Y-47057000D02*
X60025000Y-64957000D01*
X62505000Y-62357000D02*
X62505000Y-64957000D01*
X62505000Y-64957000D02*
X60025000Y-64957000D01*
X65105000Y-64957000D02*
X63775000Y-64957000D01*
X65105000Y-62357000D02*
X62505000Y-62357000D01*
X65105000Y-62357000D02*
X65105000Y-47057000D01*
X65105000Y-63627000D02*
X65105000Y-64957000D01*
X65105000Y-47057000D02*
X60025000Y-47057000D01*
%TO.C,R20*%
X106948500Y-33909724D02*
X106948500Y-33400276D01*
X105903500Y-33909724D02*
X105903500Y-33400276D01*
%TO.C,C24*%
X120503733Y-40896000D02*
X120796267Y-40896000D01*
X120503733Y-39876000D02*
X120796267Y-39876000D01*
%TO.C,FB2*%
X89124758Y-57710000D02*
X89945242Y-57710000D01*
X89124758Y-56590000D02*
X89945242Y-56590000D01*
%TO.C,R13*%
X115203500Y-60705276D02*
X115203500Y-61214724D01*
X114158500Y-60705276D02*
X114158500Y-61214724D01*
%TO.C,J3*%
X151185000Y-42109000D02*
X151185000Y-54929000D01*
X148585000Y-44709000D02*
X148585000Y-42109000D01*
X145985000Y-42109000D02*
X147315000Y-42109000D01*
X145985000Y-44709000D02*
X145985000Y-54929000D01*
X148585000Y-42109000D02*
X151185000Y-42109000D01*
X145985000Y-44709000D02*
X148585000Y-44709000D01*
X145985000Y-43439000D02*
X145985000Y-42109000D01*
X145985000Y-54929000D02*
X151185000Y-54929000D01*
%TO.C,R4*%
X102093500Y-60579724D02*
X102093500Y-60070276D01*
X103138500Y-60579724D02*
X103138500Y-60070276D01*
%TO.C,R1*%
X101727724Y-44337500D02*
X101218276Y-44337500D01*
X101727724Y-43292500D02*
X101218276Y-43292500D01*
%TO.C,D11*%
X122900000Y-51832000D02*
X119000000Y-51832000D01*
X122900000Y-53832000D02*
X122900000Y-51832000D01*
X122900000Y-53832000D02*
X119000000Y-53832000D01*
%TO.C,U2*%
X91446000Y-48393000D02*
X92446000Y-48393000D01*
X100886000Y-57833000D02*
X100886000Y-48593000D01*
X100886000Y-48593000D02*
X91646000Y-48593000D01*
X91646000Y-57833000D02*
X100886000Y-57833000D01*
X91646000Y-48593000D02*
X91646000Y-57833000D01*
X91446000Y-49393000D02*
X91446000Y-48393000D01*
%TO.C,U6*%
X46285000Y-46856000D02*
X56565000Y-46856000D01*
X56565000Y-41556000D02*
X46285000Y-41556000D01*
X46285000Y-41556000D02*
X46285000Y-46856000D01*
X56565000Y-43206000D02*
X56565000Y-41556000D01*
X56565000Y-46856000D02*
X56565000Y-45206000D01*
X56565000Y-43206000D02*
G75*
G03*
X56565000Y-45206000I0J-1000000D01*
G01*
%TO.C,R23*%
X87249724Y-39257500D02*
X86740276Y-39257500D01*
X87249724Y-38212500D02*
X86740276Y-38212500D01*
%TO.C,J5*%
X149361000Y-20066000D02*
X149361000Y-23686000D01*
X134611000Y-23686000D02*
X134611000Y-20066000D01*
X134611000Y-20066000D02*
X149361000Y-20066000D01*
%TO.C,L1*%
X34469000Y-30196758D02*
X34469000Y-31017242D01*
X33349000Y-30196758D02*
X33349000Y-31017242D01*
%TO.C,U1*%
X39633000Y-34578000D02*
X39633000Y-35888000D01*
X39633000Y-31168000D02*
X39633000Y-32478000D01*
X36913000Y-31168000D02*
X39633000Y-31168000D01*
X39633000Y-35888000D02*
X36913000Y-35888000D01*
X35773000Y-31398000D02*
X36913000Y-31398000D01*
X36913000Y-35888000D02*
X36913000Y-35658000D01*
X36913000Y-31168000D02*
X36913000Y-31398000D01*
%TO.C,C8*%
X101729000Y-59797733D02*
X101729000Y-60090267D01*
X100709000Y-59797733D02*
X100709000Y-60090267D01*
%TO.C,C18*%
X53424233Y-49401000D02*
X53716767Y-49401000D01*
X53424233Y-50421000D02*
X53716767Y-50421000D01*
%TO.C,R27*%
X120904724Y-41387500D02*
X120395276Y-41387500D01*
X120904724Y-42432500D02*
X120395276Y-42432500D01*
%TO.C,Y1*%
X84331000Y-53245000D02*
X84331000Y-57245000D01*
X87631000Y-53245000D02*
X84331000Y-53245000D01*
%TO.C,R24*%
X55498276Y-37606500D02*
X56007724Y-37606500D01*
X55498276Y-36561500D02*
X56007724Y-36561500D01*
%TO.C,R12*%
X112634500Y-60705276D02*
X112634500Y-61214724D01*
X113679500Y-60705276D02*
X113679500Y-61214724D01*
%TO.C,C10*%
X100303000Y-59682748D02*
X100303000Y-60205252D01*
X98833000Y-59682748D02*
X98833000Y-60205252D01*
%TO.C,FB4*%
X55342758Y-35127000D02*
X56163242Y-35127000D01*
X55342758Y-36247000D02*
X56163242Y-36247000D01*
%TO.C,D3*%
X55497143Y-74401000D02*
X55497143Y-77491000D01*
X61047143Y-75946462D02*
G75*
G03*
X55497143Y-74401170I-2990000J462D01*
G01*
X55497143Y-77490830D02*
G75*
G03*
X61047143Y-75945538I2560000J1544830D01*
G01*
X60557143Y-75946000D02*
G75*
G03*
X60557143Y-75946000I-2500000J0D01*
G01*
%TO.C,J1*%
X24258500Y-27427000D02*
X24258500Y-20077000D01*
X24258500Y-20077000D02*
X33198500Y-20077000D01*
X33198500Y-27427000D02*
X33198500Y-20077000D01*
%TO.C,R22*%
X50635000Y-50927724D02*
X50635000Y-50418276D01*
X51680000Y-50927724D02*
X51680000Y-50418276D01*
%TO.C,R10*%
X109586500Y-60705276D02*
X109586500Y-61214724D01*
X110631500Y-60705276D02*
X110631500Y-61214724D01*
%TO.C,C9*%
X90045000Y-62210733D02*
X90045000Y-62503267D01*
X89025000Y-62210733D02*
X89025000Y-62503267D01*
%TO.C,C19*%
X74355000Y-38815000D02*
X66615000Y-38815000D01*
X66615000Y-34939000D02*
X66615000Y-33575000D01*
X74355000Y-33575000D02*
X66615000Y-33575000D01*
X66615000Y-38815000D02*
X66615000Y-37451000D01*
X74355000Y-38815000D02*
X74355000Y-37451000D01*
X74355000Y-34939000D02*
X74355000Y-33575000D01*
%TO.C,J2*%
X98056000Y-35075000D02*
X98056000Y-35641529D01*
X98816000Y-35075000D02*
X99576000Y-35075000D01*
X99379471Y-36965000D02*
X99511000Y-36965000D01*
X98056000Y-35075000D02*
X93041000Y-35075000D01*
X99511000Y-38605000D02*
X93041000Y-38605000D01*
X93041000Y-36512530D02*
X93041000Y-37167470D01*
X99511000Y-36965000D02*
X99511000Y-37167470D01*
X98109471Y-36965000D02*
X98252529Y-36965000D01*
X93041000Y-35075000D02*
X93041000Y-35897470D01*
X99511000Y-37782530D02*
X99511000Y-38605000D01*
X99576000Y-35075000D02*
X99576000Y-36205000D01*
X98056000Y-36768471D02*
X98056000Y-36911529D01*
X93041000Y-37782530D02*
X93041000Y-38605000D01*
%TO.C,J4*%
X101448000Y-16795000D02*
X107448000Y-16795000D01*
X101448000Y-19995000D02*
X101448000Y-16795000D01*
X109148000Y-19995000D02*
X109148000Y-30995000D01*
X100148000Y-30995000D02*
X100148000Y-19995000D01*
X100148000Y-19995000D02*
X101448000Y-19995000D01*
X107448000Y-19995000D02*
X109148000Y-19995000D01*
X107448000Y-16795000D02*
X107448000Y-19995000D01*
X109148000Y-30995000D02*
X100148000Y-30995000D01*
%TO.C,C3*%
X31397500Y-30404733D02*
X31397500Y-30697267D01*
X30377500Y-30404733D02*
X30377500Y-30697267D01*
%TO.C,RV1*%
X69464000Y-74346000D02*
X69464000Y-74946000D01*
X65464000Y-75746000D02*
X65464000Y-76146000D01*
X66564000Y-77546000D02*
X69464000Y-77546000D01*
X64964000Y-74146000D02*
X64964000Y-74846000D01*
X66564000Y-74346000D02*
X69464000Y-74346000D01*
X69464000Y-77546000D02*
X69464000Y-76946000D01*
X65664000Y-74146000D02*
X64964000Y-74146000D01*
%TO.C,C1*%
X33154252Y-32793000D02*
X32631748Y-32793000D01*
X33154252Y-34263000D02*
X32631748Y-34263000D01*
%TO.C,J6*%
X93693000Y-32559000D02*
X93693000Y-20059000D01*
X93693000Y-20059000D02*
X73693000Y-20059000D01*
X73693000Y-20059000D02*
X73693000Y-32559000D01*
%TO.C,R5*%
X95137500Y-59690724D02*
X95137500Y-59181276D01*
X94092500Y-59690724D02*
X94092500Y-59181276D01*
%TO.C,C17*%
X105383000Y-33916252D02*
X105383000Y-33393748D01*
X103913000Y-33916252D02*
X103913000Y-33393748D01*
%TO.C,R3*%
X90409500Y-62102276D02*
X90409500Y-62611724D01*
X91454500Y-62102276D02*
X91454500Y-62611724D01*
%TO.C,D7*%
X130971429Y-74401000D02*
X130971429Y-77491000D01*
X130971429Y-77490830D02*
G75*
G03*
X136521429Y-75945538I2560000J1544830D01*
G01*
X136521429Y-75946462D02*
G75*
G03*
X130971429Y-74401170I-2990000J462D01*
G01*
X136031429Y-75946000D02*
G75*
G03*
X136031429Y-75946000I-2500000J0D01*
G01*
%TO.C,D12*%
X122900000Y-56245000D02*
X122900000Y-54245000D01*
X122900000Y-54245000D02*
X119000000Y-54245000D01*
X122900000Y-56245000D02*
X119000000Y-56245000D01*
%TO.C,R26*%
X141209500Y-51307276D02*
X141209500Y-51816724D01*
X142254500Y-51307276D02*
X142254500Y-51816724D01*
%TO.C,C4*%
X37103267Y-37340000D02*
X36810733Y-37340000D01*
X37103267Y-36320000D02*
X36810733Y-36320000D01*
%TO.C,C14*%
X90062267Y-55374000D02*
X89769733Y-55374000D01*
X90062267Y-54354000D02*
X89769733Y-54354000D01*
%TO.C,D5*%
X93234286Y-74401000D02*
X93234286Y-77491000D01*
X93234286Y-77490830D02*
G75*
G03*
X98784286Y-75945538I2560000J1544830D01*
G01*
X98784286Y-75946462D02*
G75*
G03*
X93234286Y-74401170I-2990000J462D01*
G01*
X98294286Y-75946000D02*
G75*
G03*
X98294286Y-75946000I-2500000J0D01*
G01*
%TO.C,SW2*%
X52376000Y-57186000D02*
X52376000Y-61686000D01*
X54876000Y-62936000D02*
X56376000Y-62936000D01*
X58876000Y-61686000D02*
X58876000Y-57186000D01*
X56376000Y-55936000D02*
X54876000Y-55936000D01*
%TO.C,FL1*%
X95034000Y-63735000D02*
X95034000Y-64535000D01*
X93434000Y-64535000D02*
X93434000Y-63735000D01*
%TO.C,R25*%
X80645724Y-38212500D02*
X80136276Y-38212500D01*
X80645724Y-39257500D02*
X80136276Y-39257500D01*
%TO.C,C12*%
X86127267Y-52707000D02*
X85834733Y-52707000D01*
X86127267Y-51687000D02*
X85834733Y-51687000D01*
%TO.C,D13*%
X122900000Y-58658000D02*
X119000000Y-58658000D01*
X122900000Y-58658000D02*
X122900000Y-56658000D01*
X122900000Y-56658000D02*
X119000000Y-56658000D01*
%TO.C,R11*%
X111110500Y-60705276D02*
X111110500Y-61214724D01*
X112155500Y-60705276D02*
X112155500Y-61214724D01*
%TO.C,R19*%
X136920500Y-49529276D02*
X136920500Y-50038724D01*
X135875500Y-49529276D02*
X135875500Y-50038724D01*
%TO.C,C15*%
X89681267Y-58037000D02*
X89388733Y-58037000D01*
X89681267Y-59057000D02*
X89388733Y-59057000D01*
D14*
%TO.C,REF\u002A\u002A*%
X27655133Y-36722277D02*
X27752055Y-36583954D01*
X23089924Y-41539499D02*
X23343188Y-41336604D01*
X34507345Y-42520015D02*
X34520447Y-42547709D01*
D15*
X28036718Y-38118251D02*
X28062486Y-38112394D01*
D14*
X21930699Y-42443524D02*
X21944365Y-42426173D01*
X34331124Y-43031610D02*
X34306893Y-43051668D01*
D15*
X28735152Y-47035174D02*
X28626983Y-47107843D01*
X32719168Y-42426361D02*
X32728944Y-42454040D01*
D14*
X22080755Y-43051270D02*
X22056438Y-43031044D01*
D15*
X28193999Y-47245893D02*
X28193999Y-47245893D01*
X28062486Y-38112394D02*
X28087195Y-38107672D01*
X29742400Y-39105163D02*
X29909562Y-39248899D01*
D14*
X27981303Y-49009132D02*
X27965917Y-48997672D01*
X27556419Y-36860750D02*
X27655133Y-36722277D01*
X24806932Y-40034973D02*
X24992798Y-39852733D01*
D15*
X24149183Y-41712773D02*
X24376840Y-41428311D01*
D14*
X34253103Y-42251289D02*
X34280906Y-42272040D01*
X34306893Y-43051668D02*
X34280906Y-43072085D01*
X34331124Y-42312491D02*
X34353662Y-42332164D01*
D15*
X28351280Y-47225748D02*
X28325512Y-47231605D01*
D14*
X28089854Y-49067244D02*
X28077738Y-49062778D01*
X27900513Y-48940347D02*
X27883219Y-48922895D01*
D15*
X32626501Y-43104984D02*
X32553061Y-43214067D01*
D14*
X33298074Y-41539499D02*
X33298074Y-41539499D01*
D15*
X30432049Y-39720566D02*
X30608486Y-39888712D01*
X32680635Y-42337642D02*
X32695099Y-42368220D01*
D14*
X34353662Y-43011927D02*
X34331124Y-43031610D01*
D15*
X28592743Y-47127763D02*
X28559349Y-47145780D01*
D14*
X22927420Y-41666878D02*
X23089924Y-41539499D01*
D15*
X32626501Y-42239168D02*
X32646421Y-42273174D01*
X28405903Y-38133713D02*
X28434710Y-38143489D01*
D14*
X26762946Y-47425191D02*
X26673235Y-47314772D01*
X29024068Y-48218531D02*
X28831579Y-48483334D01*
D15*
X30255804Y-39557370D02*
X30432049Y-39720566D01*
X23668830Y-42915313D02*
X23659053Y-42887092D01*
X32553061Y-42130035D02*
X32626501Y-42239168D01*
D14*
X32271468Y-44667334D02*
X32108701Y-44813969D01*
X21867159Y-42550715D02*
X21873229Y-42537049D01*
D15*
X32764226Y-42694153D02*
X32763192Y-42716685D01*
X28526825Y-38182023D02*
X28559349Y-38198220D01*
D14*
X22164576Y-42230208D02*
X22164576Y-42230208D01*
D15*
X28559349Y-38198220D02*
X28592743Y-38216236D01*
D14*
X34253103Y-43092848D02*
X34223422Y-43113944D01*
X21841851Y-42671999D02*
X21841851Y-42671999D01*
D15*
X28087195Y-47236327D02*
X28062486Y-47231605D01*
D14*
X34546148Y-42671999D02*
X34545686Y-42693986D01*
D15*
X23680083Y-42944470D02*
X23668830Y-42915313D01*
D14*
X27810391Y-48839109D02*
X27791293Y-48814419D01*
X29481700Y-47607305D02*
X29317084Y-47825736D01*
X25182097Y-39662527D02*
X25634616Y-39194030D01*
X32271468Y-40676769D02*
X32571713Y-40940103D01*
X29317084Y-37518263D02*
X29317084Y-37518263D01*
D15*
X25604298Y-45283115D02*
X25604298Y-45283115D01*
D14*
X34520447Y-42796303D02*
X34514344Y-42809877D01*
D15*
X25604298Y-40061036D02*
X25604298Y-40061036D01*
X23637734Y-42536157D02*
X23643591Y-42510631D01*
X25431772Y-40236489D02*
X25604298Y-40061036D01*
X32011158Y-41428311D02*
X32238815Y-41712773D01*
X32421641Y-43393441D02*
X32238815Y-43631272D01*
X28351280Y-38118251D02*
X28378085Y-38125329D01*
D14*
X26906298Y-47607305D02*
X26762946Y-47425191D01*
D15*
X28592743Y-38216236D02*
X28626983Y-38236157D01*
X25263058Y-40413602D02*
X25431772Y-40236489D01*
D14*
X28577502Y-36504863D02*
X28596630Y-36529605D01*
X34480357Y-42869560D02*
X34469160Y-42885759D01*
X28065198Y-49057612D02*
X28052239Y-49051697D01*
X21853723Y-42588083D02*
X21857468Y-42576249D01*
X34537125Y-42596195D02*
X34541682Y-42616766D01*
X27752055Y-36583954D02*
X27752055Y-36583954D01*
X21944230Y-42917839D02*
X21918171Y-42883610D01*
D15*
X27475882Y-46905786D02*
X27241462Y-46725836D01*
X31289021Y-44753186D02*
X31124940Y-44930500D01*
X23623772Y-42651323D02*
X23624806Y-42629886D01*
D14*
X22164576Y-42230208D02*
X22302675Y-42132987D01*
X25832536Y-46360707D02*
X25634616Y-46150071D01*
X27363930Y-48218531D02*
X27195218Y-47990945D01*
X21843496Y-42706798D02*
X21842250Y-42692111D01*
X28264313Y-36266976D02*
X28286363Y-36272822D01*
D15*
X23650669Y-42484230D02*
X23659053Y-42456934D01*
X28464481Y-47189257D02*
X28434710Y-47200510D01*
D14*
X28193999Y-49084442D02*
X28179162Y-49084172D01*
D15*
X28213049Y-38098432D02*
X28233278Y-38099466D01*
X32695099Y-42368220D02*
X32707915Y-42397774D01*
D14*
X28143939Y-49080821D02*
X28123621Y-49076941D01*
X34223422Y-43113944D02*
X34223422Y-43113944D01*
X28025081Y-49037419D02*
X28010889Y-49028955D01*
D15*
X27761015Y-38236157D02*
X27761015Y-38236157D01*
D14*
X22033829Y-43011178D02*
X22012866Y-42991689D01*
X34514344Y-42809877D02*
X34507345Y-42824004D01*
D15*
X23834937Y-43214067D02*
X23761497Y-43104984D01*
D14*
X27752055Y-48760197D02*
X27556419Y-48483334D01*
D15*
X28154720Y-38099466D02*
X28193999Y-38098106D01*
D14*
X29317084Y-37518263D02*
X29481700Y-37736696D01*
X28487292Y-48940603D02*
X28453818Y-48971675D01*
D15*
X28300803Y-47236327D02*
X28277179Y-47239998D01*
X30783700Y-45283115D02*
X30783700Y-45283115D01*
X32744407Y-42506911D02*
X32750264Y-42532219D01*
D14*
X28540320Y-36459990D02*
X28558730Y-36481674D01*
D15*
X26960921Y-46501480D02*
X26645598Y-46238873D01*
D14*
X34411728Y-42955255D02*
X34393903Y-42973736D01*
D15*
X28495194Y-47176441D02*
X28464481Y-47189257D01*
D14*
X24992798Y-39852733D02*
X25182097Y-39662527D01*
X22134761Y-43092736D02*
X22106842Y-43071840D01*
D15*
X31124940Y-44930500D02*
X30956226Y-45107636D01*
X32761364Y-42739656D02*
X32758657Y-42763125D01*
X28495194Y-38167559D02*
X28526825Y-38182023D01*
X23707363Y-42338410D02*
X23723560Y-42306347D01*
D14*
X21850629Y-42599272D02*
X21853723Y-42588083D01*
D15*
X23761497Y-42239168D02*
X23761497Y-42239168D01*
D14*
X21975757Y-42390111D02*
X21993608Y-42371434D01*
X33685173Y-41838665D02*
X33813160Y-41934551D01*
X28162464Y-36260908D02*
X28193999Y-36259558D01*
D15*
X28254663Y-38101294D02*
X28277179Y-38104001D01*
D14*
X25182097Y-39662527D02*
X25182097Y-39662527D01*
X28421881Y-36346098D02*
X28437655Y-36358659D01*
X33685173Y-43505353D02*
X33460578Y-43677124D01*
X33947556Y-43310517D02*
X33685173Y-43505353D01*
D15*
X32664438Y-42305979D02*
X32680635Y-42337642D01*
D14*
X21896955Y-42851357D02*
X21880084Y-42821213D01*
X31205901Y-39662527D02*
X31581066Y-40034973D01*
X28298038Y-36276621D02*
X28310140Y-36281070D01*
X21918305Y-42460400D02*
X21930699Y-42443524D01*
X27900513Y-36403781D02*
X27933978Y-36372710D01*
X28077738Y-49062778D02*
X28065198Y-49057612D01*
X34541682Y-42616766D02*
X34544372Y-42634742D01*
X21880084Y-42821213D02*
X21867061Y-42793311D01*
D15*
X28434710Y-47200510D02*
X28405903Y-47210286D01*
D14*
X23556005Y-41161050D02*
X23816284Y-40940103D01*
D15*
X23643591Y-42510631D02*
X23650669Y-42484230D01*
X23680083Y-42399578D02*
X23692899Y-42369480D01*
D14*
X26175659Y-46736429D02*
X26012619Y-46556051D01*
X28244020Y-49080873D02*
X28225515Y-49083123D01*
X32831993Y-44182997D02*
X32571713Y-44403973D01*
X28635943Y-36583954D02*
X28831579Y-36860750D01*
D15*
X28405903Y-47210286D02*
X28378085Y-47218670D01*
D14*
X21959363Y-42408363D02*
X21975757Y-42390111D01*
X28077738Y-36281270D02*
X28101543Y-36272975D01*
X27965917Y-48997672D02*
X27950141Y-48985113D01*
X27883219Y-48922895D02*
X27865555Y-48904095D01*
X28101543Y-49071059D02*
X28089854Y-49067244D01*
X34490413Y-42853859D02*
X34480357Y-42869560D01*
D15*
X32754985Y-42556855D02*
X32758657Y-42580877D01*
D14*
X28831579Y-36860750D02*
X29024068Y-37125544D01*
D15*
X28526825Y-47161977D02*
X28495194Y-47176441D01*
X25955949Y-39720566D02*
X26306828Y-39399891D01*
D14*
X34411728Y-42388808D02*
X34443095Y-42424454D01*
D15*
X23637734Y-42807850D02*
X23633012Y-42783178D01*
D14*
X27556419Y-48483334D02*
X27363930Y-48218531D01*
X23089924Y-43804501D02*
X22927420Y-43677124D01*
D15*
X31447646Y-40766892D02*
X31745244Y-41109072D01*
D14*
X21857468Y-42576249D02*
X21861926Y-42563788D01*
X22033930Y-42332872D02*
X22056525Y-42313020D01*
X28522274Y-36439760D02*
X28540320Y-36459990D01*
X29481700Y-37736696D02*
X29625052Y-37918816D01*
X34223422Y-42230208D02*
X34223422Y-42230208D01*
X28596630Y-48814519D02*
X28558730Y-48862427D01*
D15*
X25604298Y-45283115D02*
X25263058Y-44930500D01*
D14*
X29625052Y-47425191D02*
X29481700Y-47607305D01*
X25634616Y-46150071D02*
X25418067Y-45923819D01*
X27996295Y-36324546D02*
X28025081Y-36306657D01*
X34428105Y-42937204D02*
X34411728Y-42955255D01*
X27950141Y-48985113D02*
X27933978Y-48971406D01*
D15*
X26132194Y-45786711D02*
X25955949Y-45623535D01*
D14*
X21867061Y-42793311D02*
X21857388Y-42767785D01*
X34544372Y-42709258D02*
X34541682Y-42727236D01*
X21842250Y-42692111D02*
X21841851Y-42671999D01*
X26906298Y-37736696D02*
X27070914Y-37518263D01*
X24806932Y-45309172D02*
X24449244Y-44970071D01*
X28264313Y-49077026D02*
X28244020Y-49080873D01*
X21843522Y-42637246D02*
X21846146Y-42619649D01*
X24116529Y-40676769D02*
X24279296Y-40530147D01*
D15*
X27795255Y-38216236D02*
X27828649Y-38198220D01*
D14*
X26673235Y-47314772D02*
X26570443Y-47191011D01*
D15*
X23623446Y-42671999D02*
X23623446Y-42671999D01*
X23723560Y-43037755D02*
X23707363Y-43005671D01*
D14*
X28596630Y-36529605D02*
X28616112Y-36555952D01*
D15*
X26478435Y-46095150D02*
X26306828Y-45944173D01*
X25955949Y-45623535D02*
X25779512Y-45455413D01*
D14*
X28101543Y-36272975D02*
X28123621Y-36267083D01*
X28179162Y-49084172D02*
X28162464Y-49083098D01*
D15*
X27953288Y-47200510D02*
X27923516Y-47189257D01*
D14*
X31395200Y-45491417D02*
X31205901Y-45681624D01*
X34541682Y-42727236D02*
X34537125Y-42747809D01*
D15*
X32763192Y-42716685D02*
X32761364Y-42739656D01*
X31745244Y-41109072D02*
X32011158Y-41428311D01*
D14*
X22702825Y-41838665D02*
X22927420Y-41666878D01*
D15*
X28277179Y-47239998D02*
X28254663Y-47242705D01*
D14*
X34085323Y-42132987D02*
X34223422Y-42230208D01*
X21888128Y-42508002D02*
X21897081Y-42492656D01*
X25182097Y-45681624D02*
X25182097Y-45681624D01*
D15*
X31745244Y-44234972D02*
X31599994Y-44403943D01*
X32011158Y-43915727D02*
X31745244Y-44234972D01*
D14*
X26322448Y-46902164D02*
X26175659Y-46736429D01*
D15*
X27892803Y-38167559D02*
X27923516Y-38154743D01*
D14*
X21841851Y-42671999D02*
X21842263Y-42651926D01*
X28487292Y-36403460D02*
X28504597Y-36420933D01*
X34530210Y-42770869D02*
X34525716Y-42783296D01*
X28376928Y-36314826D02*
X28391513Y-36324231D01*
D15*
X26960921Y-38842539D02*
X27241462Y-38618172D01*
X24940352Y-40766892D02*
X25098977Y-40590896D01*
D14*
X28052239Y-36292364D02*
X28077738Y-36281270D01*
X34306893Y-42292445D02*
X34331124Y-42312491D01*
D15*
X32764551Y-42671999D02*
X32764551Y-42671999D01*
X28559349Y-47145780D02*
X28526825Y-47161977D01*
X30783700Y-40061036D02*
X31124940Y-40413602D01*
D14*
X28635943Y-36583954D02*
X28635943Y-36583954D01*
X34456759Y-42902442D02*
X34443095Y-42919595D01*
D15*
X27761015Y-47107843D02*
X27652845Y-47035174D01*
D14*
X34469160Y-42885759D02*
X34456759Y-42902442D01*
D15*
X32626501Y-42239168D02*
X32626501Y-42239168D01*
D14*
X29024068Y-37125544D02*
X29192780Y-37353120D01*
D15*
X23692899Y-42974583D02*
X23680083Y-42944470D01*
D14*
X27070914Y-37518263D02*
X27195218Y-37353120D01*
D15*
X23668830Y-42428723D02*
X23680083Y-42399578D01*
X28434710Y-38143489D02*
X28464481Y-38154743D01*
D14*
X21907119Y-42476782D02*
X21918305Y-42460400D01*
D15*
X30783700Y-40061036D02*
X30783700Y-40061036D01*
D14*
X28310140Y-49062938D02*
X28286363Y-49071182D01*
D15*
X28912115Y-38438216D02*
X29146536Y-38618172D01*
D14*
X28558730Y-48862427D02*
X28522274Y-48904321D01*
X22440442Y-43310517D02*
X22302675Y-43211114D01*
X31762563Y-45135264D02*
X31581066Y-45309172D01*
X27865555Y-36440042D02*
X27900513Y-36403781D01*
X21850568Y-42744769D02*
X21846103Y-42724395D01*
D15*
X32707915Y-42946275D02*
X32695099Y-42975843D01*
D14*
X28522274Y-48904321D02*
X28487292Y-48940603D01*
X28453818Y-36372373D02*
X28470365Y-36387290D01*
X33813160Y-41934551D02*
X33947556Y-42033547D01*
X28335612Y-36292119D02*
X28348973Y-36298820D01*
D15*
X30081169Y-45944173D02*
X29742400Y-46238873D01*
X28233278Y-47244533D02*
X28193999Y-47245893D01*
X23659053Y-42456934D02*
X23668830Y-42428723D01*
D14*
X33947556Y-42033547D02*
X34085323Y-42132987D01*
X34353662Y-42332164D02*
X34374568Y-42351450D01*
X24449244Y-44970071D02*
X24116529Y-44667334D01*
X34520447Y-42547709D02*
X34530210Y-42573139D01*
X34393903Y-42973736D02*
X34374568Y-42992631D01*
D15*
X27241462Y-46725836D02*
X26960921Y-46501480D01*
D14*
X22106842Y-43071840D02*
X22080755Y-43051270D01*
D15*
X23623772Y-42692676D02*
X23623446Y-42671999D01*
D14*
X28038865Y-49044983D02*
X28025081Y-49037419D01*
X29625052Y-37918816D02*
X29714763Y-38029240D01*
X26453778Y-47053583D02*
X26322448Y-46902164D01*
D15*
X26306828Y-45944173D02*
X26132194Y-45786711D01*
D14*
X21861926Y-42563788D02*
X21867159Y-42550715D01*
X27070914Y-47825736D02*
X27070914Y-47825736D01*
X28286363Y-49071182D02*
X28264313Y-49077026D01*
D15*
X28110819Y-47239998D02*
X28087195Y-47236327D01*
X29146536Y-46725836D02*
X28912115Y-46905786D01*
X28062486Y-47231605D02*
X28036718Y-47225748D01*
X27861173Y-38182023D02*
X27892803Y-38167559D01*
D14*
X27771846Y-48788132D02*
X27752055Y-48760197D01*
X27070914Y-37518263D02*
X27070914Y-37518263D01*
X30212339Y-38607620D02*
X30375379Y-38788012D01*
X28406499Y-36334638D02*
X28421881Y-36346098D01*
X31205901Y-45681624D02*
X30753382Y-46150071D01*
X28391513Y-49019795D02*
X28362746Y-49037646D01*
X30969931Y-39420306D02*
X31205901Y-39662527D01*
X32108701Y-44813969D02*
X31938754Y-44970071D01*
D15*
X28036718Y-47225748D02*
X28009913Y-47218670D01*
D14*
X29192780Y-37353120D02*
X29317084Y-37518263D01*
X33044810Y-41336604D02*
X33298074Y-41539499D01*
X21897081Y-42492656D02*
X21907119Y-42476782D01*
D15*
X32238815Y-41712773D02*
X32421641Y-41950625D01*
D14*
X23816284Y-40940103D02*
X24116529Y-40676769D01*
D15*
X27761015Y-38236157D02*
X27795255Y-38216236D01*
X28277179Y-38104001D02*
X28300803Y-38107672D01*
D14*
X33460578Y-43677124D02*
X33298074Y-43804501D01*
X31581066Y-45309172D02*
X31395200Y-45491417D01*
D15*
X27953288Y-38143489D02*
X27982095Y-38133713D01*
X32758657Y-42580877D02*
X32761364Y-42604344D01*
D14*
X22080825Y-42292811D02*
X22106892Y-42272262D01*
X29317084Y-47825736D02*
X29317084Y-47825736D01*
X34545686Y-42693986D02*
X34544372Y-42709258D01*
D15*
X32680635Y-43006439D02*
X32664438Y-43038122D01*
X27828649Y-38198220D02*
X27861173Y-38182023D01*
D14*
X29192780Y-47990945D02*
X29024068Y-48218531D01*
X27965917Y-36346431D02*
X27996295Y-36324546D01*
D15*
X24149183Y-43631272D02*
X23966357Y-43393441D01*
X28193999Y-47245893D02*
X28174949Y-47245567D01*
D14*
X30753382Y-46150071D02*
X30375379Y-46556051D01*
X26570443Y-47191011D02*
X26453778Y-47053583D01*
X32571713Y-44403973D02*
X32271468Y-44667334D01*
D15*
X27923516Y-47189257D02*
X27892803Y-47176441D01*
D14*
X22164576Y-43113944D02*
X22134761Y-43092736D01*
X34223422Y-42230208D02*
X34253103Y-42251289D01*
X27847527Y-48883898D02*
X27829137Y-48862252D01*
X28208831Y-36259821D02*
X28225515Y-36260877D01*
D15*
X32553061Y-43214067D02*
X32421641Y-43393441D01*
X23692899Y-42369480D02*
X23707363Y-42338410D01*
X23623446Y-42671999D02*
X23623446Y-42671999D01*
X23624806Y-42629886D02*
X23626634Y-42607671D01*
D14*
X30375379Y-38788012D02*
X30555462Y-38983374D01*
D15*
X29427076Y-46501480D02*
X29146536Y-46725836D01*
X32744407Y-42837102D02*
X32737329Y-42863148D01*
X28626983Y-38236157D02*
X28735152Y-38308826D01*
D14*
X28437655Y-36358659D02*
X28453818Y-36372373D01*
X22574838Y-43409485D02*
X22440442Y-43310517D01*
D15*
X27241462Y-38618172D02*
X27475882Y-38438216D01*
X28133335Y-47242705D02*
X28110819Y-47239998D01*
D14*
X28025081Y-36306657D02*
X28052239Y-36292364D01*
X21846146Y-42619649D02*
X21850629Y-42599272D01*
D15*
X32695099Y-42975843D02*
X32680635Y-43006439D01*
D14*
X27363930Y-37125544D02*
X27556419Y-36860750D01*
X29714763Y-38029240D02*
X29817555Y-38153007D01*
X27865555Y-48904095D02*
X27847527Y-48883898D01*
D15*
X28325512Y-47231605D02*
X28300803Y-47236327D01*
X32728944Y-42889987D02*
X32719168Y-42917676D01*
X24376840Y-41428311D02*
X24642754Y-41109072D01*
D14*
X31938754Y-40374057D02*
X32271468Y-40676769D01*
D15*
X29909562Y-39248899D02*
X30081169Y-39399891D01*
D14*
X26012619Y-38788012D02*
X26322448Y-38441872D01*
D15*
X32750264Y-42811788D02*
X32744407Y-42837102D01*
D14*
X28616112Y-36555952D02*
X28635943Y-36583954D01*
D15*
X32421641Y-41950625D02*
X32553061Y-42130035D01*
D14*
X27917435Y-48956501D02*
X27900513Y-48940347D01*
X27070914Y-47825736D02*
X26906298Y-47607305D01*
X28362746Y-36306372D02*
X28376928Y-36314826D01*
D15*
X28300803Y-38107672D02*
X28325512Y-38112394D01*
D14*
X29817555Y-38153007D02*
X29934220Y-38290443D01*
X33044810Y-44007419D02*
X32831993Y-44182997D01*
X25418067Y-45923819D02*
X25182097Y-45681624D01*
X34533993Y-42759035D02*
X34530210Y-42770869D01*
X28010889Y-49028955D02*
X27996295Y-49019543D01*
X29934220Y-38290443D02*
X30065550Y-38441872D01*
X28244020Y-36263128D02*
X28264313Y-36266976D01*
D15*
X24642754Y-44234972D02*
X24376840Y-43915727D01*
D14*
X28470365Y-36387290D02*
X28487292Y-36403460D01*
D15*
X23723560Y-42306347D02*
X23741576Y-42273273D01*
D14*
X34280906Y-42272040D02*
X34306893Y-42292445D01*
D15*
X28193999Y-38098106D02*
X28193999Y-38098106D01*
X28735152Y-38308826D02*
X28912115Y-38438216D01*
X29742400Y-46238873D02*
X29427076Y-46501480D01*
D14*
X28831579Y-48483334D02*
X28732865Y-48621831D01*
X21918171Y-42883610D02*
X21896955Y-42851357D01*
X26570443Y-38153007D02*
X26762946Y-37918816D01*
D15*
X23834937Y-42130035D02*
X23966357Y-41950625D01*
X27761015Y-47107843D02*
X27761015Y-47107843D01*
D14*
X28310140Y-36281070D02*
X28322666Y-36286219D01*
X27791293Y-36529730D02*
X27829137Y-36481892D01*
D15*
X32761364Y-42604344D02*
X32763192Y-42627314D01*
D14*
X23816284Y-44403973D02*
X23556005Y-44182997D01*
D15*
X23626634Y-42736329D02*
X23624806Y-42714113D01*
D14*
X30065550Y-38441872D02*
X30212339Y-38607620D01*
X28635943Y-48760197D02*
X28635943Y-48760197D01*
D15*
X28378085Y-38125329D02*
X28405903Y-38133713D01*
D14*
X34469160Y-42458277D02*
X34490413Y-42490168D01*
D15*
X23741576Y-42273273D02*
X23761497Y-42239168D01*
D14*
X33298074Y-43804501D02*
X33298074Y-43804501D01*
D15*
X30432049Y-45623535D02*
X30081169Y-45944173D01*
X27652845Y-38308826D02*
X27761015Y-38236157D01*
X30608486Y-39888712D02*
X30783700Y-40061036D01*
D14*
X27996295Y-49019543D02*
X27981303Y-49009132D01*
D15*
X31599994Y-44403943D02*
X31447646Y-44577174D01*
D14*
X27933978Y-48971406D02*
X27917435Y-48956501D01*
D15*
X27475882Y-38438216D02*
X27652845Y-38308826D01*
D14*
X23556005Y-44182997D02*
X23343188Y-44007419D01*
D15*
X32238815Y-43631272D02*
X32011158Y-43915727D01*
X32728944Y-42454040D02*
X32737329Y-42480870D01*
D14*
X22012979Y-42352348D02*
X22033930Y-42332872D01*
D15*
X24788004Y-40940110D02*
X24940352Y-40766892D01*
X27982095Y-38133713D02*
X28009913Y-38125329D01*
D14*
X27933978Y-36372710D02*
X27965917Y-36346431D01*
X27195218Y-37353120D02*
X27363930Y-37125544D01*
X28286363Y-36272822D02*
X28298038Y-36276621D01*
X23343188Y-41336604D02*
X23556005Y-41161050D01*
X23343188Y-44007419D02*
X23089924Y-43804501D01*
D15*
X23624806Y-42714113D02*
X23623772Y-42692676D01*
D14*
X31581066Y-40034973D02*
X31938754Y-40374057D01*
X30065550Y-46902164D02*
X29817555Y-47191011D01*
X28225515Y-36260877D02*
X28244020Y-36263128D01*
X26762946Y-37918816D02*
X26906298Y-37736696D01*
X27791293Y-48814419D02*
X27771846Y-48788132D01*
X34374568Y-42351450D02*
X34411728Y-42388808D01*
X23089924Y-43804501D02*
X23089924Y-43804501D01*
D15*
X32626501Y-43104984D02*
X32626501Y-43104984D01*
X27652845Y-47035174D02*
X27475882Y-46905786D01*
X32707915Y-42397774D02*
X32719168Y-42426361D01*
D14*
X22164576Y-43113944D02*
X22164576Y-43113944D01*
X22134788Y-42251388D02*
X22164576Y-42230208D01*
D15*
X32754985Y-42787149D02*
X32750264Y-42811788D01*
X28133335Y-38101294D02*
X28154720Y-38099466D01*
D14*
X27752055Y-36583954D02*
X27791293Y-36529730D01*
D15*
X23761497Y-43104984D02*
X23761497Y-43104984D01*
X27892803Y-47176441D02*
X27861173Y-47161977D01*
D14*
X34545686Y-42650014D02*
X34546148Y-42671999D01*
D15*
X25263058Y-44930500D02*
X24940352Y-44577174D01*
D14*
X24279296Y-40530147D02*
X24449244Y-40374057D01*
X33298074Y-43804501D02*
X33044810Y-44007419D01*
X28162464Y-49083098D02*
X28143939Y-49080821D01*
D15*
X28626983Y-38236157D02*
X28626983Y-38236157D01*
D14*
X21857388Y-42767785D02*
X21850568Y-42744769D01*
X23089924Y-41539499D02*
X23089924Y-41539499D01*
X28558730Y-36481674D02*
X28577502Y-36504863D01*
D15*
X27982095Y-47210286D02*
X27953288Y-47200510D01*
X32764551Y-42671999D02*
X32764226Y-42694153D01*
D14*
X31938754Y-44970071D02*
X31762563Y-45135264D01*
X34546148Y-42671999D02*
X34546148Y-42671999D01*
X29317084Y-47825736D02*
X29192780Y-47990945D01*
X24449244Y-40374057D02*
X24625435Y-40208873D01*
D15*
X28154720Y-47244533D02*
X28133335Y-47242705D01*
X25098977Y-40590896D02*
X25263058Y-40413602D01*
X28378085Y-47218670D02*
X28351280Y-47225748D01*
X26306828Y-39399891D02*
X26645598Y-39105163D01*
D14*
X33298074Y-41539499D02*
X33460578Y-41666878D01*
X27752055Y-48760197D02*
X27752055Y-48760197D01*
X28225515Y-49083123D02*
X28193999Y-49084442D01*
D15*
X27795255Y-47127763D02*
X27761015Y-47107843D01*
D14*
X22440442Y-42033547D02*
X22702825Y-41838665D01*
D15*
X32737329Y-42480870D02*
X32744407Y-42506911D01*
X32758657Y-42763125D02*
X32754985Y-42787149D01*
D14*
X28635943Y-48760197D02*
X28596630Y-48814519D01*
X34280906Y-43072085D02*
X34253103Y-43092848D01*
D15*
X23626634Y-42607671D02*
X23629341Y-42584657D01*
X28009913Y-47218670D02*
X27982095Y-47210286D01*
X28325512Y-38112394D02*
X28351280Y-38118251D01*
D14*
X34085323Y-43211114D02*
X33947556Y-43310517D01*
D15*
X23761497Y-43104984D02*
X23741576Y-43070852D01*
D14*
X22056438Y-43031044D02*
X22033829Y-43011178D01*
X24625435Y-40208873D02*
X24806932Y-40034973D01*
D15*
X26645598Y-46238873D02*
X26478435Y-46095150D01*
X23629341Y-42584657D02*
X23633012Y-42560826D01*
X28174949Y-47245567D02*
X28154720Y-47244533D01*
D14*
X28335612Y-49051893D02*
X28310140Y-49062938D01*
D15*
X32750264Y-42532219D02*
X32754985Y-42556855D01*
X28110819Y-38104001D02*
X28133335Y-38101294D01*
D14*
X21975629Y-42953910D02*
X21944230Y-42917839D01*
D15*
X23966357Y-43393441D02*
X23834937Y-43214067D01*
X23659053Y-42887092D02*
X23650669Y-42859788D01*
D14*
X21842263Y-42651926D02*
X21843522Y-42637246D01*
D15*
X28254663Y-47242705D02*
X28233278Y-47244533D01*
D14*
X34374568Y-42992631D02*
X34353662Y-43011927D01*
X21944365Y-42426173D02*
X21959363Y-42408363D01*
X32831993Y-41161050D02*
X33044810Y-41336604D01*
D15*
X23741576Y-43070852D02*
X23723560Y-43037755D01*
X28912115Y-46905786D02*
X28735152Y-47035174D01*
X32664438Y-43038122D02*
X32646421Y-43070951D01*
X28626983Y-47107843D02*
X28592743Y-47127763D01*
X23650669Y-42859788D02*
X23643591Y-42833380D01*
D14*
X34544372Y-42634742D02*
X34545686Y-42650014D01*
X27829137Y-48862252D02*
X27810391Y-48839109D01*
X29817555Y-47191011D02*
X29625052Y-47425191D01*
X27829137Y-36481892D02*
X27865555Y-36440042D01*
X30555462Y-38983374D02*
X30753382Y-39194030D01*
D15*
X28626983Y-47107843D02*
X28626983Y-47107843D01*
D14*
X28193999Y-36259558D02*
X28208831Y-36259821D01*
D15*
X23643591Y-42833380D02*
X23637734Y-42807850D01*
D14*
X34223422Y-43113944D02*
X34085323Y-43211114D01*
X21873229Y-42537049D02*
X21880198Y-42522806D01*
X33460578Y-41666878D02*
X33685173Y-41838665D01*
D15*
X25604298Y-40061036D02*
X25955949Y-39720566D01*
D14*
X28504597Y-36420933D02*
X28522274Y-36439760D01*
D15*
X25779512Y-45455413D02*
X25604298Y-45283115D01*
D14*
X34490413Y-42490168D02*
X34507345Y-42520015D01*
D15*
X23707363Y-43005671D02*
X23692899Y-42974583D01*
D14*
X22012866Y-42991689D02*
X21975629Y-42953910D01*
X28193999Y-36259558D02*
X28193999Y-36259558D01*
D15*
X26645598Y-39105163D02*
X26960921Y-38842539D01*
X23633012Y-42783178D02*
X23629341Y-42759344D01*
X32764226Y-42649846D02*
X32764551Y-42671999D01*
D14*
X34507345Y-42824004D02*
X34499388Y-42838669D01*
D15*
X28009913Y-38125329D02*
X28036718Y-38118251D01*
D14*
X30753382Y-39194030D02*
X30969931Y-39420306D01*
D15*
X23761497Y-42239168D02*
X23834937Y-42130035D01*
D14*
X27195218Y-47990945D02*
X27070914Y-47825736D01*
X28123621Y-49076941D02*
X28101543Y-49071059D01*
D15*
X29427076Y-38842539D02*
X29742400Y-39105163D01*
D14*
X34525716Y-42783296D02*
X34520447Y-42796303D01*
D15*
X32646421Y-43070951D02*
X32626501Y-43104984D01*
D14*
X28052239Y-49051697D02*
X28038865Y-49044983D01*
X32571713Y-40940103D02*
X32831993Y-41161050D01*
X22302675Y-42132987D02*
X22440442Y-42033547D01*
X28348973Y-36298820D02*
X28362746Y-36306372D01*
D15*
X32646421Y-42273174D02*
X32664438Y-42305979D01*
D14*
X30375379Y-46556051D02*
X30065550Y-46902164D01*
D15*
X30081169Y-39399891D02*
X30255804Y-39557370D01*
D14*
X28732865Y-48621831D02*
X28635943Y-48760197D01*
D15*
X23629341Y-42759344D02*
X23626634Y-42736329D01*
D14*
X28362746Y-49037646D02*
X28335612Y-49051893D01*
X21846103Y-42724395D02*
X21843496Y-42706798D01*
X21993608Y-42371434D02*
X22012979Y-42352348D01*
D15*
X31124940Y-40413602D02*
X31447646Y-40766892D01*
X29146536Y-38618172D02*
X29427076Y-38842539D01*
X24642754Y-41109072D02*
X24788004Y-40940110D01*
D14*
X34443095Y-42424454D02*
X34469160Y-42458277D01*
X22927420Y-43677124D02*
X22702825Y-43505353D01*
X28123621Y-36267083D02*
X28143939Y-36263193D01*
D15*
X30956226Y-45107636D02*
X30783700Y-45283115D01*
X32763192Y-42627314D02*
X32764226Y-42649846D01*
D14*
X21841851Y-42671999D02*
X21841851Y-42671999D01*
X34530210Y-42573139D02*
X34537125Y-42596195D01*
X28143939Y-36263193D02*
X28162464Y-36260908D01*
D15*
X23633012Y-42560826D02*
X23637734Y-42536157D01*
X28087195Y-38107672D02*
X28110819Y-38104001D01*
D14*
X28421881Y-48997939D02*
X28391513Y-49019795D01*
D15*
X32719168Y-42917676D02*
X32707915Y-42946275D01*
X31447646Y-44577174D02*
X31289021Y-44753186D01*
X23966357Y-41950625D02*
X24149183Y-41712773D01*
X27828649Y-47145780D02*
X27795255Y-47127763D01*
D14*
X25634616Y-39194030D02*
X26012619Y-38788012D01*
D15*
X28193999Y-38098106D02*
X28213049Y-38098432D01*
D14*
X34499388Y-42838669D02*
X34490413Y-42853859D01*
D15*
X23623446Y-42671999D02*
X23623772Y-42651323D01*
D14*
X25182097Y-45681624D02*
X24806932Y-45309172D01*
X24116529Y-44667334D02*
X23816284Y-44403973D01*
X34443095Y-42919595D02*
X34428105Y-42937204D01*
D15*
X30783700Y-45283115D02*
X30432049Y-45623535D01*
X24940352Y-44577174D02*
X24642754Y-44234972D01*
D14*
X22702825Y-43505353D02*
X22574838Y-43409485D01*
D15*
X28464481Y-38154743D02*
X28495194Y-38167559D01*
D14*
X22106892Y-42272262D02*
X22134788Y-42251388D01*
X26322448Y-38441872D02*
X26570443Y-38153007D01*
X28391513Y-36324231D02*
X28406499Y-36334638D01*
D15*
X28233278Y-38099466D02*
X28254663Y-38101294D01*
X27861173Y-47161977D02*
X27828649Y-47145780D01*
X32737329Y-42863148D02*
X32728944Y-42889987D01*
D14*
X31205901Y-39662527D02*
X31205901Y-39662527D01*
D15*
X27923516Y-38154743D02*
X27953288Y-38143489D01*
D14*
X34537125Y-42747809D02*
X34533993Y-42759035D01*
X28193999Y-49084442D02*
X28193999Y-49084442D01*
D15*
X24376840Y-43915727D02*
X24149183Y-43631272D01*
D14*
X31205901Y-45681624D02*
X31205901Y-45681624D01*
X28322666Y-36286219D02*
X28335612Y-36292119D01*
X22056525Y-42313020D02*
X22080825Y-42292811D01*
X26012619Y-46556051D02*
X25832536Y-46360707D01*
X21880198Y-42522806D02*
X21888128Y-42508002D01*
X22302675Y-43211114D02*
X22164576Y-43113944D01*
X28453818Y-48971675D02*
X28421881Y-48997939D01*
G36*
X28327204Y-39878617D02*
G01*
X28384739Y-39890495D01*
X28440407Y-39909642D01*
X28494205Y-39935524D01*
X28546126Y-39967611D01*
X28596167Y-40005369D01*
X28644322Y-40048267D01*
X28690588Y-40095772D01*
X28734959Y-40147353D01*
X28777431Y-40202476D01*
X28817999Y-40260610D01*
X28856659Y-40321223D01*
X28928233Y-40447755D01*
X28992118Y-40577815D01*
X29048275Y-40707145D01*
X29096667Y-40831489D01*
X29137257Y-40946587D01*
X29170006Y-41048183D01*
X29221861Y-41234391D01*
X28808924Y-41866628D01*
X28797441Y-41804743D01*
X28782439Y-41735356D01*
X28772433Y-41693375D01*
X28760686Y-41647422D01*
X28747143Y-41598160D01*
X28731750Y-41546254D01*
X28714453Y-41492367D01*
X28695199Y-41437164D01*
X28673932Y-41381309D01*
X28650600Y-41325465D01*
X28625147Y-41270298D01*
X28597520Y-41216470D01*
X28574115Y-41174261D01*
X28550249Y-41133258D01*
X28525904Y-41093671D01*
X28501063Y-41055708D01*
X28475709Y-41019579D01*
X28449826Y-40985493D01*
X28423397Y-40953660D01*
X28396405Y-40924290D01*
X28368832Y-40897590D01*
X28340662Y-40873771D01*
X28311878Y-40853043D01*
X28282463Y-40835614D01*
X28267514Y-40828202D01*
X28252401Y-40821693D01*
X28237121Y-40816114D01*
X28221674Y-40811491D01*
X28206056Y-40807849D01*
X28190265Y-40805216D01*
X28174300Y-40803617D01*
X28158157Y-40803078D01*
X28141003Y-40804042D01*
X28122101Y-40807046D01*
X28101603Y-40812257D01*
X28079658Y-40819840D01*
X28056417Y-40829963D01*
X28032031Y-40842792D01*
X28006648Y-40858494D01*
X27980421Y-40877236D01*
X27953499Y-40899183D01*
X27926032Y-40924503D01*
X27898170Y-40953362D01*
X27870064Y-40985927D01*
X27841865Y-41022364D01*
X27813722Y-41062840D01*
X27785785Y-41107522D01*
X27758206Y-41156576D01*
X27731133Y-41210169D01*
X27704719Y-41268467D01*
X27679112Y-41331637D01*
X27654463Y-41399845D01*
X27630922Y-41473259D01*
X27608640Y-41552045D01*
X27587767Y-41636369D01*
X27568453Y-41726397D01*
X27550848Y-41822298D01*
X27535103Y-41924236D01*
X27521368Y-42032380D01*
X27509794Y-42146895D01*
X27500530Y-42267947D01*
X27493726Y-42395705D01*
X27489534Y-42530333D01*
X27488104Y-42671999D01*
X27493058Y-42950805D01*
X27507335Y-43206658D01*
X27530056Y-43440248D01*
X27560342Y-43652259D01*
X27597314Y-43843381D01*
X27640095Y-44014298D01*
X27687804Y-44165699D01*
X27739564Y-44298270D01*
X27794495Y-44412699D01*
X27851718Y-44509672D01*
X27910356Y-44589877D01*
X27969529Y-44653999D01*
X28028359Y-44702727D01*
X28085966Y-44736748D01*
X28141472Y-44756747D01*
X28193999Y-44763413D01*
X28221601Y-44761936D01*
X28248664Y-44757413D01*
X28275167Y-44750047D01*
X28301088Y-44740041D01*
X28326404Y-44727597D01*
X28351092Y-44712918D01*
X28375132Y-44696207D01*
X28398500Y-44677668D01*
X28421175Y-44657502D01*
X28443134Y-44635912D01*
X28464356Y-44613102D01*
X28484818Y-44589275D01*
X28523373Y-44539377D01*
X28558622Y-44487843D01*
X28590388Y-44436295D01*
X28618494Y-44386355D01*
X28642763Y-44339646D01*
X28663016Y-44297791D01*
X28690770Y-44235133D01*
X28700336Y-44211362D01*
X28608910Y-43845809D01*
X29155948Y-43646403D01*
X28865268Y-44859699D01*
X28797838Y-44594836D01*
X28785683Y-44619243D01*
X28750772Y-44683588D01*
X28725512Y-44726578D01*
X28695437Y-44774562D01*
X28660839Y-44825875D01*
X28622009Y-44878854D01*
X28579239Y-44931834D01*
X28532820Y-44983152D01*
X28508333Y-45007668D01*
X28483044Y-45031145D01*
X28456987Y-45053374D01*
X28430201Y-45074148D01*
X28402721Y-45093258D01*
X28374584Y-45110497D01*
X28345826Y-45125657D01*
X28316484Y-45138529D01*
X28286593Y-45148906D01*
X28256191Y-45156579D01*
X28225315Y-45161342D01*
X28193999Y-45162985D01*
X28161061Y-45161112D01*
X28126548Y-45155392D01*
X28090635Y-45145722D01*
X28053496Y-45131995D01*
X28015305Y-45114105D01*
X27976238Y-45091948D01*
X27936468Y-45065417D01*
X27896171Y-45034407D01*
X27855520Y-44998813D01*
X27814690Y-44958528D01*
X27773857Y-44913448D01*
X27733193Y-44863466D01*
X27692874Y-44808477D01*
X27653075Y-44748377D01*
X27613970Y-44683058D01*
X27575733Y-44612415D01*
X27538539Y-44536344D01*
X27502562Y-44454738D01*
X27467977Y-44367491D01*
X27434959Y-44274499D01*
X27403682Y-44175656D01*
X27374320Y-44070855D01*
X27347049Y-43959993D01*
X27322042Y-43842962D01*
X27299474Y-43719657D01*
X27279520Y-43589974D01*
X27262354Y-43453806D01*
X27248151Y-43311047D01*
X27237085Y-43161593D01*
X27229331Y-43005337D01*
X27225063Y-42842175D01*
X27224455Y-42671999D01*
X27231356Y-42335247D01*
X27246819Y-42019833D01*
X27270676Y-41725812D01*
X27302757Y-41453236D01*
X27342894Y-41202160D01*
X27390919Y-40972636D01*
X27446662Y-40764719D01*
X27509954Y-40578460D01*
X27580626Y-40413915D01*
X27658511Y-40271136D01*
X27743438Y-40150176D01*
X27835240Y-40051089D01*
X27933746Y-39973929D01*
X27985461Y-39943587D01*
X28038789Y-39918748D01*
X28093709Y-39899416D01*
X28150199Y-39885600D01*
X28208239Y-39877305D01*
X28267808Y-39874539D01*
X28327204Y-39878617D01*
G37*
G36*
X27081747Y-42273657D02*
G01*
X27077350Y-42402847D01*
X27074291Y-42535283D01*
X27072585Y-42670936D01*
X27072772Y-42808802D01*
X27075337Y-42942254D01*
X27080209Y-43071377D01*
X27087316Y-43196258D01*
X23710773Y-43196258D01*
X23710773Y-42147741D01*
X27087468Y-42147741D01*
X27081747Y-42273657D01*
G37*
G36*
X30609739Y-42147928D02*
G01*
X30617212Y-42148482D01*
X30624622Y-42149401D01*
X30631955Y-42150679D01*
X30639201Y-42152311D01*
X30646346Y-42154293D01*
X30653378Y-42156618D01*
X30660286Y-42159284D01*
X30667057Y-42162284D01*
X30673678Y-42165613D01*
X30680138Y-42169267D01*
X30686424Y-42173242D01*
X30692525Y-42177531D01*
X30698427Y-42182130D01*
X30704118Y-42187035D01*
X30709587Y-42192240D01*
X30714792Y-42197684D01*
X30719697Y-42203357D01*
X30724296Y-42209246D01*
X30728585Y-42215338D01*
X30732559Y-42221621D01*
X30736214Y-42228082D01*
X30739543Y-42234707D01*
X30742543Y-42241484D01*
X30745208Y-42248400D01*
X30747534Y-42255441D01*
X30749516Y-42262596D01*
X30751148Y-42269851D01*
X30752426Y-42277192D01*
X30753344Y-42284609D01*
X30753899Y-42292086D01*
X30754085Y-42299612D01*
X30754085Y-43044387D01*
X30753899Y-43051938D01*
X30753344Y-43059434D01*
X30752426Y-43066863D01*
X30751148Y-43074213D01*
X30749516Y-43081471D01*
X30747534Y-43088625D01*
X30745208Y-43095663D01*
X30742543Y-43102572D01*
X30739543Y-43109341D01*
X30736214Y-43115957D01*
X30732559Y-43122409D01*
X30728585Y-43128682D01*
X30724296Y-43134767D01*
X30719697Y-43140649D01*
X30714792Y-43146317D01*
X30709587Y-43151760D01*
X30704118Y-43156965D01*
X30698427Y-43161869D01*
X30692525Y-43166469D01*
X30686424Y-43170758D01*
X30680138Y-43174732D01*
X30673678Y-43178386D01*
X30667057Y-43181716D01*
X30660286Y-43184716D01*
X30653378Y-43187381D01*
X30646346Y-43189706D01*
X30639201Y-43191688D01*
X30631955Y-43193320D01*
X30624622Y-43194598D01*
X30617212Y-43195517D01*
X30609739Y-43196071D01*
X30602215Y-43196258D01*
X27658654Y-43196258D01*
X27650610Y-43073828D01*
X27650257Y-43066104D01*
X29568733Y-43066104D01*
X30297258Y-43066104D01*
X30301800Y-43065990D01*
X30306281Y-43065649D01*
X30310696Y-43065088D01*
X30315040Y-43064313D01*
X30319306Y-43063328D01*
X30323490Y-43062140D01*
X30327586Y-43060754D01*
X30331588Y-43059175D01*
X30335491Y-43057410D01*
X30339290Y-43055463D01*
X30342979Y-43053341D01*
X30346552Y-43051048D01*
X30350005Y-43048591D01*
X30353331Y-43045974D01*
X30356525Y-43043204D01*
X30359582Y-43040286D01*
X30362496Y-43037226D01*
X30365262Y-43034029D01*
X30367874Y-43030701D01*
X30370327Y-43027247D01*
X30372615Y-43023673D01*
X30374732Y-43019984D01*
X30376675Y-43016186D01*
X30378435Y-43012285D01*
X30380010Y-43008286D01*
X30381392Y-43004195D01*
X30382576Y-43000017D01*
X30383558Y-42995757D01*
X30384331Y-42991422D01*
X30384890Y-42987017D01*
X30385229Y-42982548D01*
X30385343Y-42978019D01*
X30385343Y-42975741D01*
X30385229Y-42971213D01*
X30384890Y-42966743D01*
X30384331Y-42962338D01*
X30383558Y-42958003D01*
X30382576Y-42953744D01*
X30381392Y-42949566D01*
X30380010Y-42945475D01*
X30378435Y-42941476D01*
X30376675Y-42937574D01*
X30374732Y-42933777D01*
X30372615Y-42930088D01*
X30370327Y-42926514D01*
X30367874Y-42923060D01*
X30365262Y-42919732D01*
X30362496Y-42916535D01*
X30359582Y-42913474D01*
X30356525Y-42910557D01*
X30353331Y-42907787D01*
X30350005Y-42905170D01*
X30346552Y-42902713D01*
X30342979Y-42900420D01*
X30339290Y-42898298D01*
X30335491Y-42896351D01*
X30331588Y-42894586D01*
X30327586Y-42893007D01*
X30323490Y-42891621D01*
X30319306Y-42890433D01*
X30315040Y-42889448D01*
X30310696Y-42888673D01*
X30306281Y-42888112D01*
X30301800Y-42887772D01*
X30297258Y-42887657D01*
X29568733Y-42887657D01*
X29568733Y-43066104D01*
X27650257Y-43066104D01*
X27644758Y-42945690D01*
X27641184Y-42811771D01*
X27640746Y-42761148D01*
X29568733Y-42761148D01*
X30297258Y-42761148D01*
X30301800Y-42761034D01*
X30306281Y-42760695D01*
X30310696Y-42760136D01*
X30315040Y-42759363D01*
X30319306Y-42758381D01*
X30323490Y-42757197D01*
X30327586Y-42755815D01*
X30331588Y-42754240D01*
X30335491Y-42752480D01*
X30339290Y-42750537D01*
X30342979Y-42748420D01*
X30346552Y-42746132D01*
X30350005Y-42743679D01*
X30353331Y-42741067D01*
X30356525Y-42738301D01*
X30359582Y-42735387D01*
X30362496Y-42732330D01*
X30365262Y-42729136D01*
X30367874Y-42725810D01*
X30370327Y-42722357D01*
X30372615Y-42718784D01*
X30374732Y-42715095D01*
X30376675Y-42711296D01*
X30378435Y-42707393D01*
X30380010Y-42703390D01*
X30381392Y-42699295D01*
X30382576Y-42695111D01*
X30383558Y-42690844D01*
X30384331Y-42686501D01*
X30384890Y-42682086D01*
X30385229Y-42677604D01*
X30385343Y-42673063D01*
X30385343Y-42670936D01*
X30385229Y-42666408D01*
X30384890Y-42661938D01*
X30384331Y-42657533D01*
X30383558Y-42653198D01*
X30382576Y-42648939D01*
X30381392Y-42644761D01*
X30380010Y-42640670D01*
X30378435Y-42636671D01*
X30376675Y-42632770D01*
X30374732Y-42628972D01*
X30372615Y-42625283D01*
X30370327Y-42621709D01*
X30367874Y-42618255D01*
X30365262Y-42614927D01*
X30362496Y-42611730D01*
X30359582Y-42608670D01*
X30356525Y-42605752D01*
X30353331Y-42602982D01*
X30350005Y-42600366D01*
X30346552Y-42597908D01*
X30342979Y-42595616D01*
X30339290Y-42593493D01*
X30335491Y-42591546D01*
X30331588Y-42589781D01*
X30327586Y-42588202D01*
X30323490Y-42586816D01*
X30319306Y-42585628D01*
X30315040Y-42584643D01*
X30310696Y-42583868D01*
X30306281Y-42583307D01*
X30301800Y-42582966D01*
X30297258Y-42582852D01*
X29568733Y-42582852D01*
X29568733Y-42761148D01*
X27640746Y-42761148D01*
X27639974Y-42671999D01*
X27640341Y-42599995D01*
X27641426Y-42529879D01*
X27643210Y-42461632D01*
X27643406Y-42456343D01*
X29568733Y-42456343D01*
X30297258Y-42456343D01*
X30301800Y-42456229D01*
X30306281Y-42455888D01*
X30310696Y-42455327D01*
X30315040Y-42454552D01*
X30319306Y-42453567D01*
X30323490Y-42452379D01*
X30327586Y-42450993D01*
X30331588Y-42449414D01*
X30335491Y-42447649D01*
X30339290Y-42445702D01*
X30342979Y-42443579D01*
X30346552Y-42441287D01*
X30350005Y-42438829D01*
X30353331Y-42436213D01*
X30356525Y-42433443D01*
X30359582Y-42430525D01*
X30362496Y-42427465D01*
X30365262Y-42424268D01*
X30367874Y-42420940D01*
X30370327Y-42417486D01*
X30372615Y-42413911D01*
X30374732Y-42410223D01*
X30376675Y-42406425D01*
X30378435Y-42402524D01*
X30380010Y-42398525D01*
X30381392Y-42394433D01*
X30382576Y-42390255D01*
X30383558Y-42385996D01*
X30384331Y-42381661D01*
X30384890Y-42377256D01*
X30385229Y-42372787D01*
X30385343Y-42368258D01*
X30385343Y-42365980D01*
X30385229Y-42361452D01*
X30384890Y-42356982D01*
X30384331Y-42352577D01*
X30383558Y-42348242D01*
X30382576Y-42343983D01*
X30381392Y-42339805D01*
X30380010Y-42335713D01*
X30378435Y-42331714D01*
X30376675Y-42327813D01*
X30374732Y-42324015D01*
X30372615Y-42320327D01*
X30370327Y-42316752D01*
X30367874Y-42313298D01*
X30365262Y-42309970D01*
X30362496Y-42306773D01*
X30359582Y-42303713D01*
X30356525Y-42300795D01*
X30353331Y-42298025D01*
X30350005Y-42295409D01*
X30346552Y-42292951D01*
X30342979Y-42290658D01*
X30339290Y-42288536D01*
X30335491Y-42286589D01*
X30331588Y-42284824D01*
X30327586Y-42283245D01*
X30323490Y-42281859D01*
X30319306Y-42280671D01*
X30315040Y-42279686D01*
X30310696Y-42278911D01*
X30306281Y-42278350D01*
X30301800Y-42278009D01*
X30297258Y-42277895D01*
X29568733Y-42277895D01*
X29568733Y-42456343D01*
X27643406Y-42456343D01*
X27645669Y-42395234D01*
X27648784Y-42330666D01*
X27652532Y-42267907D01*
X27656892Y-42206939D01*
X27661843Y-42147741D01*
X30602215Y-42147741D01*
X30609739Y-42147928D01*
G37*
D13*
%TO.C,FB6*%
X81840000Y-36605242D02*
X81840000Y-35784758D01*
X80720000Y-36605242D02*
X80720000Y-35784758D01*
%TO.C,D9*%
X122900000Y-49006000D02*
X119000000Y-49006000D01*
X122900000Y-49006000D02*
X122900000Y-47006000D01*
X122900000Y-47006000D02*
X119000000Y-47006000D01*
%TO.C,R8*%
X101727724Y-40498500D02*
X101218276Y-40498500D01*
X101727724Y-41543500D02*
X101218276Y-41543500D01*
%TD*%
M02*
