%TF.GenerationSoftware,KiCad,Pcbnew,(6.0.10-0)*%
%TF.CreationDate,2022-12-22T01:29:59-08:00*%
%TF.ProjectId,Tesla Coil MIDI Synth,5465736c-6120-4436-9f69-6c204d494449,1*%
%TF.SameCoordinates,Original*%
%TF.FileFunction,Soldermask,Bot*%
%TF.FilePolarity,Negative*%
%FSLAX46Y46*%
G04 Gerber Fmt 4.6, Leading zero omitted, Abs format (unit mm)*
G04 Created by KiCad (PCBNEW (6.0.10-0)) date 2022-12-22 01:29:59*
%MOMM*%
%LPD*%
G01*
G04 APERTURE LIST*
G04 Aperture macros list*
%AMRoundRect*
0 Rectangle with rounded corners*
0 $1 Rounding radius*
0 $2 $3 $4 $5 $6 $7 $8 $9 X,Y pos of 4 corners*
0 Add a 4 corners polygon primitive as box body*
4,1,4,$2,$3,$4,$5,$6,$7,$8,$9,$2,$3,0*
0 Add four circle primitives for the rounded corners*
1,1,$1+$1,$2,$3*
1,1,$1+$1,$4,$5*
1,1,$1+$1,$6,$7*
1,1,$1+$1,$8,$9*
0 Add four rect primitives between the rounded corners*
20,1,$1+$1,$2,$3,$4,$5,0*
20,1,$1+$1,$4,$5,$6,$7,0*
20,1,$1+$1,$6,$7,$8,$9,0*
20,1,$1+$1,$8,$9,$2,$3,0*%
G04 Aperture macros list end*
%ADD10C,2.600000*%
%ADD11RoundRect,0.050000X-0.900000X-0.900000X0.900000X-0.900000X0.900000X0.900000X-0.900000X0.900000X0*%
%ADD12C,1.900000*%
%ADD13C,4.100000*%
%ADD14C,2.100000*%
%ADD15C,3.800000*%
%ADD16C,1.624000*%
%ADD17RoundRect,0.050000X0.800000X-0.800000X0.800000X0.800000X-0.800000X0.800000X-0.800000X-0.800000X0*%
%ADD18O,1.700000X1.700000*%
%ADD19RoundRect,0.050000X0.850000X0.850000X-0.850000X0.850000X-0.850000X-0.850000X0.850000X-0.850000X0*%
%ADD20O,1.800000X1.800000*%
%ADD21RoundRect,0.050000X-0.850000X-0.850000X0.850000X-0.850000X0.850000X0.850000X-0.850000X0.850000X0*%
%ADD22RoundRect,0.050000X-0.800000X0.800000X-0.800000X-0.800000X0.800000X-0.800000X0.800000X0.800000X0*%
%ADD23C,0.600000*%
%ADD24O,1.100000X1.900000*%
%ADD25O,1.100000X2.200000*%
%ADD26RoundRect,0.050000X-0.500000X0.500000X-0.500000X-0.500000X0.500000X-0.500000X0.500000X0.500000X0*%
%ADD27O,1.100000X1.100000*%
%ADD28C,0.750000*%
%ADD29O,1.300000X1.900000*%
%ADD30O,1.900000X1.300000*%
G04 APERTURE END LIST*
%TO.C,SG1*%
G36*
X147126014Y-35054089D02*
G01*
X147240166Y-35091179D01*
X147337270Y-35161730D01*
X147407821Y-35258834D01*
X147444911Y-35372986D01*
X147447000Y-35433000D01*
X147447000Y-38481000D01*
X147444911Y-38541014D01*
X147407821Y-38655166D01*
X147337270Y-38752270D01*
X147240166Y-38822821D01*
X147126014Y-38859911D01*
X147066000Y-38862000D01*
X143510000Y-38862000D01*
X143450027Y-38859655D01*
X143335952Y-38822589D01*
X143238913Y-38752087D01*
X143168411Y-38655048D01*
X143131345Y-38540973D01*
X143129000Y-38481000D01*
X143129000Y-35433000D01*
X143131345Y-35373027D01*
X143168411Y-35258952D01*
X143238913Y-35161913D01*
X143335952Y-35091411D01*
X143450027Y-35054345D01*
X143510000Y-35052000D01*
X147066000Y-35052000D01*
X147126014Y-35054089D01*
G37*
%TO.C,SG2*%
G36*
X72322973Y-34292345D02*
G01*
X72437048Y-34329411D01*
X72534087Y-34399913D01*
X72604589Y-34496952D01*
X72641655Y-34611027D01*
X72644000Y-34671000D01*
X72644000Y-37719000D01*
X72641655Y-37778973D01*
X72604589Y-37893048D01*
X72534087Y-37990087D01*
X72437048Y-38060589D01*
X72322973Y-38097655D01*
X72263000Y-38100000D01*
X68707000Y-38100000D01*
X68646986Y-38097911D01*
X68532834Y-38060821D01*
X68435730Y-37990270D01*
X68365179Y-37893166D01*
X68328089Y-37779014D01*
X68326000Y-37719000D01*
X68326000Y-34671000D01*
X68328089Y-34610986D01*
X68365179Y-34496834D01*
X68435730Y-34399730D01*
X68532834Y-34329179D01*
X68646986Y-34292089D01*
X68707000Y-34290000D01*
X72263000Y-34290000D01*
X72322973Y-34292345D01*
G37*
%TO.C,SG1*%
G36*
X147126014Y-35054089D02*
G01*
X147240166Y-35091179D01*
X147337270Y-35161730D01*
X147407821Y-35258834D01*
X147444911Y-35372986D01*
X147447000Y-35433000D01*
X147447000Y-38481000D01*
X147444911Y-38541014D01*
X147407821Y-38655166D01*
X147337270Y-38752270D01*
X147240166Y-38822821D01*
X147126014Y-38859911D01*
X147066000Y-38862000D01*
X143510000Y-38862000D01*
X143450027Y-38859655D01*
X143335952Y-38822589D01*
X143238913Y-38752087D01*
X143168411Y-38655048D01*
X143131345Y-38540973D01*
X143129000Y-38481000D01*
X143129000Y-35433000D01*
X143131345Y-35373027D01*
X143168411Y-35258952D01*
X143238913Y-35161913D01*
X143335952Y-35091411D01*
X143450027Y-35054345D01*
X143510000Y-35052000D01*
X147066000Y-35052000D01*
X147126014Y-35054089D01*
G37*
%TO.C,SG2*%
G36*
X72322973Y-34292345D02*
G01*
X72437048Y-34329411D01*
X72534087Y-34399913D01*
X72604589Y-34496952D01*
X72641655Y-34611027D01*
X72644000Y-34671000D01*
X72644000Y-37719000D01*
X72641655Y-37778973D01*
X72604589Y-37893048D01*
X72534087Y-37990087D01*
X72437048Y-38060589D01*
X72322973Y-38097655D01*
X72263000Y-38100000D01*
X68707000Y-38100000D01*
X68646986Y-38097911D01*
X68532834Y-38060821D01*
X68435730Y-37990270D01*
X68365179Y-37893166D01*
X68328089Y-37779014D01*
X68326000Y-37719000D01*
X68326000Y-34671000D01*
X68328089Y-34610986D01*
X68365179Y-34496834D01*
X68435730Y-34399730D01*
X68532834Y-34329179D01*
X68646986Y-34292089D01*
X68707000Y-34290000D01*
X72263000Y-34290000D01*
X72322973Y-34292345D01*
G37*
%TD*%
D10*
%TO.C,J7*%
X59777000Y-22559000D03*
X54777000Y-22559000D03*
X49777000Y-32559000D03*
X57277000Y-32559000D03*
X64777000Y-32559000D03*
X52277000Y-35059000D03*
X62277000Y-35059000D03*
%TD*%
D11*
%TO.C,D2*%
X37918571Y-75946000D03*
D12*
X40458571Y-75946000D03*
%TD*%
D13*
%TO.C,SW3*%
X34405000Y-56007000D03*
X45605000Y-56007000D03*
D14*
X37505000Y-63507000D03*
X42505000Y-63507000D03*
X40005000Y-63507000D03*
X37505000Y-49007000D03*
X42505000Y-49007000D03*
%TD*%
D11*
%TO.C,D6*%
X113392857Y-75946000D03*
D12*
X115932857Y-75946000D03*
%TD*%
D15*
%TO.C,REF\u002A\u002A*%
X48641000Y-75946000D03*
%TD*%
D14*
%TO.C,SW1*%
X23150000Y-72696000D03*
X23150000Y-79196000D03*
X27650000Y-79196000D03*
X27650000Y-72696000D03*
%TD*%
%TO.C,C23*%
X141538000Y-36957000D03*
X149038000Y-36957000D03*
%TD*%
D16*
%TO.C,U4*%
X118110000Y-28829000D03*
X120650000Y-28829000D03*
X123190000Y-28829000D03*
X125730000Y-28829000D03*
X125730000Y-26289000D03*
X123190000Y-26289000D03*
X120650000Y-26289000D03*
X118110000Y-26289000D03*
%TD*%
D11*
%TO.C,D4*%
X75655714Y-75946000D03*
D12*
X78195714Y-75946000D03*
%TD*%
D17*
%TO.C,U3*%
X136393000Y-46883000D03*
D18*
X138933000Y-46883000D03*
X138933000Y-36723000D03*
X136393000Y-36723000D03*
%TD*%
D19*
%TO.C,U7*%
X63775000Y-63627000D03*
D20*
X61235000Y-63627000D03*
X63775000Y-61087000D03*
X61235000Y-61087000D03*
X63775000Y-58547000D03*
X61235000Y-58547000D03*
X63775000Y-56007000D03*
X61235000Y-56007000D03*
X63775000Y-53467000D03*
X61235000Y-53467000D03*
X63775000Y-50927000D03*
X61235000Y-50927000D03*
X63775000Y-48387000D03*
X61235000Y-48387000D03*
X141735000Y-48507000D03*
X141735000Y-63507000D03*
%TD*%
D21*
%TO.C,J3*%
X147315000Y-43439000D03*
D20*
X149855000Y-43439000D03*
X147315000Y-45979000D03*
X149855000Y-45979000D03*
X147315000Y-48519000D03*
X149855000Y-48519000D03*
X147315000Y-51059000D03*
X149855000Y-51059000D03*
X147315000Y-53599000D03*
X149855000Y-53599000D03*
X147315000Y-56139000D03*
X149855000Y-56139000D03*
%TD*%
D15*
%TO.C,REF\u002A\u002A*%
X147320000Y-75946000D03*
%TD*%
D22*
%TO.C,U6*%
X55235000Y-40396000D03*
D18*
X52695000Y-40396000D03*
X50155000Y-40396000D03*
X47615000Y-40396000D03*
X47615000Y-48016000D03*
X50155000Y-48016000D03*
X52695000Y-48016000D03*
X55235000Y-48016000D03*
%TD*%
D13*
%TO.C,J5*%
X147066000Y-27686000D03*
X136906000Y-27686000D03*
D14*
X141986000Y-32766000D03*
X139446000Y-32766000D03*
%TD*%
D15*
%TO.C,REF\u002A\u002A*%
X130683000Y-36449000D03*
%TD*%
D11*
%TO.C,D3*%
X56787143Y-75946000D03*
D12*
X59327143Y-75946000D03*
%TD*%
D23*
%TO.C,J1*%
X31618500Y-26357000D03*
X25838500Y-26357000D03*
D24*
X33048500Y-22677000D03*
X24408500Y-22677000D03*
D25*
X33048500Y-26857000D03*
X24408500Y-26857000D03*
%TD*%
D14*
%TO.C,C19*%
X74235000Y-36195000D03*
X66735000Y-36195000D03*
%TD*%
D26*
%TO.C,J2*%
X98816000Y-36205000D03*
D27*
X98816000Y-37475000D03*
X97546000Y-36205000D03*
X97546000Y-37475000D03*
X96276000Y-36205000D03*
X96276000Y-37475000D03*
X95006000Y-36205000D03*
X95006000Y-37475000D03*
X93736000Y-36205000D03*
X93736000Y-37475000D03*
%TD*%
D28*
%TO.C,J4*%
X101648000Y-23495000D03*
X108148000Y-23495000D03*
D29*
X106248000Y-30495000D03*
X109148000Y-30495000D03*
X107748000Y-28495000D03*
D30*
X104648000Y-22395000D03*
D29*
X101048000Y-27395000D03*
X103048000Y-30495000D03*
%TD*%
D10*
%TO.C,J6*%
X86193000Y-22559000D03*
X81193000Y-22559000D03*
X76193000Y-32559000D03*
X83693000Y-32559000D03*
X91193000Y-32559000D03*
X78693000Y-35059000D03*
X88693000Y-35059000D03*
%TD*%
D15*
%TO.C,REF\u002A\u002A*%
X39116000Y-24130000D03*
%TD*%
D11*
%TO.C,D7*%
X132261429Y-75946000D03*
D12*
X134801429Y-75946000D03*
%TD*%
D11*
%TO.C,D5*%
X94524286Y-75946000D03*
D12*
X97064286Y-75946000D03*
%TD*%
D14*
%TO.C,SW2*%
X53376000Y-56186000D03*
X53376000Y-62686000D03*
X57876000Y-56186000D03*
X57876000Y-62686000D03*
%TD*%
M02*
